<?xml version="1.0" encoding="UTF-8" standalone="no"?>
<!-- Created with Inkscape (http://www.inkscape.org/) -->

<svg
   id="svg3213"
   sodipodi:docname="cartoon-robot.svg"
   viewBox="0 0 122 122"
   version="1.1"
   inkscape:version="1.2 (dc2aedaf03, 2022-05-15)"
   xmlns:inkscape="http://www.inkscape.org/namespaces/inkscape"
   xmlns:sodipodi="http://sodipodi.sourceforge.net/DTD/sodipodi-0.dtd"
   xmlns="http://www.w3.org/2000/svg"
   xmlns:svg="http://www.w3.org/2000/svg"
   xmlns:rdf="http://www.w3.org/1999/02/22-rdf-syntax-ns#"
   xmlns:cc="http://creativecommons.org/ns#"
   xmlns:dc="http://purl.org/dc/elements/1.1/">
  <defs
     id="defs2012" />
  <sodipodi:namedview
     id="namedview3215"
     fit-margin-left="0"
     inkscape:showpageshadow="false"
     inkscape:zoom="2.8284271"
     borderopacity="1"
     inkscape:current-layer="svg3213"
     inkscape:cx="6.8942911"
     inkscape:cy="77.074639"
     inkscape:window-maximized="1"
     showgrid="false"
     fit-margin-right="0"
     bordercolor="#666666"
     inkscape:window-x="-8"
     guidetolerance="10"
     objecttolerance="10"
     inkscape:window-y="-8"
     fit-margin-bottom="0"
     inkscape:window-width="1707"
     inkscape:pageopacity="0"
     inkscape:pageshadow="2"
     pagecolor="#ffffff"
     gridtolerance="10"
     inkscape:window-height="889"
     fit-margin-top="0"
     inkscape:pagecheckerboard="0"
     inkscape:deskcolor="#d1d1d1">
    <inkscape:grid
       id="grid3223"
       originy="49"
       enabled="true"
       originx="-3"
       visible="true"
       snapvisiblegridlinesonly="true"
       type="xygrid"
       empspacing="4"
       spacingx="1"
       spacingy="1" />
  </sodipodi:namedview>
  <rect
     id="rect4030"
     style="stroke:#5a5a5a;stroke-linecap:round;stroke-width:2;fill:#ebd1d1;fill-opacity:1"
     height="20"
     width="16"
     y="65"
     x="53" />
  <path
     id="path3997"
     style="stroke:#5a5a5a;stroke-linecap:round;stroke-width:2;fill:#ebd1d1;fill-opacity:1"
     inkscape:connector-curvature="0"
     d="m35 1c-18.778 0-34 15.222-34 34s15.222 34 34 34c5.7934 0 11.257-1.4446 16.031-4h19.938c4.774 2.555 10.238 4 16.031 4 18.78 0 34-15.222 34-34s-15.22-34-34-34h-52z" />
  <rect
     id="rect4012"
     style="stroke:#7f7f7f;stroke-width:2;fill:#f0f0f0"
     rx="22"
     ry="22"
     height="44"
     width="104"
     y="13"
     x="9" />
  <rect
     id="rect4026"
     style="stroke:#7f7f7f;stroke-linecap:round;stroke-width:2;fill:#ffffff"
     height="44"
     width="20"
     y="13"
     x="33" />
  <rect
     id="rect4022"
     style="stroke:#7f7f7f;stroke-linecap:round;stroke-width:2;fill:#68d7ff"
     height="12"
     width="16"
     y="29"
     x="33" />
  <rect
     id="rect4028"
     style="stroke:#7f7f7f;stroke-linecap:round;stroke-width:2;fill:#ffffff"
     height="44"
     width="20"
     y="13"
     x="69" />
  <rect
     id="rect4024"
     style="stroke:#7f7f7f;stroke-linecap:round;stroke-width:2;fill:#68d7ff"
     height="12"
     width="16"
     y="29"
     x="69" />
  <rect
     id="rect4034"
     style="stroke:#5a5a5a;stroke-linecap:round;stroke-width:2;fill:#b5b5b5"
     rx="6"
     ry="6"
     height="15"
     width="88"
     y="106"
     x="17" />
  <g
     id="g4050"
     transform="translate(0 .5)">
    <path
       id="path4036"
       sodipodi:rx="4"
       sodipodi:ry="4"
       style="stroke:#5a5a5a;stroke-linecap:round;stroke-width:2;fill:#7f7f7f"
       sodipodi:type="arc"
       d="m29 113a4 4 0 1 1 -8 0 4 4 0 1 1 8 0z"
       sodipodi:cy="113"
       sodipodi:cx="25" />
    <path
       id="path4038"
       sodipodi:rx="4"
       sodipodi:ry="4"
       style="stroke:#5a5a5a;stroke-linecap:round;stroke-width:2;fill:#7f7f7f"
       sodipodi:type="arc"
       d="m29 113a4 4 0 1 1 -8 0 4 4 0 1 1 8 0z"
       transform="translate(12)"
       sodipodi:cy="113"
       sodipodi:cx="25" />
    <path
       id="path4040"
       sodipodi:rx="4"
       sodipodi:ry="4"
       style="stroke:#5a5a5a;stroke-linecap:round;stroke-width:2;fill:#7f7f7f"
       sodipodi:type="arc"
       d="m29 113a4 4 0 1 1 -8 0 4 4 0 1 1 8 0z"
       transform="translate(24)"
       sodipodi:cy="113"
       sodipodi:cx="25" />
    <path
       id="path4042"
       sodipodi:rx="4"
       sodipodi:ry="4"
       style="stroke:#5a5a5a;stroke-linecap:round;stroke-width:2;fill:#7f7f7f"
       sodipodi:type="arc"
       d="m29 113a4 4 0 1 1 -8 0 4 4 0 1 1 8 0z"
       transform="translate(36)"
       sodipodi:cy="113"
       sodipodi:cx="25" />
    <path
       id="path4044"
       sodipodi:rx="4"
       sodipodi:ry="4"
       style="stroke:#5a5a5a;stroke-linecap:round;stroke-width:2;fill:#7f7f7f"
       sodipodi:type="arc"
       d="m29 113a4 4 0 1 1 -8 0 4 4 0 1 1 8 0z"
       transform="translate(48.5)"
       sodipodi:cy="113"
       sodipodi:cx="25" />
    <path
       id="path4046"
       sodipodi:rx="4"
       sodipodi:ry="4"
       style="stroke:#5a5a5a;stroke-linecap:round;stroke-width:2;fill:#7f7f7f"
       sodipodi:type="arc"
       d="m29 113a4 4 0 1 1 -8 0 4 4 0 1 1 8 0z"
       transform="translate(60.5)"
       sodipodi:cy="113"
       sodipodi:cx="25" />
    <path
       id="path4048"
       sodipodi:rx="4"
       sodipodi:ry="4"
       style="stroke:#5a5a5a;stroke-linecap:round;stroke-width:2;fill:#7f7f7f"
       sodipodi:type="arc"
       d="m29 113a4 4 0 1 1 -8 0 4 4 0 1 1 8 0z"
       transform="translate(72.5)"
       sodipodi:cy="113"
       sodipodi:cx="25" />
  </g>
  <rect
     id="rect4032"
     style="stroke:#5a5a5a;stroke-linecap:round;stroke-width:2;fill:#ebd1d1;fill-opacity:1"
     rx="14"
     ry="14"
     height="28"
     width="120"
     y="85"
     x="1" />
  <metadata
     id="metadata2009">
    <rdf:RDF>
      <cc:Work>
        <dc:format>image/svg+xml</dc:format>
        <dc:type
           rdf:resource="http://purl.org/dc/dcmitype/StillImage" />
        <cc:license
           rdf:resource="http://creativecommons.org/licenses/publicdomain/" />
        <dc:publisher>
          <cc:Agent
             rdf:about="http://openclipart.org/">
            <dc:title>Openclipart</dc:title>
          </cc:Agent>
        </dc:publisher>
        <dc:title>Cartoon Robot</dc:title>
        <dc:date>2012-03-07T11:04:29</dc:date>
        <dc:description />
        <dc:source>https://openclipart.org/detail/168755/cartoon-robot-by-qubodup</dc:source>
        <dc:creator>
          <cc:Agent>
            <dc:title>qubodup</dc:title>
          </cc:Agent>
        </dc:creator>
        <dc:subject>
          <rdf:Bag>
            <rdf:li>cartoon</rdf:li>
            <rdf:li>clean</rdf:li>
            <rdf:li>cute</rdf:li>
            <rdf:li>modern</rdf:li>
            <rdf:li>robot</rdf:li>
            <rdf:li>white</rdf:li>
          </rdf:Bag>
        </dc:subject>
      </cc:Work>
      <cc:License
         rdf:about="http://creativecommons.org/licenses/publicdomain/">
        <cc:permits
           rdf:resource="http://creativecommons.org/ns#Reproduction" />
        <cc:permits
           rdf:resource="http://creativecommons.org/ns#Distribution" />
        <cc:permits
           rdf:resource="http://creativecommons.org/ns#DerivativeWorks" />
      </cc:License>
    </rdf:RDF>
  </metadata>
</svg>
