<?xml version="1.0" encoding="UTF-8"?>
<svg xmlns="http://www.w3.org/2000/svg" xmlns:xlink="http://www.w3.org/1999/xlink" width="224pt" height="90pt" viewBox="0 0 224 90" version="1.1">
<defs>
<g>
<symbol overflow="visible" id="glyph0-0">
<path style="stroke:none;" d=""/>
</symbol>
<symbol overflow="visible" id="glyph0-1">
<path style="stroke:none;" d="M 3.890625 -3.734375 C 3.625 -3.71875 3.421875 -3.5 3.421875 -3.28125 C 3.421875 -3.140625 3.515625 -2.984375 3.734375 -2.984375 C 3.953125 -2.984375 4.1875 -3.15625 4.1875 -3.546875 C 4.1875 -4 3.765625 -4.40625 3 -4.40625 C 1.6875 -4.40625 1.3125 -3.390625 1.3125 -2.953125 C 1.3125 -2.171875 2.046875 -2.03125 2.34375 -1.96875 C 2.859375 -1.859375 3.375 -1.75 3.375 -1.203125 C 3.375 -0.953125 3.15625 -0.109375 1.953125 -0.109375 C 1.8125 -0.109375 1.046875 -0.109375 0.8125 -0.640625 C 1.203125 -0.59375 1.453125 -0.890625 1.453125 -1.171875 C 1.453125 -1.390625 1.28125 -1.515625 1.078125 -1.515625 C 0.8125 -1.515625 0.515625 -1.3125 0.515625 -0.859375 C 0.515625 -0.296875 1.09375 0.109375 1.9375 0.109375 C 3.5625 0.109375 3.953125 -1.09375 3.953125 -1.546875 C 3.953125 -1.90625 3.765625 -2.15625 3.640625 -2.265625 C 3.375 -2.546875 3.078125 -2.609375 2.640625 -2.6875 C 2.28125 -2.765625 1.890625 -2.84375 1.890625 -3.296875 C 1.890625 -3.578125 2.125 -4.1875 3 -4.1875 C 3.25 -4.1875 3.75 -4.109375 3.890625 -3.734375 Z M 3.890625 -3.734375 "/>
</symbol>
<symbol overflow="visible" id="glyph1-0">
<path style="stroke:none;" d=""/>
</symbol>
<symbol overflow="visible" id="glyph1-1">
<path style="stroke:none;" d="M 1.640625 -1.40625 C 1.640625 -1.453125 1.8125 -2.078125 1.8125 -2.109375 C 1.828125 -2.171875 2.03125 -2.515625 2.265625 -2.6875 C 2.328125 -2.734375 2.515625 -2.875 2.828125 -2.875 C 2.890625 -2.875 3.0625 -2.875 3.203125 -2.78125 C 2.984375 -2.71875 2.90625 -2.515625 2.90625 -2.390625 C 2.90625 -2.25 3.015625 -2.140625 3.171875 -2.140625 C 3.34375 -2.140625 3.5625 -2.265625 3.5625 -2.5625 C 3.5625 -2.921875 3.1875 -3.078125 2.828125 -3.078125 C 2.46875 -3.078125 2.15625 -2.921875 1.84375 -2.578125 C 1.71875 -3 1.296875 -3.078125 1.125 -3.078125 C 0.875 -3.078125 0.703125 -2.90625 0.578125 -2.71875 C 0.421875 -2.453125 0.328125 -2.046875 0.328125 -2 C 0.328125 -1.921875 0.421875 -1.921875 0.453125 -1.921875 C 0.546875 -1.921875 0.546875 -1.9375 0.59375 -2.125 C 0.703125 -2.546875 0.84375 -2.875 1.109375 -2.875 C 1.296875 -2.875 1.34375 -2.71875 1.34375 -2.53125 C 1.34375 -2.40625 1.28125 -2.140625 1.21875 -1.953125 C 1.171875 -1.765625 1.109375 -1.484375 1.078125 -1.328125 L 0.84375 -0.4375 C 0.828125 -0.34375 0.78125 -0.171875 0.78125 -0.15625 C 0.78125 0 0.90625 0.0625 1.015625 0.0625 C 1.125 0.0625 1.265625 0 1.3125 -0.125 C 1.328125 -0.171875 1.40625 -0.484375 1.453125 -0.65625 Z M 1.640625 -1.40625 "/>
</symbol>
<symbol overflow="visible" id="glyph1-2">
<path style="stroke:none;" d="M 3.703125 -2.578125 C 3.734375 -2.671875 3.734375 -2.703125 3.734375 -2.71875 C 3.734375 -2.875 3.609375 -2.9375 3.5 -2.9375 C 3.34375 -2.9375 3.203125 -2.8125 3.171875 -2.671875 C 3.0625 -2.859375 2.828125 -3.078125 2.453125 -3.078125 C 1.59375 -3.078125 0.671875 -2.140625 0.671875 -1.140625 C 0.671875 -0.421875 1.15625 0 1.734375 0 C 2.0625 0 2.359375 -0.15625 2.609375 -0.375 L 2.453125 0.25 C 2.375 0.546875 2.328125 0.734375 2.0625 0.96875 C 1.75 1.21875 1.453125 1.21875 1.28125 1.21875 C 0.96875 1.21875 0.875 1.203125 0.75 1.171875 C 0.921875 1.09375 0.96875 0.921875 0.96875 0.828125 C 0.96875 0.65625 0.84375 0.578125 0.703125 0.578125 C 0.5 0.578125 0.296875 0.734375 0.296875 1 C 0.296875 1.421875 0.90625 1.421875 1.296875 1.421875 C 2.390625 1.421875 2.84375 0.859375 2.953125 0.46875 Z M 2.75 -0.921875 C 2.71875 -0.828125 2.71875 -0.8125 2.59375 -0.671875 C 2.359375 -0.375 2.015625 -0.1875 1.75 -0.1875 C 1.40625 -0.1875 1.234375 -0.5 1.234375 -0.859375 C 1.234375 -1.15625 1.421875 -1.9375 1.609375 -2.25 C 1.890625 -2.734375 2.21875 -2.875 2.453125 -2.875 C 2.953125 -2.875 3.078125 -2.359375 3.078125 -2.28125 C 3.078125 -2.265625 3.078125 -2.265625 3.0625 -2.1875 Z M 2.75 -0.921875 "/>
</symbol>
<symbol overflow="visible" id="glyph1-3">
<path style="stroke:none;" d="M 1.84375 -4.625 C 1.84375 -4.640625 1.875 -4.734375 1.875 -4.734375 C 1.875 -4.78125 1.84375 -4.84375 1.75 -4.84375 C 1.609375 -4.84375 1.03125 -4.78125 0.859375 -4.765625 C 0.8125 -4.765625 0.703125 -4.75 0.703125 -4.609375 C 0.703125 -4.515625 0.8125 -4.515625 0.890625 -4.515625 C 1.21875 -4.515625 1.21875 -4.453125 1.21875 -4.40625 C 1.21875 -4.359375 1.15625 -4.078125 1.109375 -3.921875 L 0.953125 -3.28125 C 0.890625 -3.03125 0.515625 -1.515625 0.5 -1.421875 C 0.453125 -1.25 0.453125 -1.15625 0.453125 -1.078125 C 0.453125 -0.375 0.90625 0.0625 1.484375 0.0625 C 2.359375 0.0625 3.28125 -0.875 3.28125 -1.90625 C 3.28125 -2.71875 2.71875 -3.078125 2.234375 -3.078125 C 1.875 -3.078125 1.5625 -2.875 1.359375 -2.6875 Z M 1.484375 -0.125 C 1.15625 -0.125 0.953125 -0.421875 0.953125 -0.84375 C 0.953125 -1.09375 1.015625 -1.328125 1.21875 -2.125 C 1.25 -2.25 1.25 -2.265625 1.390625 -2.421875 C 1.65625 -2.71875 1.96875 -2.875 2.21875 -2.875 C 2.484375 -2.875 2.71875 -2.671875 2.71875 -2.203125 C 2.71875 -1.921875 2.578125 -1.203125 2.359375 -0.796875 C 2.1875 -0.453125 1.84375 -0.125 1.484375 -0.125 Z M 1.484375 -0.125 "/>
</symbol>
<symbol overflow="visible" id="glyph2-0">
<path style="stroke:none;" d=""/>
</symbol>
<symbol overflow="visible" id="glyph2-1">
<path style="stroke:none;" d="M 2.046875 -3.984375 L 2.984375 -3.984375 C 3.1875 -3.984375 3.296875 -3.984375 3.296875 -4.1875 C 3.296875 -4.296875 3.1875 -4.296875 3.015625 -4.296875 L 2.140625 -4.296875 C 2.5 -5.71875 2.546875 -5.90625 2.546875 -5.96875 C 2.546875 -6.140625 2.421875 -6.234375 2.25 -6.234375 C 2.21875 -6.234375 1.9375 -6.234375 1.859375 -5.875 L 1.46875 -4.296875 L 0.53125 -4.296875 C 0.328125 -4.296875 0.234375 -4.296875 0.234375 -4.109375 C 0.234375 -3.984375 0.3125 -3.984375 0.515625 -3.984375 L 1.390625 -3.984375 C 0.671875 -1.15625 0.625 -0.984375 0.625 -0.8125 C 0.625 -0.265625 1 0.109375 1.546875 0.109375 C 2.5625 0.109375 3.125 -1.34375 3.125 -1.421875 C 3.125 -1.53125 3.046875 -1.53125 3.015625 -1.53125 C 2.921875 -1.53125 2.90625 -1.5 2.859375 -1.390625 C 2.4375 -0.34375 1.90625 -0.109375 1.5625 -0.109375 C 1.359375 -0.109375 1.25 -0.234375 1.25 -0.5625 C 1.25 -0.8125 1.28125 -0.875 1.3125 -1.046875 Z M 2.046875 -3.984375 "/>
</symbol>
<symbol overflow="visible" id="glyph3-0">
<path style="stroke:none;" d=""/>
</symbol>
<symbol overflow="visible" id="glyph3-1">
<path style="stroke:none;" d="M 1.640625 -1.40625 C 1.640625 -1.453125 1.8125 -2.078125 1.8125 -2.109375 C 1.828125 -2.171875 2.03125 -2.515625 2.265625 -2.6875 C 2.328125 -2.734375 2.515625 -2.875 2.828125 -2.875 C 2.890625 -2.875 3.0625 -2.875 3.203125 -2.78125 C 2.984375 -2.71875 2.90625 -2.515625 2.90625 -2.390625 C 2.90625 -2.25 3.015625 -2.140625 3.171875 -2.140625 C 3.34375 -2.140625 3.5625 -2.265625 3.5625 -2.5625 C 3.5625 -2.921875 3.1875 -3.078125 2.828125 -3.078125 C 2.46875 -3.078125 2.15625 -2.921875 1.84375 -2.578125 C 1.71875 -3 1.296875 -3.078125 1.125 -3.078125 C 0.875 -3.078125 0.703125 -2.90625 0.578125 -2.71875 C 0.421875 -2.453125 0.328125 -2.046875 0.328125 -2 C 0.328125 -1.921875 0.421875 -1.921875 0.453125 -1.921875 C 0.546875 -1.921875 0.546875 -1.9375 0.59375 -2.125 C 0.703125 -2.546875 0.84375 -2.875 1.109375 -2.875 C 1.296875 -2.875 1.34375 -2.71875 1.34375 -2.53125 C 1.34375 -2.40625 1.28125 -2.140625 1.21875 -1.953125 C 1.171875 -1.765625 1.109375 -1.484375 1.078125 -1.328125 L 0.84375 -0.4375 C 0.828125 -0.34375 0.78125 -0.171875 0.78125 -0.15625 C 0.78125 0 0.90625 0.0625 1.015625 0.0625 C 1.125 0.0625 1.265625 0 1.3125 -0.125 C 1.328125 -0.171875 1.40625 -0.484375 1.453125 -0.65625 Z M 1.640625 -1.40625 "/>
</symbol>
<symbol overflow="visible" id="glyph3-2">
<path style="stroke:none;" d="M 1.84375 -4.625 C 1.84375 -4.640625 1.875 -4.734375 1.875 -4.734375 C 1.875 -4.78125 1.84375 -4.84375 1.75 -4.84375 C 1.609375 -4.84375 1.03125 -4.78125 0.859375 -4.765625 C 0.8125 -4.765625 0.703125 -4.75 0.703125 -4.609375 C 0.703125 -4.515625 0.8125 -4.515625 0.890625 -4.515625 C 1.21875 -4.515625 1.21875 -4.453125 1.21875 -4.40625 C 1.21875 -4.359375 1.15625 -4.078125 1.109375 -3.921875 L 0.953125 -3.28125 C 0.890625 -3.03125 0.515625 -1.515625 0.5 -1.421875 C 0.453125 -1.25 0.453125 -1.15625 0.453125 -1.078125 C 0.453125 -0.375 0.90625 0.0625 1.484375 0.0625 C 2.359375 0.0625 3.28125 -0.875 3.28125 -1.90625 C 3.28125 -2.71875 2.71875 -3.078125 2.234375 -3.078125 C 1.875 -3.078125 1.5625 -2.875 1.359375 -2.6875 Z M 1.484375 -0.125 C 1.15625 -0.125 0.953125 -0.421875 0.953125 -0.84375 C 0.953125 -1.09375 1.015625 -1.328125 1.21875 -2.125 C 1.25 -2.25 1.25 -2.265625 1.390625 -2.421875 C 1.65625 -2.71875 1.96875 -2.875 2.21875 -2.875 C 2.484375 -2.875 2.71875 -2.671875 2.71875 -2.203125 C 2.71875 -1.921875 2.578125 -1.203125 2.359375 -0.796875 C 2.1875 -0.453125 1.84375 -0.125 1.484375 -0.125 Z M 1.484375 -0.125 "/>
</symbol>
<symbol overflow="visible" id="glyph3-3">
<path style="stroke:none;" d="M 3.703125 -2.578125 C 3.734375 -2.671875 3.734375 -2.703125 3.734375 -2.71875 C 3.734375 -2.875 3.609375 -2.9375 3.5 -2.9375 C 3.34375 -2.9375 3.203125 -2.8125 3.171875 -2.671875 C 3.0625 -2.859375 2.828125 -3.078125 2.453125 -3.078125 C 1.59375 -3.078125 0.671875 -2.140625 0.671875 -1.140625 C 0.671875 -0.421875 1.15625 0 1.734375 0 C 2.0625 0 2.359375 -0.15625 2.609375 -0.375 L 2.453125 0.25 C 2.375 0.546875 2.328125 0.734375 2.0625 0.96875 C 1.75 1.21875 1.453125 1.21875 1.28125 1.21875 C 0.96875 1.21875 0.875 1.203125 0.75 1.171875 C 0.921875 1.09375 0.96875 0.921875 0.96875 0.828125 C 0.96875 0.65625 0.84375 0.578125 0.703125 0.578125 C 0.5 0.578125 0.296875 0.734375 0.296875 1 C 0.296875 1.421875 0.90625 1.421875 1.296875 1.421875 C 2.390625 1.421875 2.84375 0.859375 2.953125 0.46875 Z M 2.75 -0.921875 C 2.71875 -0.828125 2.71875 -0.8125 2.59375 -0.671875 C 2.359375 -0.375 2.015625 -0.1875 1.75 -0.1875 C 1.40625 -0.1875 1.234375 -0.5 1.234375 -0.859375 C 1.234375 -1.15625 1.421875 -1.9375 1.609375 -2.25 C 1.890625 -2.734375 2.21875 -2.875 2.453125 -2.875 C 2.953125 -2.875 3.078125 -2.359375 3.078125 -2.28125 C 3.078125 -2.265625 3.078125 -2.265625 3.0625 -2.1875 Z M 2.75 -0.921875 "/>
</symbol>
</g>
</defs>
<g id="surface400">
<path style="fill:none;stroke-width:1.4;stroke-linecap:butt;stroke-linejoin:round;stroke:rgb(0%,0%,0%);stroke-opacity:1;stroke-miterlimit:10;" d="M 150.390625 770.359375 L 168.332031 752.535156 " transform="matrix(1,0,0,-1,-3,831)"/>
<path style="fill:none;stroke-width:1.4;stroke-linecap:butt;stroke-linejoin:round;stroke:rgb(0%,0%,0%);stroke-opacity:1;stroke-miterlimit:10;" d="M 150.390625 770.367188 L 132.449219 752.539063 " transform="matrix(1,0,0,-1,-3,831)"/>
<path style="fill:none;stroke-width:1.4;stroke-linecap:butt;stroke-linejoin:round;stroke:rgb(0%,0%,0%);stroke-opacity:1;stroke-miterlimit:10;" d="M 150.390625 770.359375 L 132.449219 770.363281 " transform="matrix(1,0,0,-1,-3,831)"/>
<path style="fill:none;stroke-width:1.4;stroke-linecap:butt;stroke-linejoin:round;stroke:rgb(0%,0%,0%);stroke-opacity:1;stroke-miterlimit:10;" d="M 150.390625 806.007813 L 132.449219 788.179688 " transform="matrix(1,0,0,-1,-3,831)"/>
<path style="fill:none;stroke-width:1.4;stroke-linecap:butt;stroke-linejoin:round;stroke:rgb(0%,0%,0%);stroke-opacity:1;stroke-miterlimit:10;" d="M 150.390625 770.363281 L 168.332031 770.363281 " transform="matrix(1,0,0,-1,-3,831)"/>
<path style="fill:none;stroke-width:1.4;stroke-linecap:butt;stroke-linejoin:round;stroke:rgb(0%,0%,0%);stroke-opacity:1;stroke-miterlimit:10;" d="M 168.332031 770.363281 L 186.269531 770.367188 " transform="matrix(1,0,0,-1,-3,831)"/>
<path style="fill:none;stroke-width:1.4;stroke-linecap:butt;stroke-linejoin:round;stroke:rgb(0%,0%,0%);stroke-opacity:1;stroke-miterlimit:10;" d="M 168.332031 806.007813 L 186.269531 806.007813 Z M 168.332031 806.007813 " transform="matrix(1,0,0,-1,-3,831)"/>
<path style="fill:none;stroke-width:1.4;stroke-linecap:butt;stroke-linejoin:round;stroke:rgb(0%,0%,0%);stroke-opacity:1;stroke-miterlimit:10;" d="M 168.332031 806.011719 L 168.332031 823.828125 " transform="matrix(1,0,0,-1,-3,831)"/>
<path style="fill:none;stroke-width:1.4;stroke-linecap:butt;stroke-linejoin:round;stroke:rgb(0%,0%,0%);stroke-opacity:1;stroke-miterlimit:10;" d="M 132.453125 806.011719 L 150.390625 806.007813 " transform="matrix(1,0,0,-1,-3,831)"/>
<path style="fill:none;stroke-width:1.4;stroke-linecap:butt;stroke-linejoin:round;stroke:rgb(0%,0%,0%);stroke-opacity:1;stroke-miterlimit:10;" d="M 222.152344 770.363281 L 222.152344 752.542969 Z M 222.152344 770.363281 " transform="matrix(1,0,0,-1,-3,831)"/>
<path style="fill:none;stroke-width:1.4;stroke-linecap:butt;stroke-linejoin:round;stroke:rgb(0%,0%,0%);stroke-opacity:1;stroke-miterlimit:10;" d="M 150.390625 770.363281 L 150.390625 752.539063 Z M 150.390625 770.363281 " transform="matrix(1,0,0,-1,-3,831)"/>
<path style="fill:none;stroke-width:1.4;stroke-linecap:butt;stroke-linejoin:round;stroke:rgb(0%,0%,0%);stroke-opacity:1;stroke-miterlimit:10;" d="M 222.152344 770.363281 L 222.152344 788.1875 Z M 222.152344 770.363281 " transform="matrix(1,0,0,-1,-3,831)"/>
<path style="fill:none;stroke-width:1.4;stroke-linecap:butt;stroke-linejoin:round;stroke:rgb(0%,0%,0%);stroke-opacity:1;stroke-miterlimit:10;" d="M 204.210938 770.363281 L 204.210938 770.367188 L 222.152344 770.367188 L 222.152344 770.363281 Z M 204.210938 770.363281 " transform="matrix(1,0,0,-1,-3,831)"/>
<path style="fill:none;stroke-width:1.4;stroke-linecap:butt;stroke-linejoin:round;stroke:rgb(0%,0%,0%);stroke-opacity:1;stroke-miterlimit:10;" d="M 204.210938 770.363281 L 204.210938 788.183594 Z M 204.210938 770.363281 " transform="matrix(1,0,0,-1,-3,831)"/>
<path style="fill:none;stroke-width:1.4;stroke-linecap:butt;stroke-linejoin:round;stroke:rgb(0%,0%,0%);stroke-opacity:1;stroke-miterlimit:10;" d="M 186.269531 770.363281 L 186.269531 770.367188 L 204.210938 770.367188 L 204.210938 770.363281 Z M 186.269531 770.363281 " transform="matrix(1,0,0,-1,-3,831)"/>
<path style="fill:none;stroke-width:1.4;stroke-linecap:butt;stroke-linejoin:round;stroke:rgb(0%,0%,0%);stroke-opacity:1;stroke-miterlimit:10;" d="M 186.269531 770.363281 L 186.269531 788.1875 Z M 186.269531 770.363281 " transform="matrix(1,0,0,-1,-3,831)"/>
<path style="fill:none;stroke-width:1.4;stroke-linecap:butt;stroke-linejoin:round;stroke:rgb(0%,0%,0%);stroke-opacity:1;stroke-miterlimit:10;" d="M 150.390625 806.007813 L 150.390625 770.363281 " transform="matrix(1,0,0,-1,-3,831)"/>
<path style="fill:none;stroke-width:1.4;stroke-linecap:butt;stroke-linejoin:round;stroke:rgb(0%,0%,0%);stroke-opacity:1;stroke-miterlimit:10;" d="M 150.390625 806.007813 L 168.332031 806.007813 " transform="matrix(1,0,0,-1,-3,831)"/>
<path style="fill:none;stroke-width:1.4;stroke-linecap:butt;stroke-linejoin:round;stroke:rgb(0%,0%,0%);stroke-opacity:1;stroke-miterlimit:10;" d="M 150.390625 823.832031 L 150.390625 806.011719 " transform="matrix(1,0,0,-1,-3,831)"/>
<path style="fill:none;stroke-width:1.4;stroke-linecap:butt;stroke-linejoin:round;stroke:rgb(0%,0%,0%);stroke-opacity:1;stroke-miterlimit:10;" d="M 81.617188 826.054688 L 93.640625 826.054688 " transform="matrix(1,0,0,-1,-3,831)"/>
<path style="fill:none;stroke-width:1.4;stroke-linecap:butt;stroke-linejoin:round;stroke:rgb(0%,0%,0%);stroke-opacity:1;stroke-miterlimit:10;" d="M 69.59375 826.054688 L 81.617188 826.054688 " transform="matrix(1,0,0,-1,-3,831)"/>
<path style="fill:none;stroke-width:1.4;stroke-linecap:butt;stroke-linejoin:round;stroke:rgb(0%,0%,0%);stroke-opacity:1;stroke-miterlimit:10;" d="M 57.574219 826.054688 L 69.59375 826.054688 " transform="matrix(1,0,0,-1,-3,831)"/>
<path style="fill:none;stroke-width:1.4;stroke-linecap:butt;stroke-linejoin:round;stroke:rgb(0%,0%,0%);stroke-opacity:1;stroke-miterlimit:10;" d="M 45.550781 826.054688 L 57.574219 826.054688 " transform="matrix(1,0,0,-1,-3,831)"/>
<path style=" stroke:none;fill-rule:evenodd;fill:rgb(100%,100%,100%);fill-opacity:1;" d="M 70.09375 4.945313 C 70.09375 0.277344 63.09375 0.277344 63.09375 4.945313 C 63.09375 9.613281 70.09375 9.613281 70.09375 4.945313 Z M 70.09375 4.945313 "/>
<path style=" stroke:none;fill-rule:evenodd;fill:rgb(0%,0%,0%);fill-opacity:1;" d="M 70.792969 4.945313 C 70.792969 -0.652344 62.394531 -0.652344 62.394531 4.945313 C 62.394531 10.546875 70.792969 10.546875 70.792969 4.945313 Z M 69.394531 4.945313 C 69.394531 1.210938 63.792969 1.210938 63.792969 4.945313 C 63.792969 8.679688 69.394531 8.679688 69.394531 4.945313 Z M 69.394531 4.945313 "/>
<path style=" stroke:none;fill-rule:evenodd;fill:rgb(100%,100%,100%);fill-opacity:1;" d="M 58.074219 4.945313 C 58.074219 0.277344 51.074219 0.277344 51.074219 4.945313 C 51.074219 9.613281 58.074219 9.613281 58.074219 4.945313 Z M 58.074219 4.945313 "/>
<path style=" stroke:none;fill-rule:evenodd;fill:rgb(0%,0%,0%);fill-opacity:1;" d="M 58.773438 4.945313 C 58.773438 -0.652344 50.375 -0.652344 50.375 4.945313 C 50.375 10.546875 58.773438 10.546875 58.773438 4.945313 Z M 57.375 4.945313 C 57.375 1.210938 51.773438 1.210938 51.773438 4.945313 C 51.773438 8.679688 57.375 8.679688 57.375 4.945313 Z M 57.375 4.945313 "/>
<path style=" stroke:none;fill-rule:evenodd;fill:rgb(100%,100%,100%);fill-opacity:1;" d="M 82.117188 4.945313 C 82.117188 0.277344 75.117188 0.277344 75.117188 4.945313 C 75.117188 9.613281 82.117188 9.613281 82.117188 4.945313 Z M 82.117188 4.945313 "/>
<path style=" stroke:none;fill-rule:evenodd;fill:rgb(0%,0%,0%);fill-opacity:1;" d="M 82.816406 4.945313 C 82.816406 -0.652344 74.417969 -0.652344 74.417969 4.945313 C 74.417969 10.546875 82.816406 10.546875 82.816406 4.945313 Z M 81.417969 4.945313 C 81.417969 1.210938 75.816406 1.210938 75.816406 4.945313 C 75.816406 8.679688 81.417969 8.679688 81.417969 4.945313 Z M 81.417969 4.945313 "/>
<path style="fill:none;stroke-width:1.4;stroke-linecap:butt;stroke-linejoin:round;stroke:rgb(0%,0%,0%);stroke-opacity:1;stroke-miterlimit:10;" d="M 65.914063 769.578125 L 52.207031 769.445313 " transform="matrix(1,0,0,-1,-3,831)"/>
<path style="fill:none;stroke-width:1.4;stroke-linecap:butt;stroke-linejoin:round;stroke:rgb(0%,0%,0%);stroke-opacity:1;stroke-miterlimit:10;" d="M 65.976563 758.054688 L 65.976563 769.628906 " transform="matrix(1,0,0,-1,-3,831)"/>
<path style="fill:none;stroke-width:1.4;stroke-linecap:butt;stroke-linejoin:round;stroke:rgb(0%,0%,0%);stroke-opacity:1;stroke-miterlimit:10;" d="M 52.597656 758.054688 L 65.976563 758.054688 " transform="matrix(1,0,0,-1,-3,831)"/>
<path style="fill:none;stroke-width:1.4;stroke-linecap:butt;stroke-linejoin:round;stroke:rgb(0%,0%,0%);stroke-opacity:1;stroke-miterlimit:10;" d="M 39.222656 758.054688 L 52.597656 758.054688 " transform="matrix(1,0,0,-1,-3,831)"/>
<path style="fill:none;stroke-width:1.4;stroke-linecap:butt;stroke-linejoin:round;stroke:rgb(0%,0%,0%);stroke-opacity:1;stroke-miterlimit:10;" d="M 39.222656 746.484375 L 39.222656 758.054688 " transform="matrix(1,0,0,-1,-3,831)"/>
<path style="fill:none;stroke-width:1.4;stroke-linecap:butt;stroke-linejoin:round;stroke:rgb(0%,0%,0%);stroke-opacity:1;stroke-miterlimit:10;" d="M 52.597656 746.484375 L 39.222656 746.484375 " transform="matrix(1,0,0,-1,-3,831)"/>
<path style="fill:none;stroke-width:1.4;stroke-linecap:butt;stroke-linejoin:round;stroke:rgb(0%,0%,0%);stroke-opacity:1;stroke-miterlimit:10;" d="M 65.976563 746.484375 L 52.597656 746.484375 " transform="matrix(1,0,0,-1,-3,831)"/>
<path style="fill:none;stroke-width:1.4;stroke-linecap:butt;stroke-linejoin:round;stroke:rgb(0%,0%,0%);stroke-opacity:1;stroke-miterlimit:10;" d="M 79.351563 746.484375 L 65.976563 746.484375 " transform="matrix(1,0,0,-1,-3,831)"/>
<path style="fill:none;stroke-width:1.4;stroke-linecap:butt;stroke-linejoin:round;stroke:rgb(0%,0%,0%);stroke-opacity:1;stroke-miterlimit:10;" d="M 92.726563 746.484375 L 79.351563 746.484375 " transform="matrix(1,0,0,-1,-3,831)"/>
<path style="fill:none;stroke-width:1.4;stroke-linecap:butt;stroke-linejoin:round;stroke:rgb(0%,0%,0%);stroke-opacity:1;stroke-miterlimit:10;" d="M 93.84375 767.519531 L 92.726563 746.476563 " transform="matrix(1,0,0,-1,-3,831)"/>
<path style="fill:none;stroke-width:1.4;stroke-linecap:butt;stroke-linejoin:round;stroke:rgb(0%,0%,0%);stroke-opacity:1;stroke-miterlimit:10;" d="M 108.800781 767.433594 L 93.84375 767.519531 " transform="matrix(1,0,0,-1,-3,831)"/>
<path style="fill:none;stroke-width:1.4;stroke-linecap:butt;stroke-linejoin:round;stroke:rgb(0%,0%,0%);stroke-opacity:1;stroke-miterlimit:10;" d="M 108.726563 753.394531 L 108.804688 767.433594 " transform="matrix(1,0,0,-1,-3,831)"/>
<path style="fill:none;stroke-width:1.4;stroke-linecap:butt;stroke-linejoin:round;stroke:rgb(0%,0%,0%);stroke-opacity:1;stroke-miterlimit:10;" d="M 93.828125 810.976563 L 93.980469 825.707031 " transform="matrix(1,0,0,-1,-3,831)"/>
<path style="fill:none;stroke-width:1.4;stroke-linecap:butt;stroke-linejoin:round;stroke:rgb(0%,0%,0%);stroke-opacity:1;stroke-miterlimit:10;" d="M 93.910156 792.039063 L 93.828125 810.976563 " transform="matrix(1,0,0,-1,-3,831)"/>
<path style="fill:none;stroke-width:1.4;stroke-linecap:butt;stroke-linejoin:round;stroke:rgb(0%,0%,0%);stroke-opacity:1;stroke-miterlimit:10;" d="M 80.878906 776.101563 L 93.84375 767.519531 " transform="matrix(1,0,0,-1,-3,831)"/>
<path style="fill:none;stroke-width:1.4;stroke-linecap:butt;stroke-linejoin:round;stroke:rgb(0%,0%,0%);stroke-opacity:1;stroke-miterlimit:10;" d="M 93.910156 792.039063 L 93.84375 767.519531 " transform="matrix(1,0,0,-1,-3,831)"/>
<path style="fill:none;stroke-width:1.4;stroke-linecap:butt;stroke-linejoin:round;stroke:rgb(0%,0%,0%);stroke-opacity:1;stroke-miterlimit:10;" d="M 81.070313 791.84375 L 95.683594 791.84375 " transform="matrix(1,0,0,-1,-3,831)"/>
<path style="fill:none;stroke-width:1.4;stroke-linecap:butt;stroke-linejoin:round;stroke:rgb(0%,0%,0%);stroke-opacity:1;stroke-miterlimit:10;" d="M 66.453125 791.84375 L 81.070313 791.84375 " transform="matrix(1,0,0,-1,-3,831)"/>
<path style="fill:none;stroke-width:1.4;stroke-linecap:butt;stroke-linejoin:round;stroke:rgb(0%,0%,0%);stroke-opacity:1;stroke-miterlimit:10;" d="M 51.839844 791.84375 L 66.453125 791.84375 " transform="matrix(1,0,0,-1,-3,831)"/>
<path style="fill:none;stroke-width:1.4;stroke-linecap:butt;stroke-linejoin:round;stroke:rgb(0%,0%,0%);stroke-opacity:1;stroke-miterlimit:10;" d="M 37.226563 791.84375 L 51.839844 791.84375 " transform="matrix(1,0,0,-1,-3,831)"/>
<path style="fill:none;stroke-width:1.4;stroke-linecap:butt;stroke-linejoin:round;stroke:rgb(0%,0%,0%);stroke-opacity:1;stroke-miterlimit:10;" d="M 37.226563 791.84375 L 22.613281 774.90625 " transform="matrix(1,0,0,-1,-3,831)"/>
<path style="fill:none;stroke-width:1.4;stroke-linecap:butt;stroke-linejoin:round;stroke:rgb(0%,0%,0%);stroke-opacity:1;stroke-miterlimit:10;" d="M 22.613281 808.78125 L 37.226563 791.84375 " transform="matrix(1,0,0,-1,-3,831)"/>
<path style="fill:none;stroke-width:1.4;stroke-linecap:butt;stroke-linejoin:round;stroke:rgb(0%,0%,0%);stroke-opacity:1;stroke-miterlimit:10;" d="M 8 808.78125 L 22.613281 808.78125 " transform="matrix(1,0,0,-1,-3,831)"/>
<path style="fill:none;stroke-width:1.4;stroke-linecap:butt;stroke-linejoin:round;stroke:rgb(0%,0%,0%);stroke-opacity:1;stroke-miterlimit:10;" d="M 22.613281 825.71875 L 22.613281 808.78125 " transform="matrix(1,0,0,-1,-3,831)"/>
<path style=" stroke:none;fill-rule:evenodd;fill:rgb(18%,54.5%,34.1%);fill-opacity:1;" d="M 16.113281 25.710938 L 23.113281 25.710938 L 23.113281 18.710938 L 16.113281 18.710938 Z M 16.113281 25.710938 "/>
<path style=" stroke:none;fill-rule:evenodd;fill:rgb(18%,54.5%,34.1%);fill-opacity:1;" d="M 15.414063 26.414063 L 23.8125 26.414063 L 23.8125 18.011719 L 15.414063 18.011719 Z M 16.8125 25.011719 L 22.414063 25.011719 L 22.414063 19.414063 L 16.8125 19.414063 Z M 16.8125 25.011719 "/>
<path style=" stroke:none;fill-rule:evenodd;fill:rgb(100%,0%,0%);fill-opacity:1;" d="M 23.113281 5.277344 C 23.113281 0.609375 16.113281 0.609375 16.113281 5.277344 C 16.113281 9.945313 23.113281 9.945313 23.113281 5.277344 Z M 23.113281 5.277344 "/>
<path style=" stroke:none;fill-rule:evenodd;fill:rgb(100%,0%,0%);fill-opacity:1;" d="M 23.8125 5.277344 C 23.8125 -0.324219 15.414063 -0.324219 15.414063 5.277344 C 15.414063 10.875 23.8125 10.875 23.8125 5.277344 Z M 22.414063 5.277344 C 22.414063 1.542969 16.8125 1.542969 16.8125 5.277344 C 16.8125 9.011719 22.414063 9.011719 22.414063 5.277344 Z M 22.414063 5.277344 "/>
<path style=" stroke:none;fill-rule:evenodd;fill:rgb(100%,100%,100%);fill-opacity:1;" d="M 8.5 22.21875 C 8.5 17.550781 1.5 17.550781 1.5 22.21875 C 1.5 26.882813 8.5 26.882813 8.5 22.21875 Z M 8.5 22.21875 "/>
<path style=" stroke:none;fill-rule:evenodd;fill:rgb(0%,0%,0%);fill-opacity:1;" d="M 9.199219 22.21875 C 9.199219 16.617188 0.800781 16.617188 0.800781 22.21875 C 0.800781 27.816406 9.199219 27.816406 9.199219 22.21875 Z M 7.800781 22.21875 C 7.800781 18.484375 2.199219 18.484375 2.199219 22.21875 C 2.199219 25.953125 7.800781 25.953125 7.800781 22.21875 Z M 7.800781 22.21875 "/>
<path style=" stroke:none;fill-rule:evenodd;fill:rgb(100%,100%,100%);fill-opacity:1;" d="M 37.726563 39.15625 C 37.726563 34.488281 30.726563 34.488281 30.726563 39.15625 C 30.726563 43.820313 37.726563 43.820313 37.726563 39.15625 Z M 37.726563 39.15625 "/>
<path style=" stroke:none;fill-rule:evenodd;fill:rgb(0%,0%,0%);fill-opacity:1;" d="M 38.425781 39.15625 C 38.425781 33.554688 30.027344 33.554688 30.027344 39.15625 C 30.027344 44.753906 38.425781 44.753906 38.425781 39.15625 Z M 37.027344 39.15625 C 37.027344 35.421875 31.425781 35.421875 31.425781 39.15625 C 31.425781 42.886719 37.027344 42.886719 37.027344 39.15625 Z M 37.027344 39.15625 "/>
<path style=" stroke:none;fill-rule:evenodd;fill:rgb(100%,100%,100%);fill-opacity:1;" d="M 23.113281 56.09375 C 23.113281 51.425781 16.113281 51.425781 16.113281 56.09375 C 16.113281 60.757813 23.113281 60.757813 23.113281 56.09375 Z M 23.113281 56.09375 "/>
<path style=" stroke:none;fill-rule:evenodd;fill:rgb(0%,0%,0%);fill-opacity:1;" d="M 23.8125 56.09375 C 23.8125 50.492188 15.414063 50.492188 15.414063 56.09375 C 15.414063 61.691406 23.8125 61.691406 23.8125 56.09375 Z M 22.414063 56.09375 C 22.414063 52.359375 16.8125 52.359375 16.8125 56.09375 C 16.8125 59.824219 22.414063 59.824219 22.414063 56.09375 Z M 22.414063 56.09375 "/>
<path style=" stroke:none;fill-rule:evenodd;fill:rgb(100%,100%,100%);fill-opacity:1;" d="M 52.339844 39.15625 C 52.339844 34.488281 45.339844 34.488281 45.339844 39.15625 C 45.339844 43.820313 52.339844 43.820313 52.339844 39.15625 Z M 52.339844 39.15625 "/>
<path style=" stroke:none;fill-rule:evenodd;fill:rgb(0%,0%,0%);fill-opacity:1;" d="M 53.042969 39.15625 C 53.042969 33.554688 44.640625 33.554688 44.640625 39.15625 C 44.640625 44.753906 53.042969 44.753906 53.042969 39.15625 Z M 51.640625 39.15625 C 51.640625 35.421875 46.042969 35.421875 46.042969 39.15625 C 46.042969 42.886719 51.640625 42.886719 51.640625 39.15625 Z M 51.640625 39.15625 "/>
<path style=" stroke:none;fill-rule:evenodd;fill:rgb(100%,100%,100%);fill-opacity:1;" d="M 66.953125 39.15625 C 66.953125 34.488281 59.953125 34.488281 59.953125 39.15625 C 59.953125 43.820313 66.953125 43.820313 66.953125 39.15625 Z M 66.953125 39.15625 "/>
<path style=" stroke:none;fill-rule:evenodd;fill:rgb(0%,0%,0%);fill-opacity:1;" d="M 67.65625 39.15625 C 67.65625 33.554688 59.253906 33.554688 59.253906 39.15625 C 59.253906 44.753906 67.65625 44.753906 67.65625 39.15625 Z M 66.253906 39.15625 C 66.253906 35.421875 60.65625 35.421875 60.65625 39.15625 C 60.65625 42.886719 66.253906 42.886719 66.253906 39.15625 Z M 66.253906 39.15625 "/>
<path style=" stroke:none;fill-rule:evenodd;fill:rgb(100%,100%,100%);fill-opacity:1;" d="M 81.570313 39.15625 C 81.570313 34.488281 74.570313 34.488281 74.570313 39.15625 C 74.570313 43.820313 81.570313 43.820313 81.570313 39.15625 Z M 81.570313 39.15625 "/>
<path style=" stroke:none;fill-rule:evenodd;fill:rgb(0%,0%,0%);fill-opacity:1;" d="M 82.269531 39.15625 C 82.269531 33.554688 73.867188 33.554688 73.867188 39.15625 C 73.867188 44.753906 82.269531 44.753906 82.269531 39.15625 Z M 80.867188 39.15625 C 80.867188 35.421875 75.269531 35.421875 75.269531 39.15625 C 75.269531 42.886719 80.867188 42.886719 80.867188 39.15625 Z M 80.867188 39.15625 "/>
<path style=" stroke:none;fill-rule:evenodd;fill:rgb(100%,100%,100%);fill-opacity:1;" d="M 94.40625 38.871094 C 94.40625 34.203125 87.40625 34.203125 87.40625 38.871094 C 87.40625 43.539063 94.40625 43.539063 94.40625 38.871094 Z M 94.40625 38.871094 "/>
<path style=" stroke:none;fill-rule:evenodd;fill:rgb(0%,0%,0%);fill-opacity:1;" d="M 95.109375 38.871094 C 95.109375 33.269531 86.707031 33.269531 86.707031 38.871094 C 86.707031 44.472656 95.109375 44.472656 95.109375 38.871094 Z M 93.707031 38.871094 C 93.707031 35.136719 88.109375 35.136719 88.109375 38.871094 C 88.109375 42.605469 93.707031 42.605469 93.707031 38.871094 Z M 93.707031 38.871094 "/>
<path style=" stroke:none;fill-rule:evenodd;fill:rgb(100%,100%,100%);fill-opacity:1;" d="M 94.34375 63.480469 C 94.34375 58.816406 87.34375 58.816406 87.34375 63.480469 C 87.34375 68.148438 94.34375 68.148438 94.34375 63.480469 Z M 94.34375 63.480469 "/>
<path style=" stroke:none;fill-rule:evenodd;fill:rgb(0%,0%,0%);fill-opacity:1;" d="M 95.042969 63.480469 C 95.042969 57.882813 86.644531 57.882813 86.644531 63.480469 C 86.644531 69.082031 95.042969 69.082031 95.042969 63.480469 Z M 93.644531 63.480469 C 93.644531 59.75 88.042969 59.75 88.042969 63.480469 C 88.042969 67.214844 93.644531 67.214844 93.644531 63.480469 Z M 93.644531 63.480469 "/>
<path style=" stroke:none;fill-rule:evenodd;fill:rgb(100%,100%,100%);fill-opacity:1;" d="M 81.378906 54.898438 C 81.378906 50.230469 74.378906 50.230469 74.378906 54.898438 C 74.378906 59.566406 81.378906 59.566406 81.378906 54.898438 Z M 81.378906 54.898438 "/>
<path style=" stroke:none;fill-rule:evenodd;fill:rgb(0%,0%,0%);fill-opacity:1;" d="M 82.078125 54.898438 C 82.078125 49.300781 73.675781 49.300781 73.675781 54.898438 C 73.675781 60.5 82.078125 60.5 82.078125 54.898438 Z M 80.675781 54.898438 C 80.675781 51.164063 75.078125 51.164063 75.078125 54.898438 C 75.078125 58.632813 80.675781 58.632813 80.675781 54.898438 Z M 80.675781 54.898438 "/>
<path style=" stroke:none;fill-rule:evenodd;fill:rgb(18%,54.5%,34.1%);fill-opacity:1;" d="M 94.328125 20.023438 C 94.328125 15.359375 87.328125 15.359375 87.328125 20.023438 C 87.328125 24.691406 94.328125 24.691406 94.328125 20.023438 Z M 94.328125 20.023438 "/>
<path style=" stroke:none;fill-rule:evenodd;fill:rgb(18%,54.5%,34.1%);fill-opacity:1;" d="M 95.027344 20.023438 C 95.027344 14.425781 86.628906 14.425781 86.628906 20.023438 C 86.628906 25.625 95.027344 25.625 95.027344 20.023438 Z M 93.628906 20.023438 C 93.628906 16.292969 88.027344 16.292969 88.027344 20.023438 C 88.027344 23.757813 93.628906 23.757813 93.628906 20.023438 Z M 93.628906 20.023438 "/>
<path style=" stroke:none;fill-rule:evenodd;fill:rgb(100%,100%,100%);fill-opacity:1;" d="M 94.480469 5.292969 C 94.480469 0.628906 87.480469 0.628906 87.480469 5.292969 C 87.480469 9.960938 94.480469 9.960938 94.480469 5.292969 Z M 94.480469 5.292969 "/>
<path style=" stroke:none;fill-rule:evenodd;fill:rgb(0%,0%,0%);fill-opacity:1;" d="M 95.179688 5.292969 C 95.179688 -0.304688 86.78125 -0.304688 86.78125 5.292969 C 86.78125 10.894531 95.179688 10.894531 95.179688 5.292969 Z M 93.78125 5.292969 C 93.78125 1.5625 88.179688 1.5625 88.179688 5.292969 C 88.179688 9.027344 93.78125 9.027344 93.78125 5.292969 Z M 93.78125 5.292969 "/>
<path style=" stroke:none;fill-rule:evenodd;fill:rgb(100%,0%,0%);fill-opacity:1;" d="M 36.835938 9.046875 L 45.234375 9.046875 L 45.234375 0.648438 L 36.835938 0.648438 Z M 36.835938 9.046875 "/>
<path style=" stroke:none;fill-rule:evenodd;fill:rgb(100%,100%,100%);fill-opacity:1;" d="M 93.226563 84.515625 C 93.226563 79.851563 86.226563 79.851563 86.226563 84.515625 C 86.226563 89.183594 93.226563 89.183594 93.226563 84.515625 Z M 93.226563 84.515625 "/>
<path style=" stroke:none;fill-rule:evenodd;fill:rgb(0%,0%,0%);fill-opacity:1;" d="M 93.925781 84.515625 C 93.925781 78.917969 85.523438 78.917969 85.523438 84.515625 C 85.523438 90.117188 93.925781 90.117188 93.925781 84.515625 Z M 92.523438 84.515625 C 92.523438 80.785156 86.925781 80.785156 86.925781 84.515625 C 86.925781 88.25 92.523438 88.25 92.523438 84.515625 Z M 92.523438 84.515625 "/>
<path style=" stroke:none;fill-rule:evenodd;fill:rgb(100%,100%,100%);fill-opacity:1;" d="M 79.851563 84.515625 C 79.851563 79.851563 72.851563 79.851563 72.851563 84.515625 C 72.851563 89.183594 79.851563 89.183594 79.851563 84.515625 Z M 79.851563 84.515625 "/>
<path style=" stroke:none;fill-rule:evenodd;fill:rgb(0%,0%,0%);fill-opacity:1;" d="M 80.550781 84.515625 C 80.550781 78.917969 72.148438 78.917969 72.148438 84.515625 C 72.148438 90.117188 80.550781 90.117188 80.550781 84.515625 Z M 79.148438 84.515625 C 79.148438 80.785156 73.550781 80.785156 73.550781 84.515625 C 73.550781 88.25 79.148438 88.25 79.148438 84.515625 Z M 79.148438 84.515625 "/>
<path style=" stroke:none;fill-rule:evenodd;fill:rgb(100%,100%,100%);fill-opacity:1;" d="M 109.304688 63.566406 C 109.304688 58.898438 102.304688 58.898438 102.304688 63.566406 C 102.304688 68.230469 109.304688 68.230469 109.304688 63.566406 Z M 109.304688 63.566406 "/>
<path style=" stroke:none;fill-rule:evenodd;fill:rgb(0%,0%,0%);fill-opacity:1;" d="M 110.003906 63.566406 C 110.003906 57.964844 101.605469 57.964844 101.605469 63.566406 C 101.605469 69.164063 110.003906 69.164063 110.003906 63.566406 Z M 108.605469 63.566406 C 108.605469 59.832031 103.003906 59.832031 103.003906 63.566406 C 103.003906 67.296875 108.605469 67.296875 108.605469 63.566406 Z M 108.605469 63.566406 "/>
<path style=" stroke:none;fill-rule:evenodd;fill:rgb(0%,0%,100%);fill-opacity:1;" d="M 109.226563 77.605469 C 109.226563 72.9375 102.226563 72.9375 102.226563 77.605469 C 102.226563 82.269531 109.226563 82.269531 109.226563 77.605469 Z M 109.226563 77.605469 "/>
<path style=" stroke:none;fill-rule:evenodd;fill:rgb(0%,0%,100%);fill-opacity:1;" d="M 109.929688 77.605469 C 109.929688 72.003906 101.527344 72.003906 101.527344 77.605469 C 101.527344 83.203125 109.929688 83.203125 109.929688 77.605469 Z M 108.527344 77.605469 C 108.527344 73.871094 102.929688 73.871094 102.929688 77.605469 C 102.929688 81.339844 108.527344 81.339844 108.527344 77.605469 Z M 108.527344 77.605469 "/>
<path style=" stroke:none;fill-rule:evenodd;fill:rgb(100%,100%,100%);fill-opacity:1;" d="M 109.308594 63.566406 C 109.308594 58.898438 102.308594 58.898438 102.308594 63.566406 C 102.308594 68.234375 109.308594 68.234375 109.308594 63.566406 Z M 109.308594 63.566406 "/>
<path style=" stroke:none;fill-rule:evenodd;fill:rgb(0%,0%,0%);fill-opacity:1;" d="M 110.007813 63.566406 C 110.007813 57.964844 101.609375 57.964844 101.609375 63.566406 C 101.609375 69.164063 110.007813 69.164063 110.007813 63.566406 Z M 108.609375 63.566406 C 108.609375 59.832031 103.007813 59.832031 103.007813 63.566406 C 103.007813 67.300781 108.609375 67.300781 108.609375 63.566406 Z M 108.609375 63.566406 "/>
<path style=" stroke:none;fill-rule:evenodd;fill:rgb(100%,100%,100%);fill-opacity:1;" d="M 66.472656 84.515625 C 66.472656 79.851563 59.472656 79.851563 59.472656 84.515625 C 59.472656 89.183594 66.472656 89.183594 66.472656 84.515625 Z M 66.472656 84.515625 "/>
<path style=" stroke:none;fill-rule:evenodd;fill:rgb(0%,0%,0%);fill-opacity:1;" d="M 67.175781 84.515625 C 67.175781 78.917969 58.773438 78.917969 58.773438 84.515625 C 58.773438 90.117188 67.175781 90.117188 67.175781 84.515625 Z M 65.773438 84.515625 C 65.773438 80.785156 60.175781 80.785156 60.175781 84.515625 C 60.175781 88.25 65.773438 88.25 65.773438 84.515625 Z M 65.773438 84.515625 "/>
<path style=" stroke:none;fill-rule:evenodd;fill:rgb(100%,100%,100%);fill-opacity:1;" d="M 53.097656 84.515625 C 53.097656 79.851563 46.097656 79.851563 46.097656 84.515625 C 46.097656 89.183594 53.097656 89.183594 53.097656 84.515625 Z M 53.097656 84.515625 "/>
<path style=" stroke:none;fill-rule:evenodd;fill:rgb(0%,0%,0%);fill-opacity:1;" d="M 53.800781 84.515625 C 53.800781 78.917969 45.398438 78.917969 45.398438 84.515625 C 45.398438 90.117188 53.800781 90.117188 53.800781 84.515625 Z M 52.398438 84.515625 C 52.398438 80.785156 46.800781 80.785156 46.800781 84.515625 C 46.800781 88.25 52.398438 88.25 52.398438 84.515625 Z M 52.398438 84.515625 "/>
<path style=" stroke:none;fill-rule:evenodd;fill:rgb(100%,100%,100%);fill-opacity:1;" d="M 39.722656 84.515625 C 39.722656 79.851563 32.722656 79.851563 32.722656 84.515625 C 32.722656 89.183594 39.722656 89.183594 39.722656 84.515625 Z M 39.722656 84.515625 "/>
<path style=" stroke:none;fill-rule:evenodd;fill:rgb(0%,0%,0%);fill-opacity:1;" d="M 40.425781 84.515625 C 40.425781 78.917969 32.023438 78.917969 32.023438 84.515625 C 32.023438 90.117188 40.425781 90.117188 40.425781 84.515625 Z M 39.023438 84.515625 C 39.023438 80.785156 33.425781 80.785156 33.425781 84.515625 C 33.425781 88.25 39.023438 88.25 39.023438 84.515625 Z M 39.023438 84.515625 "/>
<path style=" stroke:none;fill-rule:evenodd;fill:rgb(100%,100%,100%);fill-opacity:1;" d="M 39.722656 72.949219 C 39.722656 68.28125 32.722656 68.28125 32.722656 72.949219 C 32.722656 77.613281 39.722656 77.613281 39.722656 72.949219 Z M 39.722656 72.949219 "/>
<path style=" stroke:none;fill-rule:evenodd;fill:rgb(0%,0%,0%);fill-opacity:1;" d="M 40.425781 72.949219 C 40.425781 67.347656 32.023438 67.347656 32.023438 72.949219 C 32.023438 78.546875 40.425781 78.546875 40.425781 72.949219 Z M 39.023438 72.949219 C 39.023438 69.214844 33.425781 69.214844 33.425781 72.949219 C 33.425781 76.679688 39.023438 76.679688 39.023438 72.949219 Z M 39.023438 72.949219 "/>
<path style=" stroke:none;fill-rule:evenodd;fill:rgb(100%,100%,100%);fill-opacity:1;" d="M 53.097656 72.949219 C 53.097656 68.28125 46.097656 68.28125 46.097656 72.949219 C 46.097656 77.613281 53.097656 77.613281 53.097656 72.949219 Z M 53.097656 72.949219 "/>
<path style=" stroke:none;fill-rule:evenodd;fill:rgb(0%,0%,0%);fill-opacity:1;" d="M 53.800781 72.949219 C 53.800781 67.347656 45.398438 67.347656 45.398438 72.949219 C 45.398438 78.546875 53.800781 78.546875 53.800781 72.949219 Z M 52.398438 72.949219 C 52.398438 69.214844 46.800781 69.214844 46.800781 72.949219 C 46.800781 76.679688 52.398438 76.679688 52.398438 72.949219 Z M 52.398438 72.949219 "/>
<path style=" stroke:none;fill-rule:evenodd;fill:rgb(100%,100%,100%);fill-opacity:1;" d="M 66.472656 72.949219 C 66.472656 68.28125 59.472656 68.28125 59.472656 72.949219 C 59.472656 77.613281 66.472656 77.613281 66.472656 72.949219 Z M 66.472656 72.949219 "/>
<path style=" stroke:none;fill-rule:evenodd;fill:rgb(0%,0%,0%);fill-opacity:1;" d="M 67.175781 72.949219 C 67.175781 67.347656 58.773438 67.347656 58.773438 72.949219 C 58.773438 78.546875 67.175781 78.546875 67.175781 72.949219 Z M 65.773438 72.949219 C 65.773438 69.214844 60.175781 69.214844 60.175781 72.949219 C 60.175781 76.679688 65.773438 76.679688 65.773438 72.949219 Z M 65.773438 72.949219 "/>
<path style=" stroke:none;fill-rule:evenodd;fill:rgb(0%,0%,100%);fill-opacity:1;" d="M 45.707031 65.054688 L 52.707031 65.054688 L 52.707031 58.054688 L 45.707031 58.054688 Z M 45.707031 65.054688 "/>
<path style=" stroke:none;fill-rule:evenodd;fill:rgb(0%,0%,100%);fill-opacity:1;" d="M 45.003906 65.753906 L 53.40625 65.753906 L 53.40625 57.351563 L 45.003906 57.351563 Z M 46.40625 64.351563 L 52.003906 64.351563 L 52.003906 58.753906 L 46.40625 58.753906 Z M 46.40625 64.351563 "/>
<g style="fill:rgb(0%,0%,0%);fill-opacity:1;">
  <use xlink:href="#glyph0-1" x="6.7714" y="6.57232"/>
</g>
<g style="fill:rgb(0%,0%,0%);fill-opacity:1;">
  <use xlink:href="#glyph1-1" x="11.4414" y="8.06632"/>
</g>
<g style="fill:rgb(0%,0%,0%);fill-opacity:1;">
  <use xlink:href="#glyph0-1" x="77.0322" y="23.24232"/>
</g>
<g style="fill:rgb(0%,0%,0%);fill-opacity:1;">
  <use xlink:href="#glyph1-2" x="81.7022" y="24.73632"/>
</g>
<g style="fill:rgb(0%,0%,0%);fill-opacity:1;">
  <use xlink:href="#glyph0-1" x="101.916152" y="87.077919"/>
</g>
<g style="fill:rgb(0%,0%,0%);fill-opacity:1;">
  <use xlink:href="#glyph1-3" x="106.586152" y="88.571919"/>
</g>
<g style="fill:rgb(0%,0%,0%);fill-opacity:1;">
  <use xlink:href="#glyph2-1" x="39.2692" y="17.20316"/>
</g>
<g style="fill:rgb(0%,0%,0%);fill-opacity:1;">
  <use xlink:href="#glyph3-1" x="42.8672" y="18.69716"/>
</g>
<g style="fill:rgb(0%,0%,0%);fill-opacity:1;">
  <use xlink:href="#glyph2-1" x="44.7114" y="54.74524"/>
</g>
<g style="fill:rgb(0%,0%,0%);fill-opacity:1;">
  <use xlink:href="#glyph3-2" x="48.3094" y="56.23924"/>
</g>
<g style="fill:rgb(0%,0%,0%);fill-opacity:1;">
  <use xlink:href="#glyph2-1" x="24.23914" y="21.51132"/>
</g>
<g style="fill:rgb(0%,0%,0%);fill-opacity:1;">
  <use xlink:href="#glyph3-3" x="27.83714" y="23.00532"/>
</g>
<path style=" stroke:none;fill-rule:evenodd;fill:rgb(100%,100%,100%);fill-opacity:1;" d="M 66.414063 61.417969 C 66.414063 56.75 59.414063 56.75 59.414063 61.417969 C 59.414063 66.085938 66.414063 66.085938 66.414063 61.417969 Z M 66.414063 61.417969 "/>
<path style=" stroke:none;fill-rule:evenodd;fill:rgb(0%,0%,0%);fill-opacity:1;" d="M 67.113281 61.417969 C 67.113281 55.816406 58.714844 55.816406 58.714844 61.417969 C 58.714844 67.015625 67.113281 67.015625 67.113281 61.417969 Z M 65.714844 61.417969 C 65.714844 57.683594 60.113281 57.683594 60.113281 61.417969 C 60.113281 65.152344 65.714844 65.152344 65.714844 61.417969 Z M 65.714844 61.417969 "/>
<path style=" stroke:none;fill-rule:evenodd;fill:rgb(100%,100%,100%);fill-opacity:1;" d="M 150.890625 7.171875 C 150.890625 2.503906 143.890625 2.503906 143.890625 7.171875 C 143.890625 11.835938 150.890625 11.835938 150.890625 7.171875 Z M 150.890625 7.171875 "/>
<path style=" stroke:none;fill-rule:evenodd;fill:rgb(0%,0%,0%);fill-opacity:1;" d="M 151.589844 7.171875 C 151.589844 1.570313 143.191406 1.570313 143.191406 7.171875 C 143.191406 12.769531 151.589844 12.769531 151.589844 7.171875 Z M 150.191406 7.171875 C 150.191406 3.4375 144.589844 3.4375 144.589844 7.171875 C 144.589844 10.902344 150.191406 10.902344 150.191406 7.171875 Z M 150.191406 7.171875 "/>
<path style=" stroke:none;fill-rule:evenodd;fill:rgb(100%,100%,100%);fill-opacity:1;" d="M 150.890625 24.992188 C 150.890625 20.328125 143.890625 20.328125 143.890625 24.992188 C 143.890625 29.660156 150.890625 29.660156 150.890625 24.992188 Z M 150.890625 24.992188 "/>
<path style=" stroke:none;fill-rule:evenodd;fill:rgb(0%,0%,0%);fill-opacity:1;" d="M 151.589844 24.992188 C 151.589844 19.394531 143.191406 19.394531 143.191406 24.992188 C 143.191406 30.59375 151.589844 30.59375 151.589844 24.992188 Z M 150.191406 24.992188 C 150.191406 21.257813 144.589844 21.257813 144.589844 24.992188 C 144.589844 28.726563 150.191406 28.726563 150.191406 24.992188 Z M 150.191406 24.992188 "/>
<path style=" stroke:none;fill-rule:evenodd;fill:rgb(100%,100%,100%);fill-opacity:1;" d="M 168.832031 24.992188 C 168.832031 20.328125 161.832031 20.328125 161.832031 24.992188 C 161.832031 29.660156 168.832031 29.660156 168.832031 24.992188 Z M 168.832031 24.992188 "/>
<path style=" stroke:none;fill-rule:evenodd;fill:rgb(0%,0%,0%);fill-opacity:1;" d="M 169.53125 24.992188 C 169.53125 19.394531 161.132813 19.394531 161.132813 24.992188 C 161.132813 30.59375 169.53125 30.59375 169.53125 24.992188 Z M 168.132813 24.992188 C 168.132813 21.257813 162.53125 21.257813 162.53125 24.992188 C 162.53125 28.726563 168.132813 28.726563 168.132813 24.992188 Z M 168.132813 24.992188 "/>
<path style=" stroke:none;fill-rule:evenodd;fill:rgb(100%,100%,100%);fill-opacity:1;" d="M 150.890625 60.640625 C 150.890625 55.976563 143.890625 55.976563 143.890625 60.640625 C 143.890625 65.308594 150.890625 65.308594 150.890625 60.640625 Z M 150.890625 60.640625 "/>
<path style=" stroke:none;fill-rule:evenodd;fill:rgb(0%,0%,0%);fill-opacity:1;" d="M 151.589844 60.640625 C 151.589844 55.042969 143.191406 55.042969 143.191406 60.640625 C 143.191406 66.242188 151.589844 66.242188 151.589844 60.640625 Z M 150.191406 60.640625 C 150.191406 56.910156 144.589844 56.910156 144.589844 60.640625 C 144.589844 64.375 150.191406 64.375 150.191406 60.640625 Z M 150.191406 60.640625 "/>
<path style=" stroke:none;fill-rule:evenodd;fill:rgb(100%,100%,100%);fill-opacity:1;" d="M 186.769531 60.640625 C 186.769531 55.976563 179.769531 55.976563 179.769531 60.640625 C 179.769531 65.308594 186.769531 65.308594 186.769531 60.640625 Z M 186.769531 60.640625 "/>
<path style=" stroke:none;fill-rule:evenodd;fill:rgb(0%,0%,0%);fill-opacity:1;" d="M 187.472656 60.640625 C 187.472656 55.042969 179.070313 55.042969 179.070313 60.640625 C 179.070313 66.242188 187.472656 66.242188 187.472656 60.640625 Z M 186.070313 60.640625 C 186.070313 56.910156 180.472656 56.910156 180.472656 60.640625 C 180.472656 64.375 186.070313 64.375 186.070313 60.640625 Z M 186.070313 60.640625 "/>
<path style=" stroke:none;fill-rule:evenodd;fill:rgb(100%,100%,100%);fill-opacity:1;" d="M 150.890625 78.460938 C 150.890625 73.796875 143.890625 73.796875 143.890625 78.460938 C 143.890625 83.128906 150.890625 83.128906 150.890625 78.460938 Z M 150.890625 78.460938 "/>
<path style=" stroke:none;fill-rule:evenodd;fill:rgb(0%,0%,0%);fill-opacity:1;" d="M 151.589844 78.460938 C 151.589844 72.863281 143.191406 72.863281 143.191406 78.460938 C 143.191406 84.0625 151.589844 84.0625 151.589844 78.460938 Z M 150.191406 78.460938 C 150.191406 74.730469 144.589844 74.730469 144.589844 78.460938 C 144.589844 82.195313 150.191406 82.195313 150.191406 78.460938 Z M 150.191406 78.460938 "/>
<path style=" stroke:none;fill-rule:evenodd;fill:rgb(100%,100%,100%);fill-opacity:1;" d="M 186.769531 42.8125 C 186.769531 38.144531 179.769531 38.144531 179.769531 42.8125 C 179.769531 47.480469 186.769531 47.480469 186.769531 42.8125 Z M 186.769531 42.8125 "/>
<path style=" stroke:none;fill-rule:evenodd;fill:rgb(0%,0%,0%);fill-opacity:1;" d="M 187.472656 42.8125 C 187.472656 37.210938 179.070313 37.210938 179.070313 42.8125 C 179.070313 48.410156 187.472656 48.410156 187.472656 42.8125 Z M 186.070313 42.8125 C 186.070313 39.078125 180.472656 39.078125 180.472656 42.8125 C 180.472656 46.546875 186.070313 46.546875 186.070313 42.8125 Z M 186.070313 42.8125 "/>
<path style=" stroke:none;fill-rule:evenodd;fill:rgb(100%,100%,100%);fill-opacity:1;" d="M 204.710938 60.640625 C 204.710938 55.976563 197.710938 55.976563 197.710938 60.640625 C 197.710938 65.308594 204.710938 65.308594 204.710938 60.640625 Z M 204.710938 60.640625 "/>
<path style=" stroke:none;fill-rule:evenodd;fill:rgb(0%,0%,0%);fill-opacity:1;" d="M 205.410156 60.640625 C 205.410156 55.042969 197.011719 55.042969 197.011719 60.640625 C 197.011719 66.242188 205.410156 66.242188 205.410156 60.640625 Z M 204.011719 60.640625 C 204.011719 56.910156 198.410156 56.910156 198.410156 60.640625 C 198.410156 64.375 204.011719 64.375 204.011719 60.640625 Z M 204.011719 60.640625 "/>
<path style=" stroke:none;fill-rule:evenodd;fill:rgb(100%,100%,100%);fill-opacity:1;" d="M 222.652344 60.640625 C 222.652344 55.976563 215.652344 55.976563 215.652344 60.640625 C 215.652344 65.308594 222.652344 65.308594 222.652344 60.640625 Z M 222.652344 60.640625 "/>
<path style=" stroke:none;fill-rule:evenodd;fill:rgb(0%,0%,0%);fill-opacity:1;" d="M 223.351563 60.640625 C 223.351563 55.042969 214.953125 55.042969 214.953125 60.640625 C 214.953125 66.242188 223.351563 66.242188 223.351563 60.640625 Z M 221.953125 60.640625 C 221.953125 56.910156 216.351563 56.910156 216.351563 60.640625 C 216.351563 64.375 221.953125 64.375 221.953125 60.640625 Z M 221.953125 60.640625 "/>
<path style=" stroke:none;fill-rule:evenodd;fill:rgb(100%,100%,100%);fill-opacity:1;" d="M 204.710938 42.8125 C 204.710938 38.144531 197.710938 38.144531 197.710938 42.8125 C 197.710938 47.480469 204.710938 47.480469 204.710938 42.8125 Z M 204.710938 42.8125 "/>
<path style=" stroke:none;fill-rule:evenodd;fill:rgb(0%,0%,0%);fill-opacity:1;" d="M 205.410156 42.8125 C 205.410156 37.210938 197.011719 37.210938 197.011719 42.8125 C 197.011719 48.410156 205.410156 48.410156 205.410156 42.8125 Z M 204.011719 42.8125 C 204.011719 39.078125 198.410156 39.078125 198.410156 42.8125 C 198.410156 46.546875 204.011719 46.546875 204.011719 42.8125 Z M 204.011719 42.8125 "/>
<path style=" stroke:none;fill-rule:evenodd;fill:rgb(100%,100%,100%);fill-opacity:1;" d="M 222.652344 42.8125 C 222.652344 38.144531 215.652344 38.144531 215.652344 42.8125 C 215.652344 47.480469 222.652344 47.480469 222.652344 42.8125 Z M 222.652344 42.8125 "/>
<path style=" stroke:none;fill-rule:evenodd;fill:rgb(0%,0%,0%);fill-opacity:1;" d="M 223.351563 42.8125 C 223.351563 37.210938 214.953125 37.210938 214.953125 42.8125 C 214.953125 48.410156 223.351563 48.410156 223.351563 42.8125 Z M 221.953125 42.8125 C 221.953125 39.078125 216.351563 39.078125 216.351563 42.8125 C 216.351563 46.546875 221.953125 46.546875 221.953125 42.8125 Z M 221.953125 42.8125 "/>
<path style=" stroke:none;fill-rule:evenodd;fill:rgb(100%,100%,100%);fill-opacity:1;" d="M 222.652344 78.460938 C 222.652344 73.796875 215.652344 73.796875 215.652344 78.460938 C 215.652344 83.128906 222.652344 83.128906 222.652344 78.460938 Z M 222.652344 78.460938 "/>
<path style=" stroke:none;fill-rule:evenodd;fill:rgb(0%,0%,0%);fill-opacity:1;" d="M 223.351563 78.460938 C 223.351563 72.863281 214.953125 72.863281 214.953125 78.460938 C 214.953125 84.0625 223.351563 84.0625 223.351563 78.460938 Z M 221.953125 78.460938 C 221.953125 74.730469 216.351563 74.730469 216.351563 78.460938 C 216.351563 82.195313 221.953125 82.195313 221.953125 78.460938 Z M 221.953125 78.460938 "/>
<path style=" stroke:none;fill-rule:evenodd;fill:rgb(100%,100%,100%);fill-opacity:1;" d="M 168.832031 7.171875 C 168.832031 2.503906 161.832031 2.503906 161.832031 7.171875 C 161.832031 11.835938 168.832031 11.835938 168.832031 7.171875 Z M 168.832031 7.171875 "/>
<path style=" stroke:none;fill-rule:evenodd;fill:rgb(0%,0%,0%);fill-opacity:1;" d="M 169.53125 7.171875 C 169.53125 1.570313 161.132813 1.570313 161.132813 7.171875 C 161.132813 12.769531 169.53125 12.769531 169.53125 7.171875 Z M 168.132813 7.171875 C 168.132813 3.4375 162.53125 3.4375 162.53125 7.171875 C 162.53125 10.902344 168.132813 10.902344 168.132813 7.171875 Z M 168.132813 7.171875 "/>
<path style=" stroke:none;fill-rule:evenodd;fill:rgb(100%,100%,100%);fill-opacity:1;" d="M 186.773438 24.992188 C 186.773438 20.328125 179.773438 20.328125 179.773438 24.992188 C 179.773438 29.660156 186.773438 29.660156 186.773438 24.992188 Z M 186.773438 24.992188 "/>
<path style=" stroke:none;fill-rule:evenodd;fill:rgb(0%,0%,0%);fill-opacity:1;" d="M 187.472656 24.992188 C 187.472656 19.394531 179.070313 19.394531 179.070313 24.992188 C 179.070313 30.59375 187.472656 30.59375 187.472656 24.992188 Z M 186.070313 24.992188 C 186.070313 21.257813 180.472656 21.257813 180.472656 24.992188 C 180.472656 28.726563 186.070313 28.726563 186.070313 24.992188 Z M 186.070313 24.992188 "/>
<path style=" stroke:none;fill-rule:evenodd;fill:rgb(100%,100%,100%);fill-opacity:1;" d="M 132.953125 24.992188 C 132.953125 20.328125 125.953125 20.328125 125.953125 24.992188 C 125.953125 29.660156 132.953125 29.660156 132.953125 24.992188 Z M 132.953125 24.992188 "/>
<path style=" stroke:none;fill-rule:evenodd;fill:rgb(0%,0%,0%);fill-opacity:1;" d="M 133.652344 24.992188 C 133.652344 19.394531 125.25 19.394531 125.25 24.992188 C 125.25 30.59375 133.652344 30.59375 133.652344 24.992188 Z M 132.25 24.992188 C 132.25 21.257813 126.652344 21.257813 126.652344 24.992188 C 126.652344 28.726563 132.25 28.726563 132.25 24.992188 Z M 132.25 24.992188 "/>
<path style="fill:none;stroke-width:1.4;stroke-linecap:butt;stroke-linejoin:round;stroke:rgb(0%,0%,0%);stroke-opacity:1;stroke-miterlimit:10;" d="M 168.332031 770.363281 L 168.332031 788.1875 Z M 168.332031 770.363281 " transform="matrix(1,0,0,-1,-3,831)"/>
<path style=" stroke:none;fill-rule:evenodd;fill:rgb(100%,100%,100%);fill-opacity:1;" d="M 168.832031 60.640625 C 168.832031 55.976563 161.832031 55.976563 161.832031 60.640625 C 161.832031 65.308594 168.832031 65.308594 168.832031 60.640625 Z M 168.832031 60.640625 "/>
<path style=" stroke:none;fill-rule:evenodd;fill:rgb(0%,0%,0%);fill-opacity:1;" d="M 169.53125 60.640625 C 169.53125 55.042969 161.132813 55.042969 161.132813 60.640625 C 161.132813 66.242188 169.53125 66.242188 169.53125 60.640625 Z M 168.132813 60.640625 C 168.132813 56.910156 162.53125 56.910156 162.53125 60.640625 C 162.53125 64.375 168.132813 64.375 168.132813 60.640625 Z M 168.132813 60.640625 "/>
<path style=" stroke:none;fill-rule:evenodd;fill:rgb(100%,100%,100%);fill-opacity:1;" d="M 168.832031 42.8125 C 168.832031 38.144531 161.832031 38.144531 161.832031 42.8125 C 161.832031 47.480469 168.832031 47.480469 168.832031 42.8125 Z M 168.832031 42.8125 "/>
<path style=" stroke:none;fill-rule:evenodd;fill:rgb(0%,0%,0%);fill-opacity:1;" d="M 169.53125 42.8125 C 169.53125 37.210938 161.132813 37.210938 161.132813 42.8125 C 161.132813 48.410156 169.53125 48.410156 169.53125 42.8125 Z M 168.132813 42.8125 C 168.132813 39.078125 162.53125 39.078125 162.53125 42.8125 C 162.53125 46.546875 168.132813 46.546875 168.132813 42.8125 Z M 168.132813 42.8125 "/>
<path style=" stroke:none;fill-rule:evenodd;fill:rgb(100%,100%,100%);fill-opacity:1;" d="M 132.949219 42.820313 C 132.949219 38.15625 125.949219 38.15625 125.949219 42.820313 C 125.949219 47.488281 132.949219 47.488281 132.949219 42.820313 Z M 132.949219 42.820313 "/>
<path style=" stroke:none;fill-rule:evenodd;fill:rgb(0%,0%,0%);fill-opacity:1;" d="M 133.652344 42.820313 C 133.652344 37.222656 125.25 37.222656 125.25 42.820313 C 125.25 48.421875 133.652344 48.421875 133.652344 42.820313 Z M 132.25 42.820313 C 132.25 39.089844 126.652344 39.089844 126.652344 42.820313 C 126.652344 46.554688 132.25 46.554688 132.25 42.820313 Z M 132.25 42.820313 "/>
<path style=" stroke:none;fill-rule:evenodd;fill:rgb(100%,100%,100%);fill-opacity:1;" d="M 168.832031 78.460938 C 168.832031 73.796875 161.832031 73.796875 161.832031 78.460938 C 161.832031 83.128906 168.832031 83.128906 168.832031 78.460938 Z M 168.832031 78.460938 "/>
<path style=" stroke:none;fill-rule:evenodd;fill:rgb(0%,0%,0%);fill-opacity:1;" d="M 169.53125 78.460938 C 169.53125 72.863281 161.132813 72.863281 161.132813 78.460938 C 161.132813 84.0625 169.53125 84.0625 169.53125 78.460938 Z M 168.132813 78.460938 C 168.132813 74.730469 162.53125 74.730469 162.53125 78.460938 C 162.53125 82.195313 168.132813 82.195313 168.132813 78.460938 Z M 168.132813 78.460938 "/>
<path style=" stroke:none;fill-rule:evenodd;fill:rgb(100%,100%,100%);fill-opacity:1;" d="M 132.949219 78.460938 C 132.949219 73.796875 125.949219 73.796875 125.949219 78.460938 C 125.949219 83.128906 132.949219 83.128906 132.949219 78.460938 Z M 132.949219 78.460938 "/>
<path style=" stroke:none;fill-rule:evenodd;fill:rgb(0%,0%,0%);fill-opacity:1;" d="M 133.652344 78.460938 C 133.652344 72.863281 125.25 72.863281 125.25 78.460938 C 125.25 84.0625 133.652344 84.0625 133.652344 78.460938 Z M 132.25 78.460938 C 132.25 74.730469 126.652344 74.730469 126.652344 78.460938 C 126.652344 82.195313 132.25 82.195313 132.25 78.460938 Z M 132.25 78.460938 "/>
<path style=" stroke:none;fill-rule:evenodd;fill:rgb(100%,100%,100%);fill-opacity:1;" d="M 132.949219 60.640625 C 132.949219 55.976563 125.949219 55.976563 125.949219 60.640625 C 125.949219 65.308594 132.949219 65.308594 132.949219 60.640625 Z M 132.949219 60.640625 "/>
<path style=" stroke:none;fill-rule:evenodd;fill:rgb(0%,0%,0%);fill-opacity:1;" d="M 133.652344 60.640625 C 133.652344 55.042969 125.25 55.042969 125.25 60.640625 C 125.25 66.242188 133.652344 66.242188 133.652344 60.640625 Z M 132.25 60.640625 C 132.25 56.910156 126.652344 56.910156 126.652344 60.640625 C 126.652344 64.375 132.25 64.375 132.25 60.640625 Z M 132.25 60.640625 "/>
</g>
</svg>
