<?xml version="1.0" encoding="UTF-8" standalone="no"?>
<!-- This file was generated by dvisvgm 2.9.1 -->

<svg
   version="1.1"
   width="156.79662pt"
   height="152.31131pt"
   viewBox="19.92528 0 156.79663 152.31131"
   id="svg23815"
   sodipodi:docname="good_proof.svg"
   inkscape:version="1.2 (dc2aedaf03, 2022-05-15)"
   xmlns:inkscape="http://www.inkscape.org/namespaces/inkscape"
   xmlns:sodipodi="http://sodipodi.sourceforge.net/DTD/sodipodi-0.dtd"
   xmlns="http://www.w3.org/2000/svg"
   xmlns:svg="http://www.w3.org/2000/svg">
  <sodipodi:namedview
     id="namedview23817"
     pagecolor="#ffffff"
     bordercolor="#000000"
     borderopacity="0.25"
     inkscape:showpageshadow="2"
     inkscape:pageopacity="0.0"
     inkscape:pagecheckerboard="0"
     inkscape:deskcolor="#d1d1d1"
     inkscape:document-units="pt"
     showgrid="false"
     inkscape:zoom="3.1612887"
     inkscape:cx="65.63779"
     inkscape:cy="158.47968"
     inkscape:window-width="2560"
     inkscape:window-height="1369"
     inkscape:window-x="2552"
     inkscape:window-y="-8"
     inkscape:window-maximized="1"
     inkscape:current-layer="svg23815" />
  <defs
     id="defs23552">
    <font
       id="cmsy7"
       horiz-adv-x="0"
       horiz-origin-x="0"
       horiz-origin-y="0"
       vert-origin-x="512"
       vert-origin-y="768"
       vert-adv-y="1024">
      <font-face
         font-family="cmsy7"
         units-per-em="1000"
         ascent="782"
         descent="951"
         id="font-face23528" />
      <glyph
         unicode=""
         horiz-adv-x="329"
         vert-adv-y="329"
         glyph-name="prime"
         d="M290 472C298 489 299 497 299 504C299 535 271 559 240 559C202 559 190 528 185 512L53 79C52 77 48 64 48 63C48 51 79 41 87 41C94 41 95 43 102 58L290 472Z"
         id="glyph23530" />
    </font>
    <font
       id="cmmi10"
       horiz-adv-x="0"
       horiz-origin-x="0"
       horiz-origin-y="0"
       vert-origin-x="512"
       vert-origin-y="768"
       vert-adv-y="1024">
      <font-face
         font-family="cmmi10"
         units-per-em="1000"
         ascent="750"
         descent="250"
         id="font-face23533" />
      <glyph
         unicode="R"
         horiz-adv-x="759"
         vert-adv-y="759"
         glyph-name="R"
         d="M375 614C381 638 384 648 403 651C412 652 444 652 464 652C535 652 646 652 646 553C646 519 630 450 591 411C565 385 512 353 422 353H310L375 614ZM519 340C620 362 739 432 739 533C739 619 649 683 518 683H233C213 683 204 683 204 663C204 652 213 652 232 652C234 652 253 652 270 650C288 648 297 647 297 634C297 630 296 627 293 615L159 78C149 39 147 31 68 31C50 31 41 31 41 11C41 0 53 0 55 0C83 0 153 3 181 3S280 0 308 0C316 0 328 0 328 20C328 31 319 31 300 31C263 31 235 31 235 49C235 55 237 60 238 66L304 331H423C514 331 532 275 532 240C532 225 524 194 518 171C511 143 502 106 502 86C502-22 622-22 635-22C720-22 755 79 755 93C755 105 744 105 743 105C734 105 732 98 730 91C705 17 662 0 639 0C606 0 599 22 599 61C599 92 605 143 609 175C611 189 613 208 613 222C613 299 546 330 519 340Z"
         id="glyph23535" />
      <glyph
         unicode="T"
         horiz-adv-x="584"
         vert-adv-y="584"
         glyph-name="T"
         d="M427 607C434 635 438 641 450 644C459 646 492 646 513 646C614 646 659 642 659 564C659 549 655 510 651 484C650 480 648 468 648 465C648 459 651 452 660 452C671 452 673 460 675 475L702 649C703 653 704 663 704 666C704 677 694 677 677 677H122C98 677 97 676 90 657L30 481C29 479 24 465 24 463C24 457 29 452 36 452C46 452 47 457 53 473C107 628 133 646 281 646H320C348 646 348 642 348 634C348 628 345 616 344 613L210 79C201 42 198 31 91 31C55 31 49 31 49 12C49 0 60 0 66 0C93 0 121 2 148 2C176 2 205 3 233 3S289 2 316 2C345 2 375 0 403 0C413 0 425 0 425 20C425 31 417 31 391 31C366 31 353 31 327 33C298 36 290 39 290 55C290 56 290 61 294 76L427 607Z"
         id="glyph23537" />
    </font>
    <font
       id="cmr7"
       horiz-adv-x="0"
       horiz-origin-x="0"
       horiz-origin-y="0"
       vert-origin-x="512"
       vert-origin-y="768"
       vert-adv-y="1024">
      <font-face
         font-family="cmr7"
         units-per-em="1000"
         ascent="750"
         descent="250"
         id="font-face23540" />
      <glyph
         unicode="0"
         horiz-adv-x="569"
         vert-adv-y="569"
         glyph-name="zero"
         d="M516 319C516 429 503 508 457 578C426 624 364 664 284 664C52 664 52 391 52 319S52-20 284-20S516 247 516 319ZM284 8C238 8 177 35 157 117C143 176 143 258 143 332C143 405 143 481 158 536C179 615 243 636 284 636C338 636 390 603 408 545C424 491 425 419 425 332C425 258 425 184 412 121C392 30 324 8 284 8Z"
         id="glyph23542" />
    </font>
    <font
       id="cmmi7"
       horiz-adv-x="0"
       horiz-origin-x="0"
       horiz-origin-y="0"
       vert-origin-x="512"
       vert-origin-y="768"
       vert-adv-y="1024">
      <font-face
         font-family="cmmi7"
         units-per-em="1000"
         ascent="750"
         descent="250"
         id="font-face23545" />
      <glyph
         unicode="i"
         horiz-adv-x="404"
         vert-adv-y="404"
         glyph-name="i"
         d="M324 625C324 641 312 663 284 663C257 663 228 637 228 608C228 591 241 570 268 570C297 570 324 598 324 625ZM120 117C116 104 111 92 111 75C111 28 151-10 206-10C306-10 350 128 350 143C350 156 337 156 334 156C320 156 319 150 315 139C292 59 248 18 209 18C189 18 184 31 184 53C184 76 191 95 200 117C210 144 221 171 232 197C241 221 277 312 281 324C284 334 287 346 287 356C287 403 247 441 192 441C93 441 47 305 47 288C47 275 61 275 64 275C78 275 79 280 82 291C108 377 152 413 189 413C205 413 214 405 214 378C214 355 208 340 183 278L120 117Z"
         id="glyph23547" />
      <glyph
         unicode="j"
         horiz-adv-x="472"
         vert-adv-y="472"
         glyph-name="j"
         d="M439 625C439 642 426 663 399 663C370 663 343 635 343 608C343 592 355 570 383 570C410 570 439 596 439 625ZM227-49C210-118 157-176 98-176C85-176 73-174 62-170C88-158 96-134 96-119C96-95 77-82 57-82C26-82 0-109 0-141C0-179 39-204 99-204S276-168 307-46L397 312C400 323 402 332 402 347C402 402 355 441 295 441C184 441 120 302 120 288C120 275 134 275 137 275C149 275 150 278 157 293C182 351 234 413 292 413C317 413 326 396 326 364C326 353 324 339 323 334L227-49Z"
         id="glyph23549" />
    </font>
  </defs>
  <style
     type="text/css"
     id="style23554"><![CDATA[text.f0 {font-family:cmsy7;font-size:6.973848px}
text.f1 {font-family:cmmi7;font-size:6.973848px}
text.f2 {font-family:cmmi10;font-size:9.96264px}
text.f3 {font-family:cmr7;font-size:6.973848px}
text.f4 {font-family:[c:/texlive/2020/texmf-dist/fonts/opentype/public/lm/lmroman10-regular.otf];font-size:10px}
]]></style>
  <g
     id="page1"
     transform="matrix(1,0,0,0.77642998,-0.47449005,0.6449938)"
     style="stroke-width:1.13488">
    <g
       stroke-miterlimit="10"
       transform="matrix(0.996264,0,0,-0.996264,28.20037,234.8691)"
       id="g23812"
       style="stroke-width:1.27841">
      <g
         fill="#000000"
         stroke="#000000"
         id="g23810"
         style="stroke-width:1.44008">
        <g
           stroke-width="0.453952"
           id="g23808">
          <g
             stroke-width="0.907901"
             id="g23570">
            <path
               d="M 0,196.32426 H 141.55377"
               fill="none"
               id="path23556"
               style="stroke-width:1.02272" />
            <g
               transform="translate(141.55377,196.32426)"
               id="g23568"
               style="stroke-width:0.907901">
              <g
                 stroke-width="0.726322"
                 id="g23566">
                <g
                   stroke-dasharray="none"
                   stroke-dashoffset="0"
                   id="g23564"
                   style="stroke-width:0.81818">
                  <g
                     stroke-linecap="round"
                     id="g23562"
                     style="stroke-width:0.921657">
                    <g
                       stroke-linejoin="round"
                       id="g23560"
                       style="stroke-width:1.03822">
                      <path
                         d="M -1.55997,2.07996 C -1.42996,1.29997 0,0.12999 0.38998,0 0,-0.12999 -1.42996,-1.29997 -1.55997,-2.07996"
                         fill="none"
                         id="path23558"
                         style="stroke-width:1.16952" />
                    </g>
                  </g>
                </g>
              </g>
            </g>
          </g>
          <path
             d="m 47.42125,196.32426 7.11317,8.53582 14.22637,-17.07163 14.22636,17.07163 7.11319,-8.53582 h 4.74217"
             fill="none"
             id="path23572"
             style="stroke-width:0.511362" />
          <g
             stroke-width="0.907901"
             id="g23576">
            <path
               d="m 0,193.47903 v 5.69047"
               fill="none"
               id="path23574"
               style="stroke-width:1.02272" />
          </g>
          <g
             stroke-width="0.907901"
             id="g23580">
            <path
               d="m 47.42125,193.47903 v 5.69047"
               fill="none"
               id="path23578"
               style="stroke-width:1.02272" />
          </g>
          <g
             stroke-width="0.907901"
             id="g23584">
            <path
               d="m 94.84251,193.47903 v 5.69047"
               fill="none"
               id="path23582"
               style="stroke-width:1.02272" />
          </g>
          <g
             transform="matrix(0.7,0,0,0.7,-5.97305,208.29665)"
             id="g23594"
             style="stroke-width:0.453952">
            <g
               stroke="none"
               transform="matrix(1.00375,0,0,-1.00375,-28.306121,235.74986)"
               id="g23592"
               style="stroke-width:0.511362">
              <g
                 fill="#000000"
                 id="g23590"
                 style="stroke-width:0.576036">
                <g
                   stroke="none"
                   id="g23588"
                   style="stroke-width:0.648887">
                  <text
                     class="f4"
                     x="29.200371"
                     y="242.86911"
                     id="text23586"
                     style="stroke-width:0.453952">0</text>
                </g>
              </g>
            </g>
          </g>
          <g
             transform="matrix(0.7,0,0,0.7,144.73685,208.43665)"
             id="g23604"
             style="stroke-width:0.453952">
            <g
               stroke="none"
               transform="matrix(1.00375,0,0,-1.00375,-28.306121,235.74986)"
               id="g23602"
               style="stroke-width:0.511362">
              <g
                 fill="#000000"
                 id="g23600"
                 style="stroke-width:0.576036">
                <g
                   stroke="none"
                   id="g23598"
                   style="stroke-width:0.648887">
                  <text
                     class="f4"
                     x="27.200371"
                     y="242.86911"
                     id="text23596"
                     style="stroke-width:0.453952">t</text>
                </g>
              </g>
            </g>
          </g>
          <path
             d="m 47.42125,210.55063 m 0,0 c 1.49994,3.00003 5,5 10,5 h 3.71063 c 5,0 8.50006,1.99997 10,5 1.49994,-3.00003 5,-5 10,-5 h 3.71063 c 5,0 8.50007,-1.99997 10,-5"
             fill="none"
             id="path23606"
             style="stroke-width:0.511362" />
          <g
             transform="translate(65.96695,225.58357)"
             id="g23618"
             style="stroke-width:0.453952">
            <g
               stroke="none"
               transform="matrix(1.00375,0,0,-1.00375,-28.306121,235.74986)"
               id="g23616"
               style="stroke-width:0.511362">
              <g
                 fill="#000000"
                 id="g23614"
                 style="stroke-width:0.576036">
                <g
                   stroke="none"
                   id="g23612"
                   style="stroke-width:0.648887">
                  <text
                     class="f2"
                     x="28.200371"
                     y="234.86911"
                     id="text23608"
                     style="stroke-width:0.453952">T</text>
                  <text
                     class="f3"
                     x="34.022301"
                     y="236.36348"
                     id="text23610"
                     style="stroke-width:0.453952">0</text>
                </g>
              </g>
            </g>
          </g>
          <g
             transform="matrix(0.7,0,0,0.7,52.77348,180.70763)"
             id="g23630"
             style="stroke-width:0.453952">
            <g
               stroke="none"
               transform="matrix(1.00375,0,0,-1.00375,-28.306121,235.74986)"
               id="g23628"
               style="stroke-width:0.511362">
              <g
                 fill="#000000"
                 id="g23626"
                 style="stroke-width:0.576036">
                <g
                   stroke="none"
                   id="g23624"
                   style="stroke-width:0.648887">
                  <text
                     class="f2"
                     x="28.200371"
                     y="234.86911"
                     id="text23620"
                     style="stroke-width:0.453952">R</text>
                  <text
                     class="f1"
                     x="35.7649"
                     y="236.36348"
                     id="text23622"
                     style="stroke-width:0.453952">j</text>
                </g>
              </g>
            </g>
          </g>
          <g
             transform="matrix(0.7,0,0,0.7,53.08298,208.68398)"
             id="g23642"
             style="stroke-width:0.453952">
            <g
               stroke="none"
               transform="matrix(1.00375,0,0,-1.00375,-28.306121,235.74986)"
               id="g23640"
               style="stroke-width:0.511362">
              <g
                 fill="#000000"
                 id="g23638"
                 style="stroke-width:0.576036">
                <g
                   stroke="none"
                   id="g23636"
                   style="stroke-width:0.648887">
                  <text
                     class="f2"
                     x="28.200371"
                     y="234.86911"
                     id="text23632"
                     style="stroke-width:0.453952">R</text>
                  <text
                     class="f1"
                     x="35.7649"
                     y="236.36348"
                     id="text23634"
                     style="stroke-width:0.453952">i</text>
                </g>
              </g>
            </g>
          </g>
          <g
             transform="matrix(0.7,0,0,0.7,67.46541,172.3535)"
             id="g23654"
             style="stroke-width:0.453952">
            <g
               stroke="none"
               transform="matrix(1.00375,0,0,-1.00375,-28.306121,235.74986)"
               id="g23652"
               style="stroke-width:0.511362">
              <g
                 fill="#000000"
                 id="g23650"
                 style="stroke-width:0.576036">
                <g
                   stroke="none"
                   id="g23648"
                   style="stroke-width:0.648887">
                  <text
                     class="f2"
                     x="28.200371"
                     y="234.86911"
                     id="text23644"
                     style="stroke-width:0.453952">R</text>
                  <text
                     class="f0"
                     x="34.841866"
                     y="231.25374"
                     id="text23646"
                     style="stroke-width:0.453952">'</text>
                </g>
              </g>
            </g>
          </g>
          <g
             stroke-width="0.907901"
             id="g23670">
            <path
               d="M 0,130.88284 H 141.55377"
               fill="none"
               id="path23656"
               style="stroke-width:1.02272" />
            <g
               transform="translate(141.55377,130.88284)"
               id="g23668"
               style="stroke-width:0.907901">
              <g
                 stroke-width="0.726322"
                 id="g23666">
                <g
                   stroke-dasharray="none"
                   stroke-dashoffset="0"
                   id="g23664"
                   style="stroke-width:0.81818">
                  <g
                     stroke-linecap="round"
                     id="g23662"
                     style="stroke-width:0.921657">
                    <g
                       stroke-linejoin="round"
                       id="g23660"
                       style="stroke-width:1.03822">
                      <path
                         d="M -1.55997,2.07996 C -1.42996,1.29997 0,0.12999 0.38998,0 0,-0.12999 -1.42996,-1.29997 -1.55997,-2.07996"
                         fill="none"
                         id="path23658"
                         style="stroke-width:1.16952" />
                    </g>
                  </g>
                </g>
              </g>
            </g>
          </g>
          <path
             d="m 0,130.88284 7.11317,8.53582 14.22637,-17.07163 14.22636,17.07163 7.1132,-8.53582 h 4.74215"
             fill="none"
             id="path23672"
             style="stroke-width:0.511362" />
          <g
             stroke-width="0.907901"
             id="g23676">
            <path
               d="m 0,128.03761 v 5.69046"
               fill="none"
               id="path23674"
               style="stroke-width:1.02272" />
          </g>
          <g
             stroke-width="0.907901"
             id="g23680">
            <path
               d="m 47.42125,128.03761 v 5.69046"
               fill="none"
               id="path23678"
               style="stroke-width:1.02272" />
          </g>
          <g
             stroke-width="0.907901"
             id="g23684">
            <path
               d="m 94.84251,128.03761 v 5.69046"
               fill="none"
               id="path23682"
               style="stroke-width:1.02272" />
          </g>
          <g
             transform="matrix(0.7,0,0,0.7,-5.97305,142.85522)"
             id="g23694"
             style="stroke-width:0.453952">
            <g
               stroke="none"
               transform="matrix(1.00375,0,0,-1.00375,-28.306121,235.74986)"
               id="g23692"
               style="stroke-width:0.511362">
              <g
                 fill="#000000"
                 id="g23690"
                 style="stroke-width:0.576036">
                <g
                   stroke="none"
                   id="g23688"
                   style="stroke-width:0.648887">
                  <text
                     class="f4"
                     x="29.200371"
                     y="242.86911"
                     id="text23686"
                     style="stroke-width:0.453952">0</text>
                </g>
              </g>
            </g>
          </g>
          <g
             transform="matrix(0.7,0,0,0.7,144.73685,142.99522)"
             id="g23704"
             style="stroke-width:0.453952">
            <g
               stroke="none"
               transform="matrix(1.00375,0,0,-1.00375,-28.306121,235.74986)"
               id="g23702"
               style="stroke-width:0.511362">
              <g
                 fill="#000000"
                 id="g23700"
                 style="stroke-width:0.576036">
                <g
                   stroke="none"
                   id="g23698"
                   style="stroke-width:0.648887">
                  <text
                     class="f4"
                     x="27.200371"
                     y="242.86911"
                     id="text23696"
                     style="stroke-width:0.453952">t</text>
                </g>
              </g>
            </g>
          </g>
          <path
             d="m 47.42125,130.88284 m 0,0 c 1.49994,3.00003 5,5 10,5 h 3.71063 c 5,0 8.50006,1.99997 10,5 1.49994,-3.00003 5,-5 10,-5 h 3.71063 c 5,0 8.50007,-1.99997 10,-5"
             fill="none"
             id="path23706"
             style="stroke-width:0.511362" />
          <g
             transform="translate(65.96695,145.91579)"
             id="g23718"
             style="stroke-width:0.453952">
            <g
               stroke="none"
               transform="matrix(1.00375,0,0,-1.00375,-28.306121,235.74986)"
               id="g23716"
               style="stroke-width:0.511362">
              <g
                 fill="#000000"
                 id="g23714"
                 style="stroke-width:0.576036">
                <g
                   stroke="none"
                   id="g23712"
                   style="stroke-width:0.648887">
                  <text
                     class="f2"
                     x="28.200371"
                     y="234.86911"
                     id="text23708"
                     style="stroke-width:0.453952">T</text>
                  <text
                     class="f3"
                     x="34.022301"
                     y="236.36348"
                     id="text23710"
                     style="stroke-width:0.453952">0</text>
                </g>
              </g>
            </g>
          </g>
          <g
             transform="matrix(0.7,0,0,0.7,20.04414,106.91208)"
             id="g23730"
             style="stroke-width:0.453952">
            <g
               stroke="none"
               transform="matrix(1.00375,0,0,-1.00375,-28.306121,235.74986)"
               id="g23728"
               style="stroke-width:0.511362">
              <g
                 fill="#000000"
                 id="g23726"
                 style="stroke-width:0.576036">
                <g
                   stroke="none"
                   id="g23724"
                   style="stroke-width:0.648887">
                  <text
                     class="f2"
                     x="28.200371"
                     y="234.86911"
                     id="text23720"
                     style="stroke-width:0.453952">R</text>
                  <text
                     class="f0"
                     x="34.841866"
                     y="231.25374"
                     id="text23722"
                     style="stroke-width:0.453952">'</text>
                </g>
              </g>
            </g>
          </g>
          <g
             stroke-width="0.907901"
             id="g23746">
            <path
               d="M 0,65.44142 H 141.55377"
               fill="none"
               id="path23732"
               style="stroke-width:1.02272" />
            <g
               transform="translate(141.55377,65.44142)"
               id="g23744"
               style="stroke-width:0.907901">
              <g
                 stroke-width="0.726322"
                 id="g23742">
                <g
                   stroke-dasharray="none"
                   stroke-dashoffset="0"
                   id="g23740"
                   style="stroke-width:0.81818">
                  <g
                     stroke-linecap="round"
                     id="g23738"
                     style="stroke-width:0.921657">
                    <g
                       stroke-linejoin="round"
                       id="g23736"
                       style="stroke-width:1.03822">
                      <path
                         d="M -1.55997,2.07996 C -1.42996,1.29997 0,0.12999 0.38998,0 0,-0.12999 -1.42996,-1.29997 -1.55997,-2.07996"
                         fill="none"
                         id="path23734"
                         style="stroke-width:1.16952" />
                    </g>
                  </g>
                </g>
              </g>
            </g>
          </g>
          <path
             d="m 94.84251,65.44142 7.11318,8.53581 14.22636,-17.07162 14.22637,17.07162 7.11318,-8.53581 h 4.74218"
             fill="none"
             id="path23748"
             style="stroke-width:0.511362" />
          <g
             stroke-width="0.907901"
             id="g23752">
            <path
               d="m 0,62.59619 v 5.69046"
               fill="none"
               id="path23750"
               style="stroke-width:1.02272" />
          </g>
          <g
             stroke-width="0.907901"
             id="g23756">
            <path
               d="m 47.42125,62.59619 v 5.69046"
               fill="none"
               id="path23754"
               style="stroke-width:1.02272" />
          </g>
          <g
             stroke-width="0.907901"
             id="g23760">
            <path
               d="m 94.84251,62.59619 v 5.69046"
               fill="none"
               id="path23758"
               style="stroke-width:1.02272" />
          </g>
          <g
             transform="matrix(0.7,0,0,0.7,-5.97305,77.4138)"
             id="g23770"
             style="stroke-width:0.453952">
            <g
               stroke="none"
               transform="matrix(1.00375,0,0,-1.00375,-28.306121,235.74986)"
               id="g23768"
               style="stroke-width:0.511362">
              <g
                 fill="#000000"
                 id="g23766"
                 style="stroke-width:0.576036">
                <g
                   stroke="none"
                   id="g23764"
                   style="stroke-width:0.648887">
                  <text
                     class="f4"
                     x="29.200371"
                     y="242.86911"
                     id="text23762"
                     style="stroke-width:0.453952">0</text>
                </g>
              </g>
            </g>
          </g>
          <g
             transform="matrix(0.7,0,0,0.7,144.73685,77.5538)"
             id="g23780"
             style="stroke-width:0.453952">
            <g
               stroke="none"
               transform="matrix(1.00375,0,0,-1.00375,-28.306121,235.74986)"
               id="g23778"
               style="stroke-width:0.511362">
              <g
                 fill="#000000"
                 id="g23776"
                 style="stroke-width:0.576036">
                <g
                   stroke="none"
                   id="g23774"
                   style="stroke-width:0.648887">
                  <text
                     class="f4"
                     x="27.200371"
                     y="242.86911"
                     id="text23772"
                     style="stroke-width:0.453952">t</text>
                </g>
              </g>
            </g>
          </g>
          <path
             d="m 47.42125,85.35832 m 0,0 c 1.49994,3.00003 5,5 10,5 h 3.71063 c 5,0 8.50006,1.99997 10,5 1.49994,-3.00003 5,-5 10,-5 h 3.71063 c 5,0 8.50007,-1.99997 10,-5"
             fill="none"
             id="path23782"
             style="stroke-width:0.511362" />
          <g
             transform="translate(65.96695,100.39127)"
             id="g23794"
             style="stroke-width:0.453952">
            <g
               stroke="none"
               transform="matrix(1.00375,0,0,-1.00375,-28.306121,235.74986)"
               id="g23792"
               style="stroke-width:0.511362">
              <g
                 fill="#000000"
                 id="g23790"
                 style="stroke-width:0.576036">
                <g
                   stroke="none"
                   id="g23788"
                   style="stroke-width:0.648887">
                  <text
                     class="f2"
                     x="28.200371"
                     y="234.86911"
                     id="text23784"
                     style="stroke-width:0.453952">T</text>
                  <text
                     class="f3"
                     x="34.022301"
                     y="236.36348"
                     id="text23786"
                     style="stroke-width:0.453952">0</text>
                </g>
              </g>
            </g>
          </g>
          <g
             transform="matrix(0.7,0,0,0.7,114.88667,48.58383)"
             id="g23806"
             style="stroke-width:0.453952">
            <g
               stroke="none"
               transform="matrix(1.00375,0,0,-1.00375,-28.306121,235.74986)"
               id="g23804"
               style="stroke-width:0.511362">
              <g
                 fill="#000000"
                 id="g23802"
                 style="stroke-width:0.576036">
                <g
                   stroke="none"
                   id="g23800"
                   style="stroke-width:0.648887">
                  <text
                     class="f2"
                     x="28.200371"
                     y="234.86911"
                     id="text23796"
                     style="stroke-width:0.453952">R</text>
                  <text
                     class="f0"
                     x="34.841866"
                     y="231.25374"
                     id="text23798"
                     style="stroke-width:0.453952">'</text>
                </g>
              </g>
            </g>
          </g>
        </g>
      </g>
    </g>
  </g>
</svg>
