<?xml version="1.0" encoding="UTF-8"?>
<svg xmlns="http://www.w3.org/2000/svg" xmlns:xlink="http://www.w3.org/1999/xlink" width="142" height="94" viewBox="0 0 142 94">
<path fill="none" stroke-width="0.4" stroke-linecap="round" stroke-linejoin="round" stroke="rgb(0%, 0%, 0%)" stroke-opacity="1" stroke-miterlimit="10" d="M 184 808 L 180 808 " transform="matrix(1, 0, 0, -1, -57, 811)"/>
<path fill-rule="evenodd" fill="rgb(0%, 0%, 0%)" fill-opacity="1" d="M 22 79 C 22 75 16 75 16 79 C 16 83 22 83 22 79 Z M 22 79 "/>
<path fill-rule="evenodd" fill="rgb(0%, 0%, 0%)" fill-opacity="1" d="M 130 11 C 130 7 124 7 124 11 C 124 15 130 15 130 11 Z M 130 11 "/>
<path fill-rule="evenodd" fill="rgb(0%, 0%, 0%)" fill-opacity="1" d="M 130 67 C 130 63 124 63 124 67 C 124 71 130 71 130 67 Z M 130 67 "/>
<path fill-rule="evenodd" fill="rgb(0%, 0%, 0%)" fill-opacity="1" d="M 68.800781 11 C 68.800781 8.601563 65.199219 8.601563 65.199219 11 C 65.199219 13.398438 68.800781 13.398438 68.800781 11 Z M 68.800781 11 "/>
<path fill-rule="evenodd" fill="rgb(0%, 0%, 0%)" fill-opacity="1" d="M 68.800781 27 C 68.800781 24.601563 65.199219 24.601563 65.199219 27 C 65.199219 29.398438 68.800781 29.398438 68.800781 27 Z M 68.800781 27 "/>
<path fill-rule="evenodd" fill="rgb(0%, 0%, 0%)" fill-opacity="1" d="M 68.800781 43 C 68.800781 40.601563 65.199219 40.601563 65.199219 43 C 65.199219 45.398438 68.800781 45.398438 68.800781 43 Z M 68.800781 43 "/>
<path fill-rule="evenodd" fill="rgb(0%, 0%, 0%)" fill-opacity="1" d="M 68.800781 55 C 68.800781 52.601563 65.199219 52.601563 65.199219 55 C 65.199219 57.398438 68.800781 57.398438 68.800781 55 Z M 68.800781 55 "/>
<path fill-rule="evenodd" fill="rgb(0%, 0%, 0%)" fill-opacity="1" d="M 52.800781 55 C 52.800781 52.601563 49.199219 52.601563 49.199219 55 C 49.199219 57.398438 52.800781 57.398438 52.800781 55 Z M 52.800781 55 "/>
<path fill-rule="evenodd" fill="rgb(0%, 0%, 0%)" fill-opacity="1" d="M 32.800781 55 C 32.800781 52.601563 29.199219 52.601563 29.199219 55 C 29.199219 57.398438 32.800781 57.398438 32.800781 55 Z M 32.800781 55 "/>
<path fill-rule="evenodd" fill="rgb(0%, 0%, 0%)" fill-opacity="1" d="M 4.800781 55 C 4.800781 52.601563 1.199219 52.601563 1.199219 55 C 1.199219 57.398438 4.800781 57.398438 4.800781 55 Z M 4.800781 55 "/>
<path fill-rule="evenodd" fill="rgb(0%, 0%, 0%)" fill-opacity="1" d="M 32.800781 71 C 32.800781 68.601563 29.199219 68.601563 29.199219 71 C 29.199219 73.398438 32.800781 73.398438 32.800781 71 Z M 32.800781 71 "/>
<path fill-rule="evenodd" fill="rgb(0%, 0%, 0%)" fill-opacity="1" d="M 4.800781 71 C 4.800781 68.601563 1.199219 68.601563 1.199219 71 C 1.199219 73.398438 4.800781 73.398438 4.800781 71 Z M 4.800781 71 "/>
<path fill-rule="evenodd" fill="rgb(0%, 0%, 0%)" fill-opacity="1" d="M 4.800781 91 C 4.800781 88.601563 1.199219 88.601563 1.199219 91 C 1.199219 93.398438 4.800781 93.398438 4.800781 91 Z M 4.800781 91 "/>
<path fill-rule="evenodd" fill="rgb(0%, 0%, 0%)" fill-opacity="1" d="M 32.800781 91 C 32.800781 88.601563 29.199219 88.601563 29.199219 91 C 29.199219 93.398438 32.800781 93.398438 32.800781 91 Z M 32.800781 91 "/>
<path fill-rule="evenodd" fill="rgb(0%, 0%, 0%)" fill-opacity="1" d="M 44.800781 91 C 44.800781 88.601563 41.199219 88.601563 41.199219 91 C 41.199219 93.398438 44.800781 93.398438 44.800781 91 Z M 44.800781 91 "/>
<path fill-rule="evenodd" fill="rgb(0%, 0%, 0%)" fill-opacity="1" d="M 68.800781 71 C 68.800781 68.601563 65.199219 68.601563 65.199219 71 C 65.199219 73.398438 68.800781 73.398438 68.800781 71 Z M 68.800781 71 "/>
<path fill-rule="evenodd" fill="rgb(0%, 0%, 0%)" fill-opacity="1" d="M 80.800781 27 C 80.800781 24.601563 77.199219 24.601563 77.199219 27 C 77.199219 29.398438 80.800781 29.398438 80.800781 27 Z M 80.800781 27 "/>
<path fill-rule="evenodd" fill="rgb(0%, 0%, 0%)" fill-opacity="1" d="M 104.800781 27 C 104.800781 24.601563 101.199219 24.601563 101.199219 27 C 101.199219 29.398438 104.800781 29.398438 104.800781 27 Z M 104.800781 27 "/>
<path fill-rule="evenodd" fill="rgb(0%, 0%, 0%)" fill-opacity="1" d="M 104.800781 19 C 104.800781 16.601563 101.199219 16.601563 101.199219 19 C 101.199219 21.398438 104.800781 21.398438 104.800781 19 Z M 104.800781 19 "/>
<path fill-rule="evenodd" fill="rgb(0%, 0%, 0%)" fill-opacity="1" d="M 104.800781 3 C 104.800781 0.601563 101.199219 0.601563 101.199219 3 C 101.199219 5.398438 104.800781 5.398438 104.800781 3 Z M 104.800781 3 "/>
<path fill-rule="evenodd" fill="rgb(0%, 0%, 0%)" fill-opacity="1" d="M 140.800781 3 C 140.800781 0.601563 137.199219 0.601563 137.199219 3 C 137.199219 5.398438 140.800781 5.398438 140.800781 3 Z M 140.800781 3 "/>
<path fill-rule="evenodd" fill="rgb(0%, 0%, 0%)" fill-opacity="1" d="M 140.800781 19 C 140.800781 16.601563 137.199219 16.601563 137.199219 19 C 137.199219 21.398438 140.800781 21.398438 140.800781 19 Z M 140.800781 19 "/>
<path fill-rule="evenodd" fill="rgb(0%, 0%, 0%)" fill-opacity="1" d="M 104.800781 39 C 104.800781 36.601563 101.199219 36.601563 101.199219 39 C 101.199219 41.398438 104.800781 41.398438 104.800781 39 Z M 104.800781 39 "/>
<path fill-rule="evenodd" fill="rgb(0%, 0%, 0%)" fill-opacity="1" d="M 104.800781 55 C 104.800781 52.601563 101.199219 52.601563 101.199219 55 C 101.199219 57.398438 104.800781 57.398438 104.800781 55 Z M 104.800781 55 "/>
<path fill-rule="evenodd" fill="rgb(0%, 0%, 0%)" fill-opacity="1" d="M 116.800781 55 C 116.800781 52.601563 113.199219 52.601563 113.199219 55 C 113.199219 57.398438 116.800781 57.398438 116.800781 55 Z M 116.800781 55 "/>
<path fill-rule="evenodd" fill="rgb(0%, 0%, 0%)" fill-opacity="1" d="M 140.800781 55 C 140.800781 52.601563 137.199219 52.601563 137.199219 55 C 137.199219 57.398438 140.800781 57.398438 140.800781 55 Z M 140.800781 55 "/>
<path fill-rule="evenodd" fill="rgb(0%, 0%, 0%)" fill-opacity="1" d="M 140.800781 79 C 140.800781 76.601563 137.199219 76.601563 137.199219 79 C 137.199219 81.398438 140.800781 81.398438 140.800781 79 Z M 140.800781 79 "/>
<path fill-rule="evenodd" fill="rgb(0%, 0%, 0%)" fill-opacity="1" d="M 116.800781 79 C 116.800781 76.601563 113.199219 76.601563 113.199219 79 C 113.199219 81.398438 116.800781 81.398438 116.800781 79 Z M 116.800781 79 "/>
<path fill-rule="evenodd" fill="rgb(0%, 0%, 0%)" fill-opacity="1" d="M 116.800781 19 C 116.800781 16.601563 113.199219 16.601563 113.199219 19 C 113.199219 21.398438 116.800781 21.398438 116.800781 19 Z M 116.800781 19 "/>
<path fill-rule="evenodd" fill="rgb(0%, 0%, 0%)" fill-opacity="1" d="M 20.800781 55 C 20.800781 52.601563 17.199219 52.601563 17.199219 55 C 17.199219 57.398438 20.800781 57.398438 20.800781 55 Z M 20.800781 55 "/>
<path fill-rule="evenodd" fill="rgb(0%, 0%, 0%)" fill-opacity="1" d="M 32.800781 79 C 32.800781 76.601563 29.199219 76.601563 29.199219 79 C 29.199219 81.398438 32.800781 81.398438 32.800781 79 Z M 32.800781 79 "/>
<path fill-rule="evenodd" fill="rgb(0%, 0%, 0%)" fill-opacity="1" d="M 4.800781 79 C 4.800781 76.601563 1.199219 76.601563 1.199219 79 C 1.199219 81.398438 4.800781 81.398438 4.800781 79 Z M 4.800781 79 "/>
<path fill-rule="evenodd" fill="rgb(0%, 0%, 0%)" fill-opacity="1" d="M 20.800781 91 C 20.800781 88.601563 17.199219 88.601563 17.199219 91 C 17.199219 93.398438 20.800781 93.398438 20.800781 91 Z M 20.800781 91 "/>
<path fill-rule="evenodd" fill="rgb(0%, 0%, 0%)" fill-opacity="1" d="M 104.800781 11 C 104.800781 8.601563 101.199219 8.601563 101.199219 11 C 101.199219 13.398438 104.800781 13.398438 104.800781 11 Z M 104.800781 11 "/>
<path fill-rule="evenodd" fill="rgb(0%, 0%, 0%)" fill-opacity="1" d="M 128.800781 3 C 128.800781 0.601563 125.199219 0.601563 125.199219 3 C 125.199219 5.398438 128.800781 5.398438 128.800781 3 Z M 128.800781 3 "/>
<path fill-rule="evenodd" fill="rgb(0%, 0%, 0%)" fill-opacity="1" d="M 128.800781 19 C 128.800781 16.601563 125.199219 16.601563 125.199219 19 C 125.199219 21.398438 128.800781 21.398438 128.800781 19 Z M 128.800781 19 "/>
<path fill-rule="evenodd" fill="rgb(0%, 0%, 0%)" fill-opacity="1" d="M 140.800781 11 C 140.800781 8.601563 137.199219 8.601563 137.199219 11 C 137.199219 13.398438 140.800781 13.398438 140.800781 11 Z M 140.800781 11 "/>
<path fill-rule="evenodd" fill="rgb(0%, 0%, 0%)" fill-opacity="1" d="M 104.800781 67 C 104.800781 64.601563 101.199219 64.601563 101.199219 67 C 101.199219 69.398438 104.800781 69.398438 104.800781 67 Z M 104.800781 67 "/>
<path fill-rule="evenodd" fill="rgb(0%, 0%, 0%)" fill-opacity="1" d="M 104.800781 79 C 104.800781 76.601563 101.199219 76.601563 101.199219 79 C 101.199219 81.398438 104.800781 81.398438 104.800781 79 Z M 104.800781 79 "/>
<path fill-rule="evenodd" fill="rgb(0%, 0%, 0%)" fill-opacity="1" d="M 140.800781 67 C 140.800781 64.601563 137.199219 64.601563 137.199219 67 C 137.199219 69.398438 140.800781 69.398438 140.800781 67 Z M 140.800781 67 "/>
<path fill-rule="evenodd" fill="rgb(0%, 0%, 0%)" fill-opacity="1" d="M 128.800781 55 C 128.800781 52.601563 125.199219 52.601563 125.199219 55 C 125.199219 57.398438 128.800781 57.398438 128.800781 55 Z M 128.800781 55 "/>
<path fill-rule="evenodd" fill="rgb(0%, 0%, 0%)" fill-opacity="1" d="M 128.800781 79 C 128.800781 76.601563 125.199219 76.601563 125.199219 79 C 125.199219 81.398438 128.800781 81.398438 128.800781 79 Z M 128.800781 79 "/>
<path fill="none" stroke-width="0.4" stroke-linecap="butt" stroke-linejoin="round" stroke="rgb(0%, 0%, 0%)" stroke-opacity="1" stroke-miterlimit="10" d="M 60 756 L 76 756 " transform="matrix(1, 0, 0, -1, -57, 811)"/>
<path fill="none" stroke-width="0.4" stroke-linecap="butt" stroke-linejoin="round" stroke="rgb(0%, 0%, 0%)" stroke-opacity="1" stroke-miterlimit="10" d="M 60 756 L 60 740 " transform="matrix(1, 0, 0, -1, -57, 811)"/>
<path fill="none" stroke-width="0.4" stroke-linecap="round" stroke-linejoin="round" stroke="rgb(0%, 0%, 0%)" stroke-opacity="1" stroke-miterlimit="10" d="M 60 740 L 60 740 " transform="matrix(1, 0, 0, -1, -57, 811)"/>
<path fill="none" stroke-width="0.4" stroke-linecap="butt" stroke-linejoin="round" stroke="rgb(0%, 0%, 0%)" stroke-opacity="1" stroke-miterlimit="10" d="M 60 740 L 60 732 " transform="matrix(1, 0, 0, -1, -57, 811)"/>
<path fill="none" stroke-width="0.4" stroke-linecap="butt" stroke-linejoin="round" stroke="rgb(0%, 0%, 0%)" stroke-opacity="1" stroke-miterlimit="10" d="M 60 732 L 76 732 " transform="matrix(1, 0, 0, -1, -57, 811)"/>
<path fill="none" stroke-width="0.4" stroke-linecap="butt" stroke-linejoin="round" stroke="rgb(0%, 0%, 0%)" stroke-opacity="1" stroke-miterlimit="10" d="M 76 732 L 88 732 " transform="matrix(1, 0, 0, -1, -57, 811)"/>
<path fill="none" stroke-width="0.4" stroke-linecap="butt" stroke-linejoin="round" stroke="rgb(0%, 0%, 0%)" stroke-opacity="1" stroke-miterlimit="10" d="M 88 740 L 88 732 " transform="matrix(1, 0, 0, -1, -57, 811)"/>
<path fill="none" stroke-width="0.4" stroke-linecap="butt" stroke-linejoin="round" stroke="rgb(0%, 0%, 0%)" stroke-opacity="1" stroke-miterlimit="10" d="M 88 732 L 88 720 " transform="matrix(1, 0, 0, -1, -57, 811)"/>
<path fill="none" stroke-width="0.4" stroke-linecap="butt" stroke-linejoin="round" stroke="rgb(0%, 0%, 0%)" stroke-opacity="1" stroke-miterlimit="10" d="M 88 720 L 76 720 " transform="matrix(1, 0, 0, -1, -57, 811)"/>
<path fill="none" stroke-width="0.4" stroke-linecap="butt" stroke-linejoin="round" stroke="rgb(0%, 0%, 0%)" stroke-opacity="1" stroke-miterlimit="10" d="M 76 720 C 68 720 62.667969 720 60 720 " transform="matrix(1, 0, 0, -1, -57, 811)"/>
<path fill="none" stroke-width="0.4" stroke-linecap="butt" stroke-linejoin="round" stroke="rgb(0%, 0%, 0%)" stroke-opacity="1" stroke-miterlimit="10" d="M 60 720 L 60 732 " transform="matrix(1, 0, 0, -1, -57, 811)"/>
<path fill="none" stroke-width="0.4" stroke-linecap="butt" stroke-linejoin="round" stroke="rgb(0%, 0%, 0%)" stroke-opacity="1" stroke-miterlimit="10" d="M 88 720 L 100 720 " transform="matrix(1, 0, 0, -1, -57, 811)"/>
<path fill="none" stroke-width="0.4" stroke-linecap="butt" stroke-linejoin="round" stroke="rgb(0%, 0%, 0%)" stroke-opacity="1" stroke-miterlimit="10" d="M 88 740 L 88 756 " transform="matrix(1, 0, 0, -1, -57, 811)"/>
<path fill="none" stroke-width="0.4" stroke-linecap="butt" stroke-linejoin="round" stroke="rgb(0%, 0%, 0%)" stroke-opacity="1" stroke-miterlimit="10" d="M 88 756 L 76 756 " transform="matrix(1, 0, 0, -1, -57, 811)"/>
<path fill="none" stroke-width="0.4" stroke-linecap="butt" stroke-linejoin="round" stroke="rgb(0%, 0%, 0%)" stroke-opacity="1" stroke-miterlimit="10" d="M 88 756 L 108 756 " transform="matrix(1, 0, 0, -1, -57, 811)"/>
<path fill="none" stroke-width="0.4" stroke-linecap="butt" stroke-linejoin="round" stroke="rgb(0%, 0%, 0%)" stroke-opacity="1" stroke-miterlimit="10" d="M 108 756 L 124 756 " transform="matrix(1, 0, 0, -1, -57, 811)"/>
<path fill="none" stroke-width="0.4" stroke-linecap="butt" stroke-linejoin="round" stroke="rgb(0%, 0%, 0%)" stroke-opacity="1" stroke-miterlimit="10" d="M 124 756 L 124 740 " transform="matrix(1, 0, 0, -1, -57, 811)"/>
<path fill="none" stroke-width="0.4" stroke-linecap="butt" stroke-linejoin="round" stroke="rgb(0%, 0%, 0%)" stroke-opacity="1" stroke-miterlimit="10" d="M 124 756 L 124 768 " transform="matrix(1, 0, 0, -1, -57, 811)"/>
<path fill="none" stroke-width="0.4" stroke-linecap="butt" stroke-linejoin="round" stroke="rgb(0%, 0%, 0%)" stroke-opacity="1" stroke-miterlimit="10" d="M 124 768 L 124 784 " transform="matrix(1, 0, 0, -1, -57, 811)"/>
<path fill="none" stroke-width="0.4" stroke-linecap="butt" stroke-linejoin="round" stroke="rgb(0%, 0%, 0%)" stroke-opacity="1" stroke-miterlimit="10" d="M 124 784 L 124 800 " transform="matrix(1, 0, 0, -1, -57, 811)"/>
<path fill="none" stroke-width="0.4" stroke-linecap="butt" stroke-linejoin="round" stroke="rgb(0%, 0%, 0%)" stroke-opacity="1" stroke-miterlimit="10" d="M 124 784 L 136 784 " transform="matrix(1, 0, 0, -1, -57, 811)"/>
<path fill="none" stroke-width="0.4" stroke-linecap="butt" stroke-linejoin="round" stroke="rgb(0%, 0%, 0%)" stroke-opacity="1" stroke-miterlimit="10" d="M 136 784 L 160 784 " transform="matrix(1, 0, 0, -1, -57, 811)"/>
<path fill="none" stroke-width="0.4" stroke-linecap="butt" stroke-linejoin="round" stroke="rgb(0%, 0%, 0%)" stroke-opacity="1" stroke-miterlimit="10" d="M 160 784 L 160 792 " transform="matrix(1, 0, 0, -1, -57, 811)"/>
<path fill="none" stroke-width="0.4" stroke-linecap="butt" stroke-linejoin="round" stroke="rgb(0%, 0%, 0%)" stroke-opacity="1" stroke-miterlimit="10" d="M 160 792 L 160 800 " transform="matrix(1, 0, 0, -1, -57, 811)"/>
<path fill="none" stroke-width="0.4" stroke-linecap="butt" stroke-linejoin="round" stroke="rgb(0%, 0%, 0%)" stroke-opacity="1" stroke-miterlimit="10" d="M 160 800 L 160 808 " transform="matrix(1, 0, 0, -1, -57, 811)"/>
<path fill="none" stroke-width="0.4" stroke-linecap="butt" stroke-linejoin="round" stroke="rgb(0%, 0%, 0%)" stroke-opacity="1" stroke-miterlimit="10" d="M 160 808 L 184 808 " transform="matrix(1, 0, 0, -1, -57, 811)"/>
<path fill="none" stroke-width="0.4" stroke-linecap="butt" stroke-linejoin="round" stroke="rgb(0%, 0%, 0%)" stroke-opacity="1" stroke-miterlimit="10" d="M 184 808 L 196 808 " transform="matrix(1, 0, 0, -1, -57, 811)"/>
<path fill="none" stroke-width="0.4" stroke-linecap="butt" stroke-linejoin="round" stroke="rgb(0%, 0%, 0%)" stroke-opacity="1" stroke-miterlimit="10" d="M 196 808 L 196 800 " transform="matrix(1, 0, 0, -1, -57, 811)"/>
<path fill="none" stroke-width="0.4" stroke-linecap="butt" stroke-linejoin="round" stroke="rgb(0%, 0%, 0%)" stroke-opacity="1" stroke-miterlimit="10" d="M 196 800 L 196 792 " transform="matrix(1, 0, 0, -1, -57, 811)"/>
<path fill="none" stroke-width="0.4" stroke-linecap="butt" stroke-linejoin="round" stroke="rgb(0%, 0%, 0%)" stroke-opacity="1" stroke-miterlimit="10" d="M 196 792 L 184 792 " transform="matrix(1, 0, 0, -1, -57, 811)"/>
<path fill="none" stroke-width="0.4" stroke-linecap="butt" stroke-linejoin="round" stroke="rgb(0%, 0%, 0%)" stroke-opacity="1" stroke-miterlimit="10" d="M 184 792 L 172 792 " transform="matrix(1, 0, 0, -1, -57, 811)"/>
<path fill="none" stroke-width="0.4" stroke-linecap="butt" stroke-linejoin="round" stroke="rgb(0%, 0%, 0%)" stroke-opacity="1" stroke-miterlimit="10" d="M 172 792 L 160 792 " transform="matrix(1, 0, 0, -1, -57, 811)"/>
<path fill="none" stroke-width="0.4" stroke-linecap="butt" stroke-linejoin="round" stroke="rgb(0%, 0%, 0%)" stroke-opacity="1" stroke-miterlimit="10" d="M 160 784 L 160 772 " transform="matrix(1, 0, 0, -1, -57, 811)"/>
<path fill="none" stroke-width="0.4" stroke-linecap="butt" stroke-linejoin="round" stroke="rgb(0%, 0%, 0%)" stroke-opacity="1" stroke-miterlimit="10" d="M 160 772 L 160 756 " transform="matrix(1, 0, 0, -1, -57, 811)"/>
<path fill="none" stroke-width="0.4" stroke-linecap="butt" stroke-linejoin="round" stroke="rgb(0%, 0%, 0%)" stroke-opacity="1" stroke-miterlimit="10" d="M 160 756 L 160 744 " transform="matrix(1, 0, 0, -1, -57, 811)"/>
<path fill="none" stroke-width="0.4" stroke-linecap="butt" stroke-linejoin="round" stroke="rgb(0%, 0%, 0%)" stroke-opacity="1" stroke-miterlimit="10" d="M 160 744 L 160 732 " transform="matrix(1, 0, 0, -1, -57, 811)"/>
<path fill="none" stroke-width="0.4" stroke-linecap="butt" stroke-linejoin="round" stroke="rgb(0%, 0%, 0%)" stroke-opacity="1" stroke-miterlimit="10" d="M 160 732 L 172 732 " transform="matrix(1, 0, 0, -1, -57, 811)"/>
<path fill="none" stroke-width="0.4" stroke-linecap="butt" stroke-linejoin="round" stroke="rgb(0%, 0%, 0%)" stroke-opacity="1" stroke-miterlimit="10" d="M 172 732 L 184 732 " transform="matrix(1, 0, 0, -1, -57, 811)"/>
<path fill="none" stroke-width="0.4" stroke-linecap="butt" stroke-linejoin="round" stroke="rgb(0%, 0%, 0%)" stroke-opacity="1" stroke-miterlimit="10" d="M 184 732 L 196 732 " transform="matrix(1, 0, 0, -1, -57, 811)"/>
<path fill="none" stroke-width="0.4" stroke-linecap="butt" stroke-linejoin="round" stroke="rgb(0%, 0%, 0%)" stroke-opacity="1" stroke-miterlimit="10" d="M 196 732 L 196 744 " transform="matrix(1, 0, 0, -1, -57, 811)"/>
<path fill="none" stroke-width="0.4" stroke-linecap="butt" stroke-linejoin="round" stroke="rgb(0%, 0%, 0%)" stroke-opacity="1" stroke-miterlimit="10" d="M 196 744 L 196 756 " transform="matrix(1, 0, 0, -1, -57, 811)"/>
<path fill="none" stroke-width="0.4" stroke-linecap="butt" stroke-linejoin="round" stroke="rgb(0%, 0%, 0%)" stroke-opacity="1" stroke-miterlimit="10" d="M 196 756 L 184 756 " transform="matrix(1, 0, 0, -1, -57, 811)"/>
<path fill="none" stroke-width="0.4" stroke-linecap="butt" stroke-linejoin="round" stroke="rgb(0%, 0%, 0%)" stroke-opacity="1" stroke-miterlimit="10" d="M 184 756 L 172 756 " transform="matrix(1, 0, 0, -1, -57, 811)"/>
<path fill="none" stroke-width="0.4" stroke-linecap="butt" stroke-linejoin="round" stroke="rgb(0%, 0%, 0%)" stroke-opacity="1" stroke-miterlimit="10" d="M 172 756 L 160 756 " transform="matrix(1, 0, 0, -1, -57, 811)"/>
<path fill-rule="evenodd" fill="rgb(0%, 0%, 0%)" fill-opacity="1" d="M 116.800781 67 C 116.800781 64.601563 113.199219 64.601563 113.199219 67 C 113.199219 69.398438 116.800781 69.398438 116.800781 67 Z M 116.800781 67 "/>
<path fill="none" stroke-width="0.4" stroke-linecap="butt" stroke-linejoin="round" stroke="rgb(0%, 0%, 0%)" stroke-opacity="1" stroke-miterlimit="10" d="M 172 756 L 172 744 " transform="matrix(1, 0, 0, -1, -57, 811)"/>
<path fill="none" stroke-width="0.4" stroke-linecap="butt" stroke-linejoin="round" stroke="rgb(0%, 0%, 0%)" stroke-opacity="1" stroke-miterlimit="10" d="M 172 744 L 172 732 " transform="matrix(1, 0, 0, -1, -57, 811)"/>
<path fill="none" stroke-width="0.4" stroke-linecap="butt" stroke-linejoin="round" stroke="rgb(0%, 0%, 0%)" stroke-opacity="1" stroke-miterlimit="10" d="M 76 720 L 76 732 " transform="matrix(1, 0, 0, -1, -57, 811)"/>
<path fill-rule="evenodd" fill="rgb(0%, 0%, 0%)" fill-opacity="1" d="M 20.800781 71 C 20.800781 68.601563 17.199219 68.601563 17.199219 71 C 17.199219 73.398438 20.800781 73.398438 20.800781 71 Z M 20.800781 71 "/>
<path fill="none" stroke-width="0.4" stroke-linecap="butt" stroke-linejoin="round" stroke="rgb(0%, 0%, 0%)" stroke-opacity="1" stroke-miterlimit="10" d="M 60 740 L 76 740 " transform="matrix(1, 0, 0, -1, -57, 811)"/>
<path fill="none" stroke-width="0.4" stroke-linecap="butt" stroke-linejoin="round" stroke="rgb(0%, 0%, 0%)" stroke-opacity="1" stroke-miterlimit="10" d="M 76 740 L 88 740 " transform="matrix(1, 0, 0, -1, -57, 811)"/>
<path fill="none" stroke-width="0.4" stroke-linecap="butt" stroke-linejoin="round" stroke="rgb(0%, 0%, 0%)" stroke-opacity="1" stroke-miterlimit="10" d="M 76 740 L 76 756 " transform="matrix(1, 0, 0, -1, -57, 811)"/>
<path fill="none" stroke-width="0.4" stroke-linecap="butt" stroke-linejoin="round" stroke="rgb(0%, 0%, 0%)" stroke-opacity="1" stroke-miterlimit="10" d="M 76 740 L 76 732 " transform="matrix(1, 0, 0, -1, -57, 811)"/>
<path fill="none" stroke-width="0.4" stroke-linecap="butt" stroke-linejoin="round" stroke="rgb(0%, 0%, 0%)" stroke-opacity="1" stroke-miterlimit="10" d="M 184 744 L 196 744 " transform="matrix(1, 0, 0, -1, -57, 811)"/>
<path fill="none" stroke-width="0.4" stroke-linecap="butt" stroke-linejoin="round" stroke="rgb(0%, 0%, 0%)" stroke-opacity="1" stroke-miterlimit="10" d="M 160 800 L 184 800 " transform="matrix(1, 0, 0, -1, -57, 811)"/>
<path fill="none" stroke-width="0.4" stroke-linecap="butt" stroke-linejoin="round" stroke="rgb(0%, 0%, 0%)" stroke-opacity="1" stroke-miterlimit="10" d="M 184 808 L 184 800 " transform="matrix(1, 0, 0, -1, -57, 811)"/>
<path fill="none" stroke-width="0.4" stroke-linecap="butt" stroke-linejoin="round" stroke="rgb(0%, 0%, 0%)" stroke-opacity="1" stroke-miterlimit="10" d="M 184 800 L 184 792 " transform="matrix(1, 0, 0, -1, -57, 811)"/>
<path fill="none" stroke-width="0.4" stroke-linecap="butt" stroke-linejoin="round" stroke="rgb(0%, 0%, 0%)" stroke-opacity="1" stroke-miterlimit="10" d="M 184 756 L 184 744 " transform="matrix(1, 0, 0, -1, -57, 811)"/>
<path fill="none" stroke-width="0.4" stroke-linecap="butt" stroke-linejoin="round" stroke="rgb(0%, 0%, 0%)" stroke-opacity="1" stroke-miterlimit="10" d="M 184 744 L 172 744 " transform="matrix(1, 0, 0, -1, -57, 811)"/>
<path fill="none" stroke-width="0.4" stroke-linecap="butt" stroke-linejoin="round" stroke="rgb(0%, 0%, 0%)" stroke-opacity="1" stroke-miterlimit="10" d="M 184 744 L 184 732 " transform="matrix(1, 0, 0, -1, -57, 811)"/>
<path fill="none" stroke-width="0.4" stroke-linecap="butt" stroke-linejoin="round" stroke="rgb(0%, 0%, 0%)" stroke-opacity="1" stroke-miterlimit="10" d="M 184 800 L 196 800 " transform="matrix(1, 0, 0, -1, -57, 811)"/>
<path fill="none" stroke-width="0.4" stroke-linecap="butt" stroke-linejoin="round" stroke="rgb(0%, 0%, 0%)" stroke-opacity="1" stroke-miterlimit="10" d="M 172 744 L 160 744 " transform="matrix(1, 0, 0, -1, -57, 811)"/>
<path fill="none" stroke-width="0.4" stroke-linecap="butt" stroke-linejoin="round" stroke="rgb(0%, 0%, 0%)" stroke-opacity="1" stroke-miterlimit="10" d="M 136 784 L 160 792 " transform="matrix(1, 0, 0, -1, -57, 811)"/>
<path fill-rule="evenodd" fill="rgb(0%, 0%, 0%)" fill-opacity="1" d="M 116.800781 11 C 116.800781 8.601563 113.199219 8.601563 113.199219 11 C 113.199219 13.398438 116.800781 13.398438 116.800781 11 Z M 116.800781 11 "/>
<path fill-rule="evenodd" fill="rgb(0%, 0%, 0%)" fill-opacity="1" d="M 116.800781 3 C 116.800781 0.601563 113.199219 0.601563 113.199219 3 C 113.199219 5.398438 116.800781 5.398438 116.800781 3 Z M 116.800781 3 "/>
<path fill="none" stroke-width="0.4" stroke-linecap="butt" stroke-linejoin="round" stroke="rgb(0%, 0%, 0%)" stroke-opacity="1" stroke-miterlimit="10" d="M 172 808 L 172 800 " transform="matrix(1, 0, 0, -1, -57, 811)"/>
<path fill="none" stroke-width="0.4" stroke-linecap="butt" stroke-linejoin="round" stroke="rgb(0%, 0%, 0%)" stroke-opacity="1" stroke-miterlimit="10" d="M 172 800 L 172 792 " transform="matrix(1, 0, 0, -1, -57, 811)"/>
</svg>
