<?xml version="1.0" encoding="UTF-8"?>
<svg xmlns="http://www.w3.org/2000/svg" xmlns:xlink="http://www.w3.org/1999/xlink" width="249" height="136" viewBox="0 0 249 136">
<defs>
<g>
<g id="glyph-0-0">
<path d="M 3.71875 -3.765625 C 3.53125 -4.140625 3.25 -4.40625 2.796875 -4.40625 C 1.640625 -4.40625 0.40625 -2.9375 0.40625 -1.484375 C 0.40625 -0.546875 0.953125 0.109375 1.71875 0.109375 C 1.921875 0.109375 2.421875 0.0625 3.015625 -0.640625 C 3.09375 -0.21875 3.453125 0.109375 3.921875 0.109375 C 4.28125 0.109375 4.5 -0.125 4.671875 -0.4375 C 4.828125 -0.796875 4.96875 -1.40625 4.96875 -1.421875 C 4.96875 -1.53125 4.875 -1.53125 4.84375 -1.53125 C 4.75 -1.53125 4.734375 -1.484375 4.703125 -1.34375 C 4.53125 -0.703125 4.359375 -0.109375 3.953125 -0.109375 C 3.671875 -0.109375 3.65625 -0.375 3.65625 -0.5625 C 3.65625 -0.78125 3.671875 -0.875 3.78125 -1.3125 C 3.890625 -1.71875 3.90625 -1.828125 4 -2.203125 L 4.359375 -3.59375 C 4.421875 -3.875 4.421875 -3.890625 4.421875 -3.9375 C 4.421875 -4.109375 4.3125 -4.203125 4.140625 -4.203125 C 3.890625 -4.203125 3.75 -3.984375 3.71875 -3.765625 Z M 3.078125 -1.1875 C 3.015625 -1 3.015625 -0.984375 2.875 -0.8125 C 2.4375 -0.265625 2.03125 -0.109375 1.75 -0.109375 C 1.25 -0.109375 1.109375 -0.65625 1.109375 -1.046875 C 1.109375 -1.546875 1.421875 -2.765625 1.65625 -3.234375 C 1.96875 -3.8125 2.40625 -4.1875 2.8125 -4.1875 C 3.453125 -4.1875 3.59375 -3.375 3.59375 -3.3125 C 3.59375 -3.25 3.578125 -3.1875 3.5625 -3.140625 Z M 3.078125 -1.1875 "/>
</g>
<g id="glyph-0-1">
<path d="M 3.953125 -3.78125 C 3.78125 -3.78125 3.65625 -3.78125 3.515625 -3.65625 C 3.34375 -3.5 3.328125 -3.328125 3.328125 -3.265625 C 3.328125 -3.015625 3.515625 -2.90625 3.703125 -2.90625 C 3.984375 -2.90625 4.25 -3.15625 4.25 -3.546875 C 4.25 -4.03125 3.78125 -4.40625 3.078125 -4.40625 C 1.734375 -4.40625 0.40625 -2.984375 0.40625 -1.578125 C 0.40625 -0.671875 0.984375 0.109375 2.03125 0.109375 C 3.453125 0.109375 4.28125 -0.953125 4.28125 -1.0625 C 4.28125 -1.125 4.234375 -1.203125 4.171875 -1.203125 C 4.109375 -1.203125 4.09375 -1.171875 4.03125 -1.09375 C 3.25 -0.109375 2.15625 -0.109375 2.046875 -0.109375 C 1.421875 -0.109375 1.140625 -0.59375 1.140625 -1.203125 C 1.140625 -1.609375 1.34375 -2.578125 1.6875 -3.1875 C 2 -3.765625 2.546875 -4.1875 3.09375 -4.1875 C 3.421875 -4.1875 3.8125 -4.0625 3.953125 -3.78125 Z M 3.953125 -3.78125 "/>
</g>
<g id="glyph-0-2">
<path d="M 1.859375 -2.296875 C 2.15625 -2.296875 2.890625 -2.328125 3.390625 -2.53125 C 4.09375 -2.828125 4.140625 -3.421875 4.140625 -3.5625 C 4.140625 -4 3.765625 -4.40625 3.078125 -4.40625 C 1.96875 -4.40625 0.453125 -3.4375 0.453125 -1.6875 C 0.453125 -0.671875 1.046875 0.109375 2.03125 0.109375 C 3.453125 0.109375 4.28125 -0.953125 4.28125 -1.0625 C 4.28125 -1.125 4.234375 -1.203125 4.171875 -1.203125 C 4.109375 -1.203125 4.09375 -1.171875 4.03125 -1.09375 C 3.25 -0.109375 2.15625 -0.109375 2.046875 -0.109375 C 1.265625 -0.109375 1.171875 -0.953125 1.171875 -1.265625 C 1.171875 -1.390625 1.1875 -1.6875 1.328125 -2.296875 Z M 1.390625 -2.515625 C 1.78125 -4.03125 2.8125 -4.1875 3.078125 -4.1875 C 3.53125 -4.1875 3.8125 -3.890625 3.8125 -3.5625 C 3.8125 -2.515625 2.21875 -2.515625 1.796875 -2.515625 Z M 1.390625 -2.515625 "/>
</g>
<g id="glyph-1-0">
<path d="M 2.375 -6.8125 C 2.375 -6.8125 2.375 -6.921875 2.25 -6.921875 C 2.03125 -6.921875 1.296875 -6.84375 1.03125 -6.8125 C 0.953125 -6.8125 0.84375 -6.796875 0.84375 -6.625 C 0.84375 -6.5 0.9375 -6.5 1.09375 -6.5 C 1.5625 -6.5 1.578125 -6.4375 1.578125 -6.328125 C 1.578125 -6.265625 1.5 -5.921875 1.453125 -5.71875 L 0.625 -2.46875 C 0.515625 -1.96875 0.46875 -1.796875 0.46875 -1.453125 C 0.46875 -0.515625 1 0.109375 1.734375 0.109375 C 2.90625 0.109375 4.140625 -1.375 4.140625 -2.8125 C 4.140625 -3.71875 3.609375 -4.40625 2.8125 -4.40625 C 2.359375 -4.40625 1.9375 -4.109375 1.640625 -3.8125 Z M 1.453125 -3.046875 C 1.5 -3.265625 1.5 -3.28125 1.59375 -3.390625 C 2.078125 -4.03125 2.53125 -4.1875 2.796875 -4.1875 C 3.15625 -4.1875 3.421875 -3.890625 3.421875 -3.25 C 3.421875 -2.65625 3.09375 -1.515625 2.90625 -1.140625 C 2.578125 -0.46875 2.125 -0.109375 1.734375 -0.109375 C 1.390625 -0.109375 1.0625 -0.375 1.0625 -1.109375 C 1.0625 -1.3125 1.0625 -1.5 1.21875 -2.125 Z M 1.453125 -3.046875 "/>
</g>
<g id="glyph-1-1">
<path d="M 5.140625 -6.8125 C 5.140625 -6.8125 5.140625 -6.921875 5.015625 -6.921875 C 4.859375 -6.921875 3.921875 -6.828125 3.75 -6.8125 C 3.671875 -6.796875 3.609375 -6.75 3.609375 -6.625 C 3.609375 -6.5 3.703125 -6.5 3.84375 -6.5 C 4.328125 -6.5 4.34375 -6.4375 4.34375 -6.328125 L 4.3125 -6.125 L 3.71875 -3.765625 C 3.53125 -4.140625 3.25 -4.40625 2.796875 -4.40625 C 1.640625 -4.40625 0.40625 -2.9375 0.40625 -1.484375 C 0.40625 -0.546875 0.953125 0.109375 1.71875 0.109375 C 1.921875 0.109375 2.421875 0.0625 3.015625 -0.640625 C 3.09375 -0.21875 3.453125 0.109375 3.921875 0.109375 C 4.28125 0.109375 4.5 -0.125 4.671875 -0.4375 C 4.828125 -0.796875 4.96875 -1.40625 4.96875 -1.421875 C 4.96875 -1.53125 4.875 -1.53125 4.84375 -1.53125 C 4.75 -1.53125 4.734375 -1.484375 4.703125 -1.34375 C 4.53125 -0.703125 4.359375 -0.109375 3.953125 -0.109375 C 3.671875 -0.109375 3.65625 -0.375 3.65625 -0.5625 C 3.65625 -0.8125 3.671875 -0.875 3.703125 -1.046875 Z M 3.078125 -1.1875 C 3.015625 -1 3.015625 -0.984375 2.875 -0.8125 C 2.4375 -0.265625 2.03125 -0.109375 1.75 -0.109375 C 1.25 -0.109375 1.109375 -0.65625 1.109375 -1.046875 C 1.109375 -1.546875 1.421875 -2.765625 1.65625 -3.234375 C 1.96875 -3.8125 2.40625 -4.1875 2.8125 -4.1875 C 3.453125 -4.1875 3.59375 -3.375 3.59375 -3.3125 C 3.59375 -3.25 3.578125 -3.1875 3.5625 -3.140625 Z M 3.078125 -1.1875 "/>
</g>
<g id="glyph-2-0">
<path d="M 3.296875 2.390625 C 3.296875 2.359375 3.296875 2.34375 3.125 2.171875 C 1.890625 0.921875 1.5625 -0.96875 1.5625 -2.5 C 1.5625 -4.234375 1.9375 -5.96875 3.171875 -7.203125 C 3.296875 -7.328125 3.296875 -7.34375 3.296875 -7.375 C 3.296875 -7.453125 3.265625 -7.484375 3.203125 -7.484375 C 3.09375 -7.484375 2.203125 -6.796875 1.609375 -5.53125 C 1.109375 -4.4375 0.984375 -3.328125 0.984375 -2.5 C 0.984375 -1.71875 1.09375 -0.515625 1.640625 0.625 C 2.25 1.84375 3.09375 2.5 3.203125 2.5 C 3.265625 2.5 3.296875 2.46875 3.296875 2.390625 Z M 3.296875 2.390625 "/>
</g>
<g id="glyph-3-0">
<path d="M 3.71875 -3.765625 C 3.53125 -4.140625 3.25 -4.40625 2.796875 -4.40625 C 1.640625 -4.40625 0.40625 -2.9375 0.40625 -1.484375 C 0.40625 -0.546875 0.953125 0.109375 1.71875 0.109375 C 1.921875 0.109375 2.421875 0.0625 3.015625 -0.640625 C 3.09375 -0.21875 3.453125 0.109375 3.921875 0.109375 C 4.28125 0.109375 4.5 -0.125 4.671875 -0.4375 C 4.828125 -0.796875 4.96875 -1.40625 4.96875 -1.421875 C 4.96875 -1.53125 4.875 -1.53125 4.84375 -1.53125 C 4.75 -1.53125 4.734375 -1.484375 4.703125 -1.34375 C 4.53125 -0.703125 4.359375 -0.109375 3.953125 -0.109375 C 3.671875 -0.109375 3.65625 -0.375 3.65625 -0.5625 C 3.65625 -0.78125 3.671875 -0.875 3.78125 -1.3125 C 3.890625 -1.71875 3.90625 -1.828125 4 -2.203125 L 4.359375 -3.59375 C 4.421875 -3.875 4.421875 -3.890625 4.421875 -3.9375 C 4.421875 -4.109375 4.3125 -4.203125 4.140625 -4.203125 C 3.890625 -4.203125 3.75 -3.984375 3.71875 -3.765625 Z M 3.078125 -1.1875 C 3.015625 -1 3.015625 -0.984375 2.875 -0.8125 C 2.4375 -0.265625 2.03125 -0.109375 1.75 -0.109375 C 1.25 -0.109375 1.109375 -0.65625 1.109375 -1.046875 C 1.109375 -1.546875 1.421875 -2.765625 1.65625 -3.234375 C 1.96875 -3.8125 2.40625 -4.1875 2.8125 -4.1875 C 3.453125 -4.1875 3.59375 -3.375 3.59375 -3.3125 C 3.59375 -3.25 3.578125 -3.1875 3.5625 -3.140625 Z M 3.078125 -1.1875 "/>
</g>
<g id="glyph-3-1">
<path d="M 2.03125 -0.015625 C 2.03125 -0.671875 1.78125 -1.0625 1.390625 -1.0625 C 1.0625 -1.0625 0.859375 -0.8125 0.859375 -0.53125 C 0.859375 -0.265625 1.0625 0 1.390625 0 C 1.5 0 1.640625 -0.046875 1.734375 -0.125 C 1.765625 -0.15625 1.78125 -0.15625 1.78125 -0.15625 C 1.796875 -0.15625 1.796875 -0.15625 1.796875 -0.015625 C 1.796875 0.734375 1.453125 1.328125 1.125 1.65625 C 1.015625 1.765625 1.015625 1.78125 1.015625 1.8125 C 1.015625 1.890625 1.0625 1.921875 1.109375 1.921875 C 1.21875 1.921875 2.03125 1.15625 2.03125 -0.015625 Z M 2.03125 -0.015625 "/>
</g>
<g id="glyph-3-2">
<path d="M 5.140625 -6.8125 C 5.140625 -6.8125 5.140625 -6.921875 5.015625 -6.921875 C 4.859375 -6.921875 3.921875 -6.828125 3.75 -6.8125 C 3.671875 -6.796875 3.609375 -6.75 3.609375 -6.625 C 3.609375 -6.5 3.703125 -6.5 3.84375 -6.5 C 4.328125 -6.5 4.34375 -6.4375 4.34375 -6.328125 L 4.3125 -6.125 L 3.71875 -3.765625 C 3.53125 -4.140625 3.25 -4.40625 2.796875 -4.40625 C 1.640625 -4.40625 0.40625 -2.9375 0.40625 -1.484375 C 0.40625 -0.546875 0.953125 0.109375 1.71875 0.109375 C 1.921875 0.109375 2.421875 0.0625 3.015625 -0.640625 C 3.09375 -0.21875 3.453125 0.109375 3.921875 0.109375 C 4.28125 0.109375 4.5 -0.125 4.671875 -0.4375 C 4.828125 -0.796875 4.96875 -1.40625 4.96875 -1.421875 C 4.96875 -1.53125 4.875 -1.53125 4.84375 -1.53125 C 4.75 -1.53125 4.734375 -1.484375 4.703125 -1.34375 C 4.53125 -0.703125 4.359375 -0.109375 3.953125 -0.109375 C 3.671875 -0.109375 3.65625 -0.375 3.65625 -0.5625 C 3.65625 -0.8125 3.671875 -0.875 3.703125 -1.046875 Z M 3.078125 -1.1875 C 3.015625 -1 3.015625 -0.984375 2.875 -0.8125 C 2.4375 -0.265625 2.03125 -0.109375 1.75 -0.109375 C 1.25 -0.109375 1.109375 -0.65625 1.109375 -1.046875 C 1.109375 -1.546875 1.421875 -2.765625 1.65625 -3.234375 C 1.96875 -3.8125 2.40625 -4.1875 2.8125 -4.1875 C 3.453125 -4.1875 3.59375 -3.375 3.59375 -3.3125 C 3.59375 -3.25 3.578125 -3.1875 3.5625 -3.140625 Z M 3.078125 -1.1875 "/>
</g>
<g id="glyph-3-3">
<path d="M 1.859375 -2.296875 C 2.15625 -2.296875 2.890625 -2.328125 3.390625 -2.53125 C 4.09375 -2.828125 4.140625 -3.421875 4.140625 -3.5625 C 4.140625 -4 3.765625 -4.40625 3.078125 -4.40625 C 1.96875 -4.40625 0.453125 -3.4375 0.453125 -1.6875 C 0.453125 -0.671875 1.046875 0.109375 2.03125 0.109375 C 3.453125 0.109375 4.28125 -0.953125 4.28125 -1.0625 C 4.28125 -1.125 4.234375 -1.203125 4.171875 -1.203125 C 4.109375 -1.203125 4.09375 -1.171875 4.03125 -1.09375 C 3.25 -0.109375 2.15625 -0.109375 2.046875 -0.109375 C 1.265625 -0.109375 1.171875 -0.953125 1.171875 -1.265625 C 1.171875 -1.390625 1.1875 -1.6875 1.328125 -2.296875 Z M 1.390625 -2.515625 C 1.78125 -4.03125 2.8125 -4.1875 3.078125 -4.1875 C 3.53125 -4.1875 3.8125 -3.890625 3.8125 -3.5625 C 3.8125 -2.515625 2.21875 -2.515625 1.796875 -2.515625 Z M 1.390625 -2.515625 "/>
</g>
<g id="glyph-4-0">
<path d="M 2.875 -2.5 C 2.875 -3.265625 2.765625 -4.46875 2.21875 -5.609375 C 1.625 -6.828125 0.765625 -7.484375 0.671875 -7.484375 C 0.609375 -7.484375 0.5625 -7.4375 0.5625 -7.375 C 0.5625 -7.34375 0.5625 -7.328125 0.75 -7.140625 C 1.734375 -6.15625 2.296875 -4.578125 2.296875 -2.5 C 2.296875 -0.78125 1.9375 0.96875 0.703125 2.21875 C 0.5625 2.34375 0.5625 2.359375 0.5625 2.390625 C 0.5625 2.453125 0.609375 2.5 0.671875 2.5 C 0.765625 2.5 1.671875 1.8125 2.25 0.546875 C 2.765625 -0.546875 2.875 -1.65625 2.875 -2.5 Z M 2.875 -2.5 "/>
</g>
<g id="glyph-5-0">
<path d="M 2.875 -2.5 C 2.875 -3.265625 2.765625 -4.46875 2.21875 -5.609375 C 1.625 -6.828125 0.765625 -7.484375 0.671875 -7.484375 C 0.609375 -7.484375 0.5625 -7.4375 0.5625 -7.375 C 0.5625 -7.34375 0.5625 -7.328125 0.75 -7.140625 C 1.734375 -6.15625 2.296875 -4.578125 2.296875 -2.5 C 2.296875 -0.78125 1.9375 0.96875 0.703125 2.21875 C 0.5625 2.34375 0.5625 2.359375 0.5625 2.390625 C 0.5625 2.453125 0.609375 2.5 0.671875 2.5 C 0.765625 2.5 1.671875 1.8125 2.25 0.546875 C 2.765625 -0.546875 2.875 -1.65625 2.875 -2.5 Z M 2.875 -2.5 "/>
</g>
<g id="glyph-6-0">
<path d="M 4.578125 -3.1875 C 4.578125 -3.984375 4.53125 -4.78125 4.1875 -5.515625 C 3.734375 -6.484375 2.90625 -6.640625 2.5 -6.640625 C 1.890625 -6.640625 1.171875 -6.375 0.75 -5.453125 C 0.4375 -4.765625 0.390625 -3.984375 0.390625 -3.1875 C 0.390625 -2.4375 0.421875 -1.546875 0.84375 -0.78125 C 1.265625 0.015625 2 0.21875 2.484375 0.21875 C 3.015625 0.21875 3.78125 0.015625 4.21875 -0.9375 C 4.53125 -1.625 4.578125 -2.40625 4.578125 -3.1875 Z M 2.484375 0 C 2.09375 0 1.5 -0.25 1.328125 -1.203125 C 1.21875 -1.796875 1.21875 -2.71875 1.21875 -3.3125 C 1.21875 -3.953125 1.21875 -4.609375 1.296875 -5.140625 C 1.484375 -6.328125 2.234375 -6.421875 2.484375 -6.421875 C 2.8125 -6.421875 3.46875 -6.234375 3.65625 -5.25 C 3.765625 -4.6875 3.765625 -3.9375 3.765625 -3.3125 C 3.765625 -2.5625 3.765625 -1.890625 3.65625 -1.25 C 3.5 -0.296875 2.9375 0 2.484375 0 Z M 2.484375 0 "/>
</g>
<g id="glyph-6-1">
<path d="M 2.9375 -6.375 C 2.9375 -6.625 2.9375 -6.640625 2.703125 -6.640625 C 2.078125 -6 1.203125 -6 0.890625 -6 L 0.890625 -5.6875 C 1.09375 -5.6875 1.671875 -5.6875 2.1875 -5.953125 L 2.1875 -0.78125 C 2.1875 -0.421875 2.15625 -0.3125 1.265625 -0.3125 L 0.953125 -0.3125 L 0.953125 0 C 1.296875 -0.03125 2.15625 -0.03125 2.5625 -0.03125 C 2.953125 -0.03125 3.828125 -0.03125 4.171875 0 L 4.171875 -0.3125 L 3.859375 -0.3125 C 2.953125 -0.3125 2.9375 -0.421875 2.9375 -0.78125 Z M 2.9375 -6.375 "/>
</g>
<g id="glyph-6-2">
<path d="M 1.265625 -0.765625 L 2.328125 -1.796875 C 3.875 -3.171875 4.46875 -3.703125 4.46875 -4.703125 C 4.46875 -5.84375 3.578125 -6.640625 2.359375 -6.640625 C 1.234375 -6.640625 0.5 -5.71875 0.5 -4.828125 C 0.5 -4.28125 1 -4.28125 1.03125 -4.28125 C 1.203125 -4.28125 1.546875 -4.390625 1.546875 -4.8125 C 1.546875 -5.0625 1.359375 -5.328125 1.015625 -5.328125 C 0.9375 -5.328125 0.921875 -5.328125 0.890625 -5.3125 C 1.109375 -5.96875 1.65625 -6.328125 2.234375 -6.328125 C 3.140625 -6.328125 3.5625 -5.515625 3.5625 -4.703125 C 3.5625 -3.90625 3.078125 -3.125 2.515625 -2.5 L 0.609375 -0.375 C 0.5 -0.265625 0.5 -0.234375 0.5 0 L 4.203125 0 L 4.46875 -1.734375 L 4.234375 -1.734375 C 4.171875 -1.4375 4.109375 -1 4 -0.84375 C 3.9375 -0.765625 3.28125 -0.765625 3.0625 -0.765625 Z M 1.265625 -0.765625 "/>
</g>
<g id="glyph-6-3">
<path d="M 2.890625 -3.515625 C 3.703125 -3.78125 4.28125 -4.46875 4.28125 -5.265625 C 4.28125 -6.078125 3.40625 -6.640625 2.453125 -6.640625 C 1.453125 -6.640625 0.6875 -6.046875 0.6875 -5.28125 C 0.6875 -4.953125 0.90625 -4.765625 1.203125 -4.765625 C 1.5 -4.765625 1.703125 -4.984375 1.703125 -5.28125 C 1.703125 -5.765625 1.234375 -5.765625 1.09375 -5.765625 C 1.390625 -6.265625 2.046875 -6.390625 2.40625 -6.390625 C 2.828125 -6.390625 3.375 -6.171875 3.375 -5.28125 C 3.375 -5.15625 3.34375 -4.578125 3.09375 -4.140625 C 2.796875 -3.65625 2.453125 -3.625 2.203125 -3.625 C 2.125 -3.609375 1.890625 -3.59375 1.8125 -3.59375 C 1.734375 -3.578125 1.671875 -3.5625 1.671875 -3.46875 C 1.671875 -3.359375 1.734375 -3.359375 1.90625 -3.359375 L 2.34375 -3.359375 C 3.15625 -3.359375 3.53125 -2.6875 3.53125 -1.703125 C 3.53125 -0.34375 2.84375 -0.0625 2.40625 -0.0625 C 1.96875 -0.0625 1.21875 -0.234375 0.875 -0.8125 C 1.21875 -0.765625 1.53125 -0.984375 1.53125 -1.359375 C 1.53125 -1.71875 1.265625 -1.921875 0.984375 -1.921875 C 0.734375 -1.921875 0.421875 -1.78125 0.421875 -1.34375 C 0.421875 -0.4375 1.34375 0.21875 2.4375 0.21875 C 3.65625 0.21875 4.5625 -0.6875 4.5625 -1.703125 C 4.5625 -2.515625 3.921875 -3.296875 2.890625 -3.515625 Z M 2.890625 -3.515625 "/>
</g>
<g id="glyph-6-4">
<path d="M 2.9375 -1.640625 L 2.9375 -0.78125 C 2.9375 -0.421875 2.90625 -0.3125 2.171875 -0.3125 L 1.96875 -0.3125 L 1.96875 0 C 2.375 -0.03125 2.890625 -0.03125 3.3125 -0.03125 C 3.734375 -0.03125 4.25 -0.03125 4.671875 0 L 4.671875 -0.3125 L 4.453125 -0.3125 C 3.71875 -0.3125 3.703125 -0.421875 3.703125 -0.78125 L 3.703125 -1.640625 L 4.6875 -1.640625 L 4.6875 -1.953125 L 3.703125 -1.953125 L 3.703125 -6.484375 C 3.703125 -6.6875 3.703125 -6.75 3.53125 -6.75 C 3.453125 -6.75 3.421875 -6.75 3.34375 -6.625 L 0.28125 -1.953125 L 0.28125 -1.640625 Z M 2.984375 -1.953125 L 0.5625 -1.953125 L 2.984375 -5.671875 Z M 2.984375 -1.953125 "/>
</g>
<g id="glyph-6-5">
<path d="M 4.46875 -2 C 4.46875 -3.1875 3.65625 -4.1875 2.578125 -4.1875 C 2.109375 -4.1875 1.671875 -4.03125 1.3125 -3.671875 L 1.3125 -5.625 C 1.515625 -5.5625 1.84375 -5.5 2.15625 -5.5 C 3.390625 -5.5 4.09375 -6.40625 4.09375 -6.53125 C 4.09375 -6.59375 4.0625 -6.640625 3.984375 -6.640625 C 3.984375 -6.640625 3.953125 -6.640625 3.90625 -6.609375 C 3.703125 -6.515625 3.21875 -6.3125 2.546875 -6.3125 C 2.15625 -6.3125 1.6875 -6.390625 1.21875 -6.59375 C 1.140625 -6.625 1.125 -6.625 1.109375 -6.625 C 1 -6.625 1 -6.546875 1 -6.390625 L 1 -3.4375 C 1 -3.265625 1 -3.1875 1.140625 -3.1875 C 1.21875 -3.1875 1.234375 -3.203125 1.28125 -3.265625 C 1.390625 -3.421875 1.75 -3.96875 2.5625 -3.96875 C 3.078125 -3.96875 3.328125 -3.515625 3.40625 -3.328125 C 3.5625 -2.953125 3.59375 -2.578125 3.59375 -2.078125 C 3.59375 -1.71875 3.59375 -1.125 3.34375 -0.703125 C 3.109375 -0.3125 2.734375 -0.0625 2.28125 -0.0625 C 1.5625 -0.0625 0.984375 -0.59375 0.8125 -1.171875 C 0.84375 -1.171875 0.875 -1.15625 0.984375 -1.15625 C 1.3125 -1.15625 1.484375 -1.40625 1.484375 -1.640625 C 1.484375 -1.890625 1.3125 -2.140625 0.984375 -2.140625 C 0.84375 -2.140625 0.5 -2.0625 0.5 -1.609375 C 0.5 -0.75 1.1875 0.21875 2.296875 0.21875 C 3.453125 0.21875 4.46875 -0.734375 4.46875 -2 Z M 4.46875 -2 "/>
</g>
<g id="glyph-6-6">
<path d="M 1.3125 -3.265625 L 1.3125 -3.515625 C 1.3125 -6.03125 2.546875 -6.390625 3.0625 -6.390625 C 3.296875 -6.390625 3.71875 -6.328125 3.9375 -5.984375 C 3.78125 -5.984375 3.390625 -5.984375 3.390625 -5.546875 C 3.390625 -5.234375 3.625 -5.078125 3.84375 -5.078125 C 4 -5.078125 4.3125 -5.171875 4.3125 -5.5625 C 4.3125 -6.15625 3.875 -6.640625 3.046875 -6.640625 C 1.765625 -6.640625 0.421875 -5.359375 0.421875 -3.15625 C 0.421875 -0.484375 1.578125 0.21875 2.5 0.21875 C 3.609375 0.21875 4.5625 -0.71875 4.5625 -2.03125 C 4.5625 -3.296875 3.671875 -4.25 2.5625 -4.25 C 1.890625 -4.25 1.515625 -3.75 1.3125 -3.265625 Z M 2.5 -0.0625 C 1.875 -0.0625 1.578125 -0.65625 1.515625 -0.8125 C 1.328125 -1.28125 1.328125 -2.078125 1.328125 -2.25 C 1.328125 -3.03125 1.65625 -4.03125 2.546875 -4.03125 C 2.71875 -4.03125 3.171875 -4.03125 3.484375 -3.40625 C 3.65625 -3.046875 3.65625 -2.53125 3.65625 -2.046875 C 3.65625 -1.5625 3.65625 -1.0625 3.484375 -0.703125 C 3.1875 -0.109375 2.734375 -0.0625 2.5 -0.0625 Z M 2.5 -0.0625 "/>
</g>
<g id="glyph-6-7">
<path d="M 4.75 -6.078125 C 4.828125 -6.1875 4.828125 -6.203125 4.828125 -6.421875 L 2.40625 -6.421875 C 1.203125 -6.421875 1.171875 -6.546875 1.140625 -6.734375 L 0.890625 -6.734375 L 0.5625 -4.6875 L 0.8125 -4.6875 C 0.84375 -4.84375 0.921875 -5.46875 1.0625 -5.59375 C 1.125 -5.65625 1.90625 -5.65625 2.03125 -5.65625 L 4.09375 -5.65625 C 3.984375 -5.5 3.203125 -4.40625 2.984375 -4.078125 C 2.078125 -2.734375 1.75 -1.34375 1.75 -0.328125 C 1.75 -0.234375 1.75 0.21875 2.21875 0.21875 C 2.671875 0.21875 2.671875 -0.234375 2.671875 -0.328125 L 2.671875 -0.84375 C 2.671875 -1.390625 2.703125 -1.9375 2.78125 -2.46875 C 2.828125 -2.703125 2.953125 -3.5625 3.40625 -4.171875 Z M 4.75 -6.078125 "/>
</g>
</g>
<clipPath id="clip-0">
<path clip-rule="nonzero" d="M 74 40.261719 L 79 40.261719 L 79 44.550781 L 74 44.550781 Z M 74 40.261719 "/>
</clipPath>
<clipPath id="clip-1">
<path clip-rule="nonzero" d="M 98 37.632813 L 102.191406 37.632813 L 102.191406 44.550781 L 98 44.550781 Z M 98 37.632813 "/>
</clipPath>
<clipPath id="clip-2">
<path clip-rule="nonzero" d="M 122 40.261719 L 126.226563 40.261719 L 126.226563 44.550781 L 122 44.550781 Z M 122 40.261719 "/>
</clipPath>
<clipPath id="clip-3">
<path clip-rule="nonzero" d="M 150 37.632813 L 155.097656 37.632813 L 155.097656 44.550781 L 150 44.550781 Z M 150 37.632813 "/>
</clipPath>
<clipPath id="clip-4">
<path clip-rule="nonzero" d="M 98 1.710938 L 102.640625 1.710938 L 102.640625 6 L 98 6 Z M 98 1.710938 "/>
</clipPath>
<clipPath id="clip-5">
<path clip-rule="nonzero" d="M 38 2.523438 L 42 2.523438 L 42 12.488281 L 38 12.488281 Z M 38 2.523438 "/>
</clipPath>
<clipPath id="clip-6">
<path clip-rule="nonzero" d="M 57 2.523438 L 60 2.523438 L 60 12.488281 L 57 12.488281 Z M 57 2.523438 "/>
</clipPath>
<clipPath id="clip-7">
<path clip-rule="nonzero" d="M 38 18.523438 L 42 18.523438 L 42 28.488281 L 38 28.488281 Z M 38 18.523438 "/>
</clipPath>
<clipPath id="clip-8">
<path clip-rule="nonzero" d="M 56 18.523438 L 60 18.523438 L 60 28.488281 L 56 28.488281 Z M 56 18.523438 "/>
</clipPath>
<clipPath id="clip-9">
<path clip-rule="nonzero" d="M 38 34.523438 L 42 34.523438 L 42 44.488281 L 38 44.488281 Z M 38 34.523438 "/>
</clipPath>
<clipPath id="clip-10">
<path clip-rule="nonzero" d="M 57 34.523438 L 60 34.523438 L 60 44.488281 L 57 44.488281 Z M 57 34.523438 "/>
</clipPath>
<clipPath id="clip-11">
<path clip-rule="nonzero" d="M 2 53.710938 L 6.640625 53.710938 L 6.640625 58 L 2 58 Z M 2 53.710938 "/>
</clipPath>
<clipPath id="clip-12">
<path clip-rule="nonzero" d="M 2 72.261719 L 7 72.261719 L 7 76.550781 L 2 76.550781 Z M 2 72.261719 "/>
</clipPath>
<clipPath id="clip-13">
<path clip-rule="nonzero" d="M 2 85.632813 L 6.191406 85.632813 L 6.191406 92.550781 L 2 92.550781 Z M 2 85.632813 "/>
</clipPath>
<clipPath id="clip-14">
<path clip-rule="nonzero" d="M 2 104.261719 L 6.226563 104.261719 L 6.226563 108.550781 L 2 108.550781 Z M 2 104.261719 "/>
</clipPath>
<clipPath id="clip-15">
<path clip-rule="nonzero" d="M 2 117.632813 L 7.097656 117.632813 L 7.097656 124.550781 L 2 124.550781 Z M 2 117.632813 "/>
</clipPath>
<clipPath id="clip-16">
<path clip-rule="nonzero" d="M 18 127.578125 L 22.980469 127.578125 L 22.980469 134 L 18 134 Z M 18 127.578125 "/>
</clipPath>
<clipPath id="clip-17">
<path clip-rule="nonzero" d="M 50 127.578125 L 54.980469 127.578125 L 54.980469 134 L 50 134 Z M 50 127.578125 "/>
</clipPath>
<clipPath id="clip-18">
<path clip-rule="nonzero" d="M 82 127.578125 L 86.980469 127.578125 L 86.980469 134 L 82 134 Z M 82 127.578125 "/>
</clipPath>
<clipPath id="clip-19">
<path clip-rule="nonzero" d="M 114 127.578125 L 118.980469 127.578125 L 118.980469 134 L 114 134 Z M 114 127.578125 "/>
</clipPath>
<clipPath id="clip-20">
<path clip-rule="nonzero" d="M 146 127.578125 L 150.980469 127.578125 L 150.980469 134 L 146 134 Z M 146 127.578125 "/>
</clipPath>
<clipPath id="clip-21">
<path clip-rule="nonzero" d="M 178 127.578125 L 182.980469 127.578125 L 182.980469 134 L 178 134 Z M 178 127.578125 "/>
</clipPath>
<clipPath id="clip-22">
<path clip-rule="nonzero" d="M 210 127.578125 L 214.980469 127.578125 L 214.980469 134 L 210 134 Z M 210 127.578125 "/>
</clipPath>
<clipPath id="clip-23">
<path clip-rule="nonzero" d="M 242 127.578125 L 246.980469 127.578125 L 246.980469 134 L 242 134 Z M 242 127.578125 "/>
</clipPath>
</defs>
<path fill-rule="evenodd" fill="rgb(0%, 0%, 0%)" fill-opacity="1" d="M 79.800781 34 C 79.800781 31.601563 76.199219 31.601563 76.199219 34 C 76.199219 36.398438 79.800781 36.398438 79.800781 34 Z M 79.800781 34 "/>
<path fill-rule="evenodd" fill="rgb(0%, 0%, 0%)" fill-opacity="1" d="M 103.800781 34 C 103.800781 31.601563 100.199219 31.601563 100.199219 34 C 100.199219 36.398438 103.800781 36.398438 103.800781 34 Z M 103.800781 34 "/>
<path fill-rule="evenodd" fill="rgb(0%, 0%, 0%)" fill-opacity="1" d="M 127.800781 34 C 127.800781 31.601563 124.199219 31.601563 124.199219 34 C 124.199219 36.398438 127.800781 36.398438 127.800781 34 Z M 127.800781 34 "/>
<path fill-rule="evenodd" fill="rgb(0%, 0%, 0%)" fill-opacity="1" d="M 151.800781 34 C 151.800781 31.601563 148.199219 31.601563 148.199219 34 C 148.199219 36.398438 151.800781 36.398438 151.800781 34 Z M 151.800781 34 "/>
<g clip-path="url(#clip-0)">
<g fill="rgb(0%, 0%, 0%)" fill-opacity="1">
<use xlink:href="#glyph-0-0" x="73.91347" y="44.55255"/>
</g>
</g>
<g clip-path="url(#clip-1)">
<g fill="rgb(0%, 0%, 0%)" fill-opacity="1">
<use xlink:href="#glyph-1-0" x="97.9135" y="44.55255"/>
</g>
</g>
<g clip-path="url(#clip-2)">
<g fill="rgb(0%, 0%, 0%)" fill-opacity="1">
<use xlink:href="#glyph-0-1" x="121.9135" y="44.55255"/>
</g>
</g>
<g clip-path="url(#clip-3)">
<g fill="rgb(0%, 0%, 0%)" fill-opacity="1">
<use xlink:href="#glyph-1-1" x="149.9135" y="44.55255"/>
</g>
</g>
<path fill-rule="evenodd" fill="rgb(0%, 0%, 0%)" fill-opacity="1" d="M 103.800781 10 C 103.800781 7.601563 100.199219 7.601563 100.199219 10 C 100.199219 12.398438 103.800781 12.398438 103.800781 10 Z M 103.800781 10 "/>
<g clip-path="url(#clip-4)">
<g fill="rgb(0%, 0%, 0%)" fill-opacity="1">
<use xlink:href="#glyph-0-2" x="98" y="6"/>
</g>
</g>
<path fill="none" stroke-width="1.2" stroke-linecap="butt" stroke-linejoin="round" stroke="rgb(0%, 0%, 0%)" stroke-opacity="1" stroke-miterlimit="10" d="M 128 784 L 152 784 " transform="matrix(1, 0, 0, -1, -50, 818)"/>
<path fill="none" stroke-width="1.2" stroke-linecap="butt" stroke-linejoin="round" stroke="rgb(0%, 0%, 0%)" stroke-opacity="1" stroke-miterlimit="10" d="M 152 784 L 176 784 " transform="matrix(1, 0, 0, -1, -50, 818)"/>
<path fill="none" stroke-width="1.2" stroke-linecap="butt" stroke-linejoin="round" stroke="rgb(0%, 0%, 0%)" stroke-opacity="1" stroke-miterlimit="10" d="M 176 784 L 200 784 " transform="matrix(1, 0, 0, -1, -50, 818)"/>
<path fill="none" stroke-width="1.2" stroke-linecap="butt" stroke-linejoin="round" stroke="rgb(0%, 0%, 0%)" stroke-opacity="1" stroke-miterlimit="10" d="M 152 784 L 152 808 " transform="matrix(1, 0, 0, -1, -50, 818)"/>
<g clip-path="url(#clip-5)">
<g fill="rgb(0%, 0%, 100%)" fill-opacity="1">
<use xlink:href="#glyph-2-0" x="38" y="9.999"/>
</g>
</g>
<g fill="rgb(0%, 0%, 100%)" fill-opacity="1">
<use xlink:href="#glyph-3-0" x="41.865489" y="9.999"/>
<use xlink:href="#glyph-3-1" x="47.125742" y="9.999"/>
<use xlink:href="#glyph-3-2" x="51.549136" y="9.999"/>
</g>
<g clip-path="url(#clip-6)">
<g fill="rgb(0%, 0%, 100%)" fill-opacity="1">
<use xlink:href="#glyph-4-0" x="56.729688" y="9.999"/>
</g>
</g>
<g clip-path="url(#clip-7)">
<g fill="rgb(100%, 54.9%, 0%)" fill-opacity="1">
<use xlink:href="#glyph-2-0" x="38" y="25.999"/>
</g>
</g>
<g fill="rgb(100%, 54.9%, 0%)" fill-opacity="1">
<use xlink:href="#glyph-3-0" x="41.865489" y="25.999"/>
<use xlink:href="#glyph-3-1" x="47.125742" y="25.999"/>
<use xlink:href="#glyph-3-3" x="51.549136" y="25.999"/>
</g>
<g clip-path="url(#clip-8)">
<g fill="rgb(100%, 54.9%, 0%)" fill-opacity="1">
<use xlink:href="#glyph-5-0" x="56.181745" y="25.999"/>
</g>
</g>
<g clip-path="url(#clip-9)">
<g fill="rgb(93.3%, 51%, 93.3%)" fill-opacity="1">
<use xlink:href="#glyph-2-0" x="38" y="41.999"/>
</g>
</g>
<g fill="rgb(93.3%, 51%, 93.3%)" fill-opacity="1">
<use xlink:href="#glyph-3-2" x="41.865489" y="41.999"/>
<use xlink:href="#glyph-3-1" x="47.046041" y="41.999"/>
<use xlink:href="#glyph-3-0" x="51.469435" y="41.999"/>
</g>
<g clip-path="url(#clip-10)">
<g fill="rgb(93.3%, 51%, 93.3%)" fill-opacity="1">
<use xlink:href="#glyph-4-0" x="56.729688" y="41.999"/>
</g>
</g>
<path fill-rule="evenodd" fill="rgb(0%, 0%, 100%)" fill-opacity="1" d="M 37 6 C 37 2 31 2 31 6 C 31 10 37 10 37 6 Z M 37 6 "/>
<path fill-rule="evenodd" fill="rgb(100%, 54.9%, 0%)" fill-opacity="1" d="M 37 22 C 37 18 31 18 31 22 C 31 26 37 26 37 22 Z M 37 22 "/>
<path fill-rule="evenodd" fill="rgb(93.3%, 51%, 93.3%)" fill-opacity="1" d="M 37 38 C 37 34 31 34 31 38 C 31 42 37 42 37 38 Z M 37 38 "/>
<path fill-rule="evenodd" fill="rgb(0%, 0%, 0%)" fill-opacity="1" d="M 23.800781 58 C 23.800781 55.601563 20.199219 55.601563 20.199219 58 C 20.199219 60.398438 23.800781 60.398438 23.800781 58 Z M 23.800781 58 "/>
<path fill-rule="evenodd" fill="rgb(0%, 0%, 0%)" fill-opacity="1" d="M 23.800781 74 C 23.800781 71.601563 20.199219 71.601563 20.199219 74 C 20.199219 76.398438 23.800781 76.398438 23.800781 74 Z M 23.800781 74 "/>
<path fill-rule="evenodd" fill="rgb(0%, 0%, 0%)" fill-opacity="1" d="M 23.800781 90 C 23.800781 87.601563 20.199219 87.601563 20.199219 90 C 20.199219 92.398438 23.800781 92.398438 23.800781 90 Z M 23.800781 90 "/>
<path fill-rule="evenodd" fill="rgb(0%, 0%, 0%)" fill-opacity="1" d="M 23.800781 106 C 23.800781 103.601563 20.199219 103.601563 20.199219 106 C 20.199219 108.398438 23.800781 108.398438 23.800781 106 Z M 23.800781 106 "/>
<path fill-rule="evenodd" fill="rgb(0%, 0%, 0%)" fill-opacity="1" d="M 23.800781 122 C 23.800781 119.601563 20.199219 119.601563 20.199219 122 C 20.199219 124.398438 23.800781 124.398438 23.800781 122 Z M 23.800781 122 "/>
<path fill-rule="evenodd" fill="rgb(0%, 0%, 0%)" fill-opacity="1" d="M 55.800781 58 C 55.800781 55.601563 52.199219 55.601563 52.199219 58 C 52.199219 60.398438 55.800781 60.398438 55.800781 58 Z M 55.800781 58 "/>
<path fill-rule="evenodd" fill="rgb(0%, 0%, 0%)" fill-opacity="1" d="M 55.800781 74 C 55.800781 71.601563 52.199219 71.601563 52.199219 74 C 52.199219 76.398438 55.800781 76.398438 55.800781 74 Z M 55.800781 74 "/>
<path fill-rule="evenodd" fill="rgb(0%, 0%, 0%)" fill-opacity="1" d="M 55.800781 90 C 55.800781 87.601563 52.199219 87.601563 52.199219 90 C 52.199219 92.398438 55.800781 92.398438 55.800781 90 Z M 55.800781 90 "/>
<path fill-rule="evenodd" fill="rgb(0%, 0%, 0%)" fill-opacity="1" d="M 55.800781 106 C 55.800781 103.601563 52.199219 103.601563 52.199219 106 C 52.199219 108.398438 55.800781 108.398438 55.800781 106 Z M 55.800781 106 "/>
<path fill-rule="evenodd" fill="rgb(0%, 0%, 0%)" fill-opacity="1" d="M 55.800781 122 C 55.800781 119.601563 52.199219 119.601563 52.199219 122 C 52.199219 124.398438 55.800781 124.398438 55.800781 122 Z M 55.800781 122 "/>
<path fill-rule="evenodd" fill="rgb(0%, 0%, 0%)" fill-opacity="1" d="M 39.800781 66 C 39.800781 63.601563 36.199219 63.601563 36.199219 66 C 36.199219 68.398438 39.800781 68.398438 39.800781 66 Z M 39.800781 66 "/>
<path fill-rule="evenodd" fill="rgb(0%, 0%, 0%)" fill-opacity="1" d="M 39.800781 82 C 39.800781 79.601563 36.199219 79.601563 36.199219 82 C 36.199219 84.398438 39.800781 84.398438 39.800781 82 Z M 39.800781 82 "/>
<path fill-rule="evenodd" fill="rgb(0%, 0%, 0%)" fill-opacity="1" d="M 39.800781 98 C 39.800781 95.601563 36.199219 95.601563 36.199219 98 C 36.199219 100.398438 39.800781 100.398438 39.800781 98 Z M 39.800781 98 "/>
<path fill-rule="evenodd" fill="rgb(0%, 0%, 0%)" fill-opacity="1" d="M 39.800781 114 C 39.800781 111.601563 36.199219 111.601563 36.199219 114 C 36.199219 116.398438 39.800781 116.398438 39.800781 114 Z M 39.800781 114 "/>
<path fill="none" stroke-width="1.2" stroke-linecap="butt" stroke-linejoin="round" stroke="rgb(0%, 0%, 0%)" stroke-opacity="1" stroke-miterlimit="10" d="M 72 760 L 104 760 " transform="matrix(1, 0, 0, -1, -50, 818)"/>
<path fill="none" stroke-width="1.2" stroke-linecap="butt" stroke-linejoin="round" stroke="rgb(0%, 0%, 0%)" stroke-opacity="1" stroke-miterlimit="10" d="M 72 744 L 104 744 " transform="matrix(1, 0, 0, -1, -50, 818)"/>
<path fill="none" stroke-width="1.2" stroke-linecap="butt" stroke-linejoin="round" stroke="rgb(0%, 0%, 0%)" stroke-opacity="1" stroke-miterlimit="10" d="M 72 728 L 104 728 " transform="matrix(1, 0, 0, -1, -50, 818)"/>
<path fill="none" stroke-width="1.2" stroke-linecap="butt" stroke-linejoin="round" stroke="rgb(0%, 0%, 0%)" stroke-opacity="1" stroke-miterlimit="10" d="M 72 712 L 104 712 " transform="matrix(1, 0, 0, -1, -50, 818)"/>
<path fill="none" stroke-width="1.2" stroke-linecap="butt" stroke-linejoin="round" stroke="rgb(0%, 0%, 0%)" stroke-opacity="1" stroke-miterlimit="10" d="M 72 696 L 104 696 " transform="matrix(1, 0, 0, -1, -50, 818)"/>
<path fill="none" stroke-width="1.2" stroke-linecap="butt" stroke-linejoin="round" stroke="rgb(0%, 0%, 0%)" stroke-opacity="1" stroke-miterlimit="10" d="M 72 696 L 88 704 " transform="matrix(1, 0, 0, -1, -50, 818)"/>
<path fill="none" stroke-width="1.2" stroke-linecap="butt" stroke-linejoin="round" stroke="rgb(0%, 0%, 0%)" stroke-opacity="1" stroke-miterlimit="10" d="M 88 704 L 104 696 " transform="matrix(1, 0, 0, -1, -50, 818)"/>
<path fill="none" stroke-width="1.2" stroke-linecap="butt" stroke-linejoin="round" stroke="rgb(0%, 0%, 0%)" stroke-opacity="1" stroke-miterlimit="10" d="M 88 704 L 104 712 " transform="matrix(1, 0, 0, -1, -50, 818)"/>
<path fill="none" stroke-width="1.2" stroke-linecap="butt" stroke-linejoin="round" stroke="rgb(0%, 0%, 0%)" stroke-opacity="1" stroke-miterlimit="10" d="M 72 712 L 88 704 " transform="matrix(1, 0, 0, -1, -50, 818)"/>
<path fill="none" stroke-width="1.2" stroke-linecap="butt" stroke-linejoin="round" stroke="rgb(0%, 0%, 0%)" stroke-opacity="1" stroke-miterlimit="10" d="M 72 712 L 88 720 " transform="matrix(1, 0, 0, -1, -50, 818)"/>
<path fill="none" stroke-width="1.2" stroke-linecap="butt" stroke-linejoin="round" stroke="rgb(0%, 0%, 0%)" stroke-opacity="1" stroke-miterlimit="10" d="M 88 720 L 104 728 " transform="matrix(1, 0, 0, -1, -50, 818)"/>
<path fill="none" stroke-width="1.2" stroke-linecap="butt" stroke-linejoin="round" stroke="rgb(0%, 0%, 0%)" stroke-opacity="1" stroke-miterlimit="10" d="M 72 728 L 88 720 " transform="matrix(1, 0, 0, -1, -50, 818)"/>
<path fill="none" stroke-width="1.2" stroke-linecap="butt" stroke-linejoin="round" stroke="rgb(0%, 0%, 0%)" stroke-opacity="1" stroke-miterlimit="10" d="M 88 720 L 104 712 " transform="matrix(1, 0, 0, -1, -50, 818)"/>
<path fill="none" stroke-width="1.2" stroke-linecap="butt" stroke-linejoin="round" stroke="rgb(0%, 0%, 0%)" stroke-opacity="1" stroke-miterlimit="10" d="M 72 728 L 88 736 " transform="matrix(1, 0, 0, -1, -50, 818)"/>
<path fill="none" stroke-width="1.2" stroke-linecap="butt" stroke-linejoin="round" stroke="rgb(0%, 0%, 0%)" stroke-opacity="1" stroke-miterlimit="10" d="M 88 736 L 104 744 " transform="matrix(1, 0, 0, -1, -50, 818)"/>
<path fill="none" stroke-width="1.2" stroke-linecap="butt" stroke-linejoin="round" stroke="rgb(0%, 0%, 0%)" stroke-opacity="1" stroke-miterlimit="10" d="M 72 744 L 88 736 " transform="matrix(1, 0, 0, -1, -50, 818)"/>
<path fill="none" stroke-width="1.2" stroke-linecap="butt" stroke-linejoin="round" stroke="rgb(0%, 0%, 0%)" stroke-opacity="1" stroke-miterlimit="10" d="M 88 736 L 104 728 " transform="matrix(1, 0, 0, -1, -50, 818)"/>
<path fill="none" stroke-width="1.2" stroke-linecap="butt" stroke-linejoin="round" stroke="rgb(0%, 0%, 0%)" stroke-opacity="1" stroke-miterlimit="10" d="M 72 760 L 88 752 " transform="matrix(1, 0, 0, -1, -50, 818)"/>
<path fill="none" stroke-width="1.2" stroke-linecap="butt" stroke-linejoin="round" stroke="rgb(0%, 0%, 0%)" stroke-opacity="1" stroke-miterlimit="10" d="M 88 752 L 104 728 " transform="matrix(1, 0, 0, -1, -50, 818)"/>
<path fill="none" stroke-width="1.2" stroke-linecap="butt" stroke-linejoin="round" stroke="rgb(0%, 0%, 0%)" stroke-opacity="1" stroke-miterlimit="10" d="M 72 728 L 88 752 " transform="matrix(1, 0, 0, -1, -50, 818)"/>
<path fill="none" stroke-width="1.2" stroke-linecap="butt" stroke-linejoin="round" stroke="rgb(0%, 0%, 0%)" stroke-opacity="1" stroke-miterlimit="10" d="M 88 752 L 104 760 " transform="matrix(1, 0, 0, -1, -50, 818)"/>
<g clip-path="url(#clip-11)">
<g fill="rgb(0%, 0%, 0%)" fill-opacity="1">
<use xlink:href="#glyph-0-2" x="2" y="58"/>
</g>
</g>
<g clip-path="url(#clip-12)">
<g fill="rgb(0%, 0%, 0%)" fill-opacity="1">
<use xlink:href="#glyph-0-0" x="1.91347" y="76.55255"/>
</g>
</g>
<g clip-path="url(#clip-13)">
<g fill="rgb(0%, 0%, 0%)" fill-opacity="1">
<use xlink:href="#glyph-1-0" x="1.9135" y="92.55255"/>
</g>
</g>
<g clip-path="url(#clip-14)">
<g fill="rgb(0%, 0%, 0%)" fill-opacity="1">
<use xlink:href="#glyph-0-1" x="1.9135" y="108.55255"/>
</g>
</g>
<g clip-path="url(#clip-15)">
<g fill="rgb(0%, 0%, 0%)" fill-opacity="1">
<use xlink:href="#glyph-1-1" x="1.9135" y="124.55255"/>
</g>
</g>
<path fill-rule="evenodd" fill="rgb(0%, 0%, 0%)" fill-opacity="1" d="M 55.800781 58 C 55.800781 55.601563 52.199219 55.601563 52.199219 58 C 52.199219 60.398438 55.800781 60.398438 55.800781 58 Z M 55.800781 58 "/>
<path fill-rule="evenodd" fill="rgb(0%, 0%, 0%)" fill-opacity="1" d="M 55.800781 74 C 55.800781 71.601563 52.199219 71.601563 52.199219 74 C 52.199219 76.398438 55.800781 76.398438 55.800781 74 Z M 55.800781 74 "/>
<path fill-rule="evenodd" fill="rgb(0%, 0%, 0%)" fill-opacity="1" d="M 55.800781 90 C 55.800781 87.601563 52.199219 87.601563 52.199219 90 C 52.199219 92.398438 55.800781 92.398438 55.800781 90 Z M 55.800781 90 "/>
<path fill-rule="evenodd" fill="rgb(0%, 0%, 0%)" fill-opacity="1" d="M 55.800781 106 C 55.800781 103.601563 52.199219 103.601563 52.199219 106 C 52.199219 108.398438 55.800781 108.398438 55.800781 106 Z M 55.800781 106 "/>
<path fill-rule="evenodd" fill="rgb(0%, 0%, 0%)" fill-opacity="1" d="M 55.800781 122 C 55.800781 119.601563 52.199219 119.601563 52.199219 122 C 52.199219 124.398438 55.800781 124.398438 55.800781 122 Z M 55.800781 122 "/>
<path fill-rule="evenodd" fill="rgb(0%, 0%, 0%)" fill-opacity="1" d="M 87.800781 58 C 87.800781 55.601563 84.199219 55.601563 84.199219 58 C 84.199219 60.398438 87.800781 60.398438 87.800781 58 Z M 87.800781 58 "/>
<path fill-rule="evenodd" fill="rgb(0%, 0%, 0%)" fill-opacity="1" d="M 87.800781 74 C 87.800781 71.601563 84.199219 71.601563 84.199219 74 C 84.199219 76.398438 87.800781 76.398438 87.800781 74 Z M 87.800781 74 "/>
<path fill-rule="evenodd" fill="rgb(0%, 0%, 0%)" fill-opacity="1" d="M 87.800781 90 C 87.800781 87.601563 84.199219 87.601563 84.199219 90 C 84.199219 92.398438 87.800781 92.398438 87.800781 90 Z M 87.800781 90 "/>
<path fill-rule="evenodd" fill="rgb(0%, 0%, 0%)" fill-opacity="1" d="M 87.800781 106 C 87.800781 103.601563 84.199219 103.601563 84.199219 106 C 84.199219 108.398438 87.800781 108.398438 87.800781 106 Z M 87.800781 106 "/>
<path fill-rule="evenodd" fill="rgb(0%, 0%, 0%)" fill-opacity="1" d="M 87.800781 122 C 87.800781 119.601563 84.199219 119.601563 84.199219 122 C 84.199219 124.398438 87.800781 124.398438 87.800781 122 Z M 87.800781 122 "/>
<path fill-rule="evenodd" fill="rgb(0%, 0%, 0%)" fill-opacity="1" d="M 71.800781 66 C 71.800781 63.601563 68.199219 63.601563 68.199219 66 C 68.199219 68.398438 71.800781 68.398438 71.800781 66 Z M 71.800781 66 "/>
<path fill-rule="evenodd" fill="rgb(0%, 0%, 0%)" fill-opacity="1" d="M 71.800781 82 C 71.800781 79.601563 68.199219 79.601563 68.199219 82 C 68.199219 84.398438 71.800781 84.398438 71.800781 82 Z M 71.800781 82 "/>
<path fill-rule="evenodd" fill="rgb(0%, 0%, 0%)" fill-opacity="1" d="M 71.800781 98 C 71.800781 95.601563 68.199219 95.601563 68.199219 98 C 68.199219 100.398438 71.800781 100.398438 71.800781 98 Z M 71.800781 98 "/>
<path fill-rule="evenodd" fill="rgb(0%, 0%, 0%)" fill-opacity="1" d="M 71.800781 114 C 71.800781 111.601563 68.199219 111.601563 68.199219 114 C 68.199219 116.398438 71.800781 116.398438 71.800781 114 Z M 71.800781 114 "/>
<path fill="none" stroke-width="1.2" stroke-linecap="butt" stroke-linejoin="round" stroke="rgb(0%, 0%, 0%)" stroke-opacity="1" stroke-miterlimit="10" d="M 104 760 L 136 760 " transform="matrix(1, 0, 0, -1, -50, 818)"/>
<path fill="none" stroke-width="1.2" stroke-linecap="butt" stroke-linejoin="round" stroke="rgb(0%, 0%, 0%)" stroke-opacity="1" stroke-miterlimit="10" d="M 104 744 L 136 744 " transform="matrix(1, 0, 0, -1, -50, 818)"/>
<path fill="none" stroke-width="1.2" stroke-linecap="butt" stroke-linejoin="round" stroke="rgb(0%, 0%, 0%)" stroke-opacity="1" stroke-miterlimit="10" d="M 104 728 L 136 728 " transform="matrix(1, 0, 0, -1, -50, 818)"/>
<path fill="none" stroke-width="1.2" stroke-linecap="butt" stroke-linejoin="round" stroke="rgb(0%, 0%, 0%)" stroke-opacity="1" stroke-miterlimit="10" d="M 104 712 L 136 712 " transform="matrix(1, 0, 0, -1, -50, 818)"/>
<path fill="none" stroke-width="1.2" stroke-linecap="butt" stroke-linejoin="round" stroke="rgb(0%, 0%, 0%)" stroke-opacity="1" stroke-miterlimit="10" d="M 104 696 L 136 696 " transform="matrix(1, 0, 0, -1, -50, 818)"/>
<path fill="none" stroke-width="1.2" stroke-linecap="butt" stroke-linejoin="round" stroke="rgb(0%, 0%, 0%)" stroke-opacity="1" stroke-miterlimit="10" d="M 104 696 L 120 704 " transform="matrix(1, 0, 0, -1, -50, 818)"/>
<path fill="none" stroke-width="1.2" stroke-linecap="butt" stroke-linejoin="round" stroke="rgb(0%, 0%, 0%)" stroke-opacity="1" stroke-miterlimit="10" d="M 120 704 L 136 696 " transform="matrix(1, 0, 0, -1, -50, 818)"/>
<path fill="none" stroke-width="1.2" stroke-linecap="butt" stroke-linejoin="round" stroke="rgb(0%, 0%, 0%)" stroke-opacity="1" stroke-miterlimit="10" d="M 120 704 L 136 712 " transform="matrix(1, 0, 0, -1, -50, 818)"/>
<path fill="none" stroke-width="1.2" stroke-linecap="butt" stroke-linejoin="round" stroke="rgb(0%, 0%, 0%)" stroke-opacity="1" stroke-miterlimit="10" d="M 104 712 L 120 704 " transform="matrix(1, 0, 0, -1, -50, 818)"/>
<path fill="none" stroke-width="1.2" stroke-linecap="butt" stroke-linejoin="round" stroke="rgb(0%, 0%, 0%)" stroke-opacity="1" stroke-miterlimit="10" d="M 104 712 L 120 720 " transform="matrix(1, 0, 0, -1, -50, 818)"/>
<path fill="none" stroke-width="1.2" stroke-linecap="butt" stroke-linejoin="round" stroke="rgb(0%, 0%, 0%)" stroke-opacity="1" stroke-miterlimit="10" d="M 120 720 L 136 728 " transform="matrix(1, 0, 0, -1, -50, 818)"/>
<path fill="none" stroke-width="1.2" stroke-linecap="butt" stroke-linejoin="round" stroke="rgb(0%, 0%, 0%)" stroke-opacity="1" stroke-miterlimit="10" d="M 104 728 L 120 720 " transform="matrix(1, 0, 0, -1, -50, 818)"/>
<path fill="none" stroke-width="1.2" stroke-linecap="butt" stroke-linejoin="round" stroke="rgb(0%, 0%, 0%)" stroke-opacity="1" stroke-miterlimit="10" d="M 120 720 L 136 712 " transform="matrix(1, 0, 0, -1, -50, 818)"/>
<path fill="none" stroke-width="1.2" stroke-linecap="butt" stroke-linejoin="round" stroke="rgb(0%, 0%, 0%)" stroke-opacity="1" stroke-miterlimit="10" d="M 104 728 L 120 736 " transform="matrix(1, 0, 0, -1, -50, 818)"/>
<path fill="none" stroke-width="1.2" stroke-linecap="butt" stroke-linejoin="round" stroke="rgb(0%, 0%, 0%)" stroke-opacity="1" stroke-miterlimit="10" d="M 120 736 L 136 744 " transform="matrix(1, 0, 0, -1, -50, 818)"/>
<path fill="none" stroke-width="1.2" stroke-linecap="butt" stroke-linejoin="round" stroke="rgb(0%, 0%, 0%)" stroke-opacity="1" stroke-miterlimit="10" d="M 104 744 L 120 736 " transform="matrix(1, 0, 0, -1, -50, 818)"/>
<path fill="none" stroke-width="1.2" stroke-linecap="butt" stroke-linejoin="round" stroke="rgb(0%, 0%, 0%)" stroke-opacity="1" stroke-miterlimit="10" d="M 120 736 L 136 728 " transform="matrix(1, 0, 0, -1, -50, 818)"/>
<path fill="none" stroke-width="1.2" stroke-linecap="butt" stroke-linejoin="round" stroke="rgb(0%, 0%, 0%)" stroke-opacity="1" stroke-miterlimit="10" d="M 104 760 L 120 752 " transform="matrix(1, 0, 0, -1, -50, 818)"/>
<path fill="none" stroke-width="1.2" stroke-linecap="butt" stroke-linejoin="round" stroke="rgb(0%, 0%, 0%)" stroke-opacity="1" stroke-miterlimit="10" d="M 120 752 L 136 728 " transform="matrix(1, 0, 0, -1, -50, 818)"/>
<path fill="none" stroke-width="1.2" stroke-linecap="butt" stroke-linejoin="round" stroke="rgb(0%, 0%, 0%)" stroke-opacity="1" stroke-miterlimit="10" d="M 104 728 L 120 752 " transform="matrix(1, 0, 0, -1, -50, 818)"/>
<path fill="none" stroke-width="1.2" stroke-linecap="butt" stroke-linejoin="round" stroke="rgb(0%, 0%, 0%)" stroke-opacity="1" stroke-miterlimit="10" d="M 120 752 L 136 760 " transform="matrix(1, 0, 0, -1, -50, 818)"/>
<path fill-rule="evenodd" fill="rgb(0%, 0%, 0%)" fill-opacity="1" d="M 87.800781 58 C 87.800781 55.601563 84.199219 55.601563 84.199219 58 C 84.199219 60.398438 87.800781 60.398438 87.800781 58 Z M 87.800781 58 "/>
<path fill-rule="evenodd" fill="rgb(0%, 0%, 0%)" fill-opacity="1" d="M 87.800781 74 C 87.800781 71.601563 84.199219 71.601563 84.199219 74 C 84.199219 76.398438 87.800781 76.398438 87.800781 74 Z M 87.800781 74 "/>
<path fill-rule="evenodd" fill="rgb(0%, 0%, 0%)" fill-opacity="1" d="M 87.800781 90 C 87.800781 87.601563 84.199219 87.601563 84.199219 90 C 84.199219 92.398438 87.800781 92.398438 87.800781 90 Z M 87.800781 90 "/>
<path fill-rule="evenodd" fill="rgb(0%, 0%, 0%)" fill-opacity="1" d="M 87.800781 106 C 87.800781 103.601563 84.199219 103.601563 84.199219 106 C 84.199219 108.398438 87.800781 108.398438 87.800781 106 Z M 87.800781 106 "/>
<path fill-rule="evenodd" fill="rgb(0%, 0%, 0%)" fill-opacity="1" d="M 87.800781 122 C 87.800781 119.601563 84.199219 119.601563 84.199219 122 C 84.199219 124.398438 87.800781 124.398438 87.800781 122 Z M 87.800781 122 "/>
<path fill-rule="evenodd" fill="rgb(0%, 0%, 0%)" fill-opacity="1" d="M 119.800781 58 C 119.800781 55.601563 116.199219 55.601563 116.199219 58 C 116.199219 60.398438 119.800781 60.398438 119.800781 58 Z M 119.800781 58 "/>
<path fill-rule="evenodd" fill="rgb(0%, 0%, 0%)" fill-opacity="1" d="M 119.800781 74 C 119.800781 71.601563 116.199219 71.601563 116.199219 74 C 116.199219 76.398438 119.800781 76.398438 119.800781 74 Z M 119.800781 74 "/>
<path fill-rule="evenodd" fill="rgb(0%, 0%, 0%)" fill-opacity="1" d="M 119.800781 90 C 119.800781 87.601563 116.199219 87.601563 116.199219 90 C 116.199219 92.398438 119.800781 92.398438 119.800781 90 Z M 119.800781 90 "/>
<path fill-rule="evenodd" fill="rgb(0%, 0%, 0%)" fill-opacity="1" d="M 119.800781 106 C 119.800781 103.601563 116.199219 103.601563 116.199219 106 C 116.199219 108.398438 119.800781 108.398438 119.800781 106 Z M 119.800781 106 "/>
<path fill-rule="evenodd" fill="rgb(0%, 0%, 0%)" fill-opacity="1" d="M 119.800781 122 C 119.800781 119.601563 116.199219 119.601563 116.199219 122 C 116.199219 124.398438 119.800781 124.398438 119.800781 122 Z M 119.800781 122 "/>
<path fill-rule="evenodd" fill="rgb(0%, 0%, 0%)" fill-opacity="1" d="M 103.800781 66 C 103.800781 63.601563 100.199219 63.601563 100.199219 66 C 100.199219 68.398438 103.800781 68.398438 103.800781 66 Z M 103.800781 66 "/>
<path fill-rule="evenodd" fill="rgb(0%, 0%, 0%)" fill-opacity="1" d="M 103.800781 82 C 103.800781 79.601563 100.199219 79.601563 100.199219 82 C 100.199219 84.398438 103.800781 84.398438 103.800781 82 Z M 103.800781 82 "/>
<path fill-rule="evenodd" fill="rgb(0%, 0%, 0%)" fill-opacity="1" d="M 103.800781 98 C 103.800781 95.601563 100.199219 95.601563 100.199219 98 C 100.199219 100.398438 103.800781 100.398438 103.800781 98 Z M 103.800781 98 "/>
<path fill-rule="evenodd" fill="rgb(0%, 0%, 0%)" fill-opacity="1" d="M 103.800781 114 C 103.800781 111.601563 100.199219 111.601563 100.199219 114 C 100.199219 116.398438 103.800781 116.398438 103.800781 114 Z M 103.800781 114 "/>
<path fill="none" stroke-width="1.2" stroke-linecap="butt" stroke-linejoin="round" stroke="rgb(0%, 0%, 0%)" stroke-opacity="1" stroke-miterlimit="10" d="M 136 760 L 168 760 " transform="matrix(1, 0, 0, -1, -50, 818)"/>
<path fill="none" stroke-width="1.2" stroke-linecap="butt" stroke-linejoin="round" stroke="rgb(0%, 0%, 0%)" stroke-opacity="1" stroke-miterlimit="10" d="M 136 744 L 168 744 " transform="matrix(1, 0, 0, -1, -50, 818)"/>
<path fill="none" stroke-width="1.2" stroke-linecap="butt" stroke-linejoin="round" stroke="rgb(0%, 0%, 0%)" stroke-opacity="1" stroke-miterlimit="10" d="M 136 728 L 168 728 " transform="matrix(1, 0, 0, -1, -50, 818)"/>
<path fill="none" stroke-width="1.2" stroke-linecap="butt" stroke-linejoin="round" stroke="rgb(0%, 0%, 0%)" stroke-opacity="1" stroke-miterlimit="10" d="M 136 712 L 168 712 " transform="matrix(1, 0, 0, -1, -50, 818)"/>
<path fill="none" stroke-width="1.2" stroke-linecap="butt" stroke-linejoin="round" stroke="rgb(0%, 0%, 0%)" stroke-opacity="1" stroke-miterlimit="10" d="M 136 696 L 168 696 " transform="matrix(1, 0, 0, -1, -50, 818)"/>
<path fill="none" stroke-width="1.2" stroke-linecap="butt" stroke-linejoin="round" stroke="rgb(0%, 0%, 0%)" stroke-opacity="1" stroke-miterlimit="10" d="M 136 696 L 152 704 " transform="matrix(1, 0, 0, -1, -50, 818)"/>
<path fill="none" stroke-width="1.2" stroke-linecap="butt" stroke-linejoin="round" stroke="rgb(0%, 0%, 0%)" stroke-opacity="1" stroke-miterlimit="10" d="M 152 704 L 168 696 " transform="matrix(1, 0, 0, -1, -50, 818)"/>
<path fill="none" stroke-width="1.2" stroke-linecap="butt" stroke-linejoin="round" stroke="rgb(0%, 0%, 0%)" stroke-opacity="1" stroke-miterlimit="10" d="M 152 704 L 168 712 " transform="matrix(1, 0, 0, -1, -50, 818)"/>
<path fill="none" stroke-width="1.2" stroke-linecap="butt" stroke-linejoin="round" stroke="rgb(0%, 0%, 0%)" stroke-opacity="1" stroke-miterlimit="10" d="M 136 712 L 152 704 " transform="matrix(1, 0, 0, -1, -50, 818)"/>
<path fill="none" stroke-width="1.2" stroke-linecap="butt" stroke-linejoin="round" stroke="rgb(0%, 0%, 0%)" stroke-opacity="1" stroke-miterlimit="10" d="M 136 712 L 152 720 " transform="matrix(1, 0, 0, -1, -50, 818)"/>
<path fill="none" stroke-width="1.2" stroke-linecap="butt" stroke-linejoin="round" stroke="rgb(0%, 0%, 0%)" stroke-opacity="1" stroke-miterlimit="10" d="M 152 720 L 168 728 " transform="matrix(1, 0, 0, -1, -50, 818)"/>
<path fill="none" stroke-width="1.2" stroke-linecap="butt" stroke-linejoin="round" stroke="rgb(0%, 0%, 0%)" stroke-opacity="1" stroke-miterlimit="10" d="M 136 728 L 152 720 " transform="matrix(1, 0, 0, -1, -50, 818)"/>
<path fill="none" stroke-width="1.2" stroke-linecap="butt" stroke-linejoin="round" stroke="rgb(0%, 0%, 0%)" stroke-opacity="1" stroke-miterlimit="10" d="M 152 720 L 168 712 " transform="matrix(1, 0, 0, -1, -50, 818)"/>
<path fill="none" stroke-width="1.2" stroke-linecap="butt" stroke-linejoin="round" stroke="rgb(0%, 0%, 0%)" stroke-opacity="1" stroke-miterlimit="10" d="M 136 728 L 152 736 " transform="matrix(1, 0, 0, -1, -50, 818)"/>
<path fill="none" stroke-width="1.2" stroke-linecap="butt" stroke-linejoin="round" stroke="rgb(0%, 0%, 0%)" stroke-opacity="1" stroke-miterlimit="10" d="M 152 736 L 168 744 " transform="matrix(1, 0, 0, -1, -50, 818)"/>
<path fill="none" stroke-width="1.2" stroke-linecap="butt" stroke-linejoin="round" stroke="rgb(0%, 0%, 0%)" stroke-opacity="1" stroke-miterlimit="10" d="M 136 744 L 152 736 " transform="matrix(1, 0, 0, -1, -50, 818)"/>
<path fill="none" stroke-width="1.2" stroke-linecap="butt" stroke-linejoin="round" stroke="rgb(0%, 0%, 0%)" stroke-opacity="1" stroke-miterlimit="10" d="M 152 736 L 168 728 " transform="matrix(1, 0, 0, -1, -50, 818)"/>
<path fill="none" stroke-width="1.2" stroke-linecap="butt" stroke-linejoin="round" stroke="rgb(0%, 0%, 0%)" stroke-opacity="1" stroke-miterlimit="10" d="M 136 760 L 152 752 " transform="matrix(1, 0, 0, -1, -50, 818)"/>
<path fill="none" stroke-width="1.2" stroke-linecap="butt" stroke-linejoin="round" stroke="rgb(0%, 0%, 0%)" stroke-opacity="1" stroke-miterlimit="10" d="M 152 752 L 168 728 " transform="matrix(1, 0, 0, -1, -50, 818)"/>
<path fill="none" stroke-width="1.2" stroke-linecap="butt" stroke-linejoin="round" stroke="rgb(0%, 0%, 0%)" stroke-opacity="1" stroke-miterlimit="10" d="M 136 728 L 152 752 " transform="matrix(1, 0, 0, -1, -50, 818)"/>
<path fill="none" stroke-width="1.2" stroke-linecap="butt" stroke-linejoin="round" stroke="rgb(0%, 0%, 0%)" stroke-opacity="1" stroke-miterlimit="10" d="M 152 752 L 168 760 " transform="matrix(1, 0, 0, -1, -50, 818)"/>
<path fill-rule="evenodd" fill="rgb(0%, 0%, 0%)" fill-opacity="1" d="M 119.800781 58 C 119.800781 55.601563 116.199219 55.601563 116.199219 58 C 116.199219 60.398438 119.800781 60.398438 119.800781 58 Z M 119.800781 58 "/>
<path fill-rule="evenodd" fill="rgb(0%, 0%, 0%)" fill-opacity="1" d="M 119.800781 74 C 119.800781 71.601563 116.199219 71.601563 116.199219 74 C 116.199219 76.398438 119.800781 76.398438 119.800781 74 Z M 119.800781 74 "/>
<path fill-rule="evenodd" fill="rgb(0%, 0%, 0%)" fill-opacity="1" d="M 119.800781 90 C 119.800781 87.601563 116.199219 87.601563 116.199219 90 C 116.199219 92.398438 119.800781 92.398438 119.800781 90 Z M 119.800781 90 "/>
<path fill-rule="evenodd" fill="rgb(0%, 0%, 0%)" fill-opacity="1" d="M 119.800781 106 C 119.800781 103.601563 116.199219 103.601563 116.199219 106 C 116.199219 108.398438 119.800781 108.398438 119.800781 106 Z M 119.800781 106 "/>
<path fill-rule="evenodd" fill="rgb(0%, 0%, 0%)" fill-opacity="1" d="M 119.800781 122 C 119.800781 119.601563 116.199219 119.601563 116.199219 122 C 116.199219 124.398438 119.800781 124.398438 119.800781 122 Z M 119.800781 122 "/>
<path fill-rule="evenodd" fill="rgb(0%, 0%, 0%)" fill-opacity="1" d="M 151.800781 58 C 151.800781 55.601563 148.199219 55.601563 148.199219 58 C 148.199219 60.398438 151.800781 60.398438 151.800781 58 Z M 151.800781 58 "/>
<path fill-rule="evenodd" fill="rgb(0%, 0%, 0%)" fill-opacity="1" d="M 151.800781 74 C 151.800781 71.601563 148.199219 71.601563 148.199219 74 C 148.199219 76.398438 151.800781 76.398438 151.800781 74 Z M 151.800781 74 "/>
<path fill-rule="evenodd" fill="rgb(0%, 0%, 0%)" fill-opacity="1" d="M 151.800781 90 C 151.800781 87.601563 148.199219 87.601563 148.199219 90 C 148.199219 92.398438 151.800781 92.398438 151.800781 90 Z M 151.800781 90 "/>
<path fill-rule="evenodd" fill="rgb(0%, 0%, 0%)" fill-opacity="1" d="M 151.800781 106 C 151.800781 103.601563 148.199219 103.601563 148.199219 106 C 148.199219 108.398438 151.800781 108.398438 151.800781 106 Z M 151.800781 106 "/>
<path fill-rule="evenodd" fill="rgb(0%, 0%, 0%)" fill-opacity="1" d="M 151.800781 122 C 151.800781 119.601563 148.199219 119.601563 148.199219 122 C 148.199219 124.398438 151.800781 124.398438 151.800781 122 Z M 151.800781 122 "/>
<path fill-rule="evenodd" fill="rgb(0%, 0%, 0%)" fill-opacity="1" d="M 135.800781 66 C 135.800781 63.601563 132.199219 63.601563 132.199219 66 C 132.199219 68.398438 135.800781 68.398438 135.800781 66 Z M 135.800781 66 "/>
<path fill-rule="evenodd" fill="rgb(0%, 0%, 0%)" fill-opacity="1" d="M 135.800781 82 C 135.800781 79.601563 132.199219 79.601563 132.199219 82 C 132.199219 84.398438 135.800781 84.398438 135.800781 82 Z M 135.800781 82 "/>
<path fill-rule="evenodd" fill="rgb(0%, 0%, 0%)" fill-opacity="1" d="M 135.800781 98 C 135.800781 95.601563 132.199219 95.601563 132.199219 98 C 132.199219 100.398438 135.800781 100.398438 135.800781 98 Z M 135.800781 98 "/>
<path fill-rule="evenodd" fill="rgb(0%, 0%, 0%)" fill-opacity="1" d="M 135.800781 114 C 135.800781 111.601563 132.199219 111.601563 132.199219 114 C 132.199219 116.398438 135.800781 116.398438 135.800781 114 Z M 135.800781 114 "/>
<path fill="none" stroke-width="1.2" stroke-linecap="butt" stroke-linejoin="round" stroke="rgb(0%, 0%, 0%)" stroke-opacity="1" stroke-miterlimit="10" d="M 168 760 L 200 760 " transform="matrix(1, 0, 0, -1, -50, 818)"/>
<path fill="none" stroke-width="1.2" stroke-linecap="butt" stroke-linejoin="round" stroke="rgb(0%, 0%, 0%)" stroke-opacity="1" stroke-miterlimit="10" d="M 168 744 L 200 744 " transform="matrix(1, 0, 0, -1, -50, 818)"/>
<path fill="none" stroke-width="1.2" stroke-linecap="butt" stroke-linejoin="round" stroke="rgb(0%, 0%, 0%)" stroke-opacity="1" stroke-miterlimit="10" d="M 168 728 L 200 728 " transform="matrix(1, 0, 0, -1, -50, 818)"/>
<path fill="none" stroke-width="1.2" stroke-linecap="butt" stroke-linejoin="round" stroke="rgb(0%, 0%, 0%)" stroke-opacity="1" stroke-miterlimit="10" d="M 168 712 L 200 712 " transform="matrix(1, 0, 0, -1, -50, 818)"/>
<path fill="none" stroke-width="1.2" stroke-linecap="butt" stroke-linejoin="round" stroke="rgb(0%, 0%, 0%)" stroke-opacity="1" stroke-miterlimit="10" d="M 168 696 L 200 696 " transform="matrix(1, 0, 0, -1, -50, 818)"/>
<path fill="none" stroke-width="1.2" stroke-linecap="butt" stroke-linejoin="round" stroke="rgb(0%, 0%, 0%)" stroke-opacity="1" stroke-miterlimit="10" d="M 168 696 L 184 704 " transform="matrix(1, 0, 0, -1, -50, 818)"/>
<path fill="none" stroke-width="1.2" stroke-linecap="butt" stroke-linejoin="round" stroke="rgb(0%, 0%, 0%)" stroke-opacity="1" stroke-miterlimit="10" d="M 184 704 L 200 696 " transform="matrix(1, 0, 0, -1, -50, 818)"/>
<path fill="none" stroke-width="1.2" stroke-linecap="butt" stroke-linejoin="round" stroke="rgb(0%, 0%, 0%)" stroke-opacity="1" stroke-miterlimit="10" d="M 184 704 L 200 712 " transform="matrix(1, 0, 0, -1, -50, 818)"/>
<path fill="none" stroke-width="1.2" stroke-linecap="butt" stroke-linejoin="round" stroke="rgb(0%, 0%, 0%)" stroke-opacity="1" stroke-miterlimit="10" d="M 168 712 L 184 704 " transform="matrix(1, 0, 0, -1, -50, 818)"/>
<path fill="none" stroke-width="1.2" stroke-linecap="butt" stroke-linejoin="round" stroke="rgb(0%, 0%, 0%)" stroke-opacity="1" stroke-miterlimit="10" d="M 168 712 L 184 720 " transform="matrix(1, 0, 0, -1, -50, 818)"/>
<path fill="none" stroke-width="1.2" stroke-linecap="butt" stroke-linejoin="round" stroke="rgb(0%, 0%, 0%)" stroke-opacity="1" stroke-miterlimit="10" d="M 184 720 L 200 728 " transform="matrix(1, 0, 0, -1, -50, 818)"/>
<path fill="none" stroke-width="1.2" stroke-linecap="butt" stroke-linejoin="round" stroke="rgb(0%, 0%, 0%)" stroke-opacity="1" stroke-miterlimit="10" d="M 168 728 L 184 720 " transform="matrix(1, 0, 0, -1, -50, 818)"/>
<path fill="none" stroke-width="1.2" stroke-linecap="butt" stroke-linejoin="round" stroke="rgb(0%, 0%, 0%)" stroke-opacity="1" stroke-miterlimit="10" d="M 184 720 L 200 712 " transform="matrix(1, 0, 0, -1, -50, 818)"/>
<path fill="none" stroke-width="1.2" stroke-linecap="butt" stroke-linejoin="round" stroke="rgb(0%, 0%, 0%)" stroke-opacity="1" stroke-miterlimit="10" d="M 168 728 L 184 736 " transform="matrix(1, 0, 0, -1, -50, 818)"/>
<path fill="none" stroke-width="1.2" stroke-linecap="butt" stroke-linejoin="round" stroke="rgb(0%, 0%, 0%)" stroke-opacity="1" stroke-miterlimit="10" d="M 184 736 L 200 744 " transform="matrix(1, 0, 0, -1, -50, 818)"/>
<path fill="none" stroke-width="1.2" stroke-linecap="butt" stroke-linejoin="round" stroke="rgb(0%, 0%, 0%)" stroke-opacity="1" stroke-miterlimit="10" d="M 168 744 L 184 736 " transform="matrix(1, 0, 0, -1, -50, 818)"/>
<path fill="none" stroke-width="1.2" stroke-linecap="butt" stroke-linejoin="round" stroke="rgb(0%, 0%, 0%)" stroke-opacity="1" stroke-miterlimit="10" d="M 184 736 L 200 728 " transform="matrix(1, 0, 0, -1, -50, 818)"/>
<path fill="none" stroke-width="1.2" stroke-linecap="butt" stroke-linejoin="round" stroke="rgb(0%, 0%, 0%)" stroke-opacity="1" stroke-miterlimit="10" d="M 168 760 L 184 752 " transform="matrix(1, 0, 0, -1, -50, 818)"/>
<path fill="none" stroke-width="1.2" stroke-linecap="butt" stroke-linejoin="round" stroke="rgb(0%, 0%, 0%)" stroke-opacity="1" stroke-miterlimit="10" d="M 184 752 L 200 728 " transform="matrix(1, 0, 0, -1, -50, 818)"/>
<path fill="none" stroke-width="1.2" stroke-linecap="butt" stroke-linejoin="round" stroke="rgb(0%, 0%, 0%)" stroke-opacity="1" stroke-miterlimit="10" d="M 168 728 L 184 752 " transform="matrix(1, 0, 0, -1, -50, 818)"/>
<path fill="none" stroke-width="1.2" stroke-linecap="butt" stroke-linejoin="round" stroke="rgb(0%, 0%, 0%)" stroke-opacity="1" stroke-miterlimit="10" d="M 184 752 L 200 760 " transform="matrix(1, 0, 0, -1, -50, 818)"/>
<path fill-rule="evenodd" fill="rgb(0%, 0%, 0%)" fill-opacity="1" d="M 151.800781 58 C 151.800781 55.601563 148.199219 55.601563 148.199219 58 C 148.199219 60.398438 151.800781 60.398438 151.800781 58 Z M 151.800781 58 "/>
<path fill-rule="evenodd" fill="rgb(0%, 0%, 0%)" fill-opacity="1" d="M 151.800781 74 C 151.800781 71.601563 148.199219 71.601563 148.199219 74 C 148.199219 76.398438 151.800781 76.398438 151.800781 74 Z M 151.800781 74 "/>
<path fill-rule="evenodd" fill="rgb(0%, 0%, 0%)" fill-opacity="1" d="M 151.800781 90 C 151.800781 87.601563 148.199219 87.601563 148.199219 90 C 148.199219 92.398438 151.800781 92.398438 151.800781 90 Z M 151.800781 90 "/>
<path fill-rule="evenodd" fill="rgb(0%, 0%, 0%)" fill-opacity="1" d="M 151.800781 106 C 151.800781 103.601563 148.199219 103.601563 148.199219 106 C 148.199219 108.398438 151.800781 108.398438 151.800781 106 Z M 151.800781 106 "/>
<path fill-rule="evenodd" fill="rgb(0%, 0%, 0%)" fill-opacity="1" d="M 151.800781 122 C 151.800781 119.601563 148.199219 119.601563 148.199219 122 C 148.199219 124.398438 151.800781 124.398438 151.800781 122 Z M 151.800781 122 "/>
<path fill-rule="evenodd" fill="rgb(0%, 0%, 0%)" fill-opacity="1" d="M 183.800781 58 C 183.800781 55.601563 180.199219 55.601563 180.199219 58 C 180.199219 60.398438 183.800781 60.398438 183.800781 58 Z M 183.800781 58 "/>
<path fill-rule="evenodd" fill="rgb(0%, 0%, 0%)" fill-opacity="1" d="M 183.800781 74 C 183.800781 71.601563 180.199219 71.601563 180.199219 74 C 180.199219 76.398438 183.800781 76.398438 183.800781 74 Z M 183.800781 74 "/>
<path fill-rule="evenodd" fill="rgb(0%, 0%, 0%)" fill-opacity="1" d="M 183.800781 90 C 183.800781 87.601563 180.199219 87.601563 180.199219 90 C 180.199219 92.398438 183.800781 92.398438 183.800781 90 Z M 183.800781 90 "/>
<path fill-rule="evenodd" fill="rgb(0%, 0%, 0%)" fill-opacity="1" d="M 183.800781 106 C 183.800781 103.601563 180.199219 103.601563 180.199219 106 C 180.199219 108.398438 183.800781 108.398438 183.800781 106 Z M 183.800781 106 "/>
<path fill-rule="evenodd" fill="rgb(0%, 0%, 0%)" fill-opacity="1" d="M 183.800781 122 C 183.800781 119.601563 180.199219 119.601563 180.199219 122 C 180.199219 124.398438 183.800781 124.398438 183.800781 122 Z M 183.800781 122 "/>
<path fill-rule="evenodd" fill="rgb(0%, 0%, 0%)" fill-opacity="1" d="M 167.800781 66 C 167.800781 63.601563 164.199219 63.601563 164.199219 66 C 164.199219 68.398438 167.800781 68.398438 167.800781 66 Z M 167.800781 66 "/>
<path fill-rule="evenodd" fill="rgb(0%, 0%, 0%)" fill-opacity="1" d="M 167.800781 82 C 167.800781 79.601563 164.199219 79.601563 164.199219 82 C 164.199219 84.398438 167.800781 84.398438 167.800781 82 Z M 167.800781 82 "/>
<path fill-rule="evenodd" fill="rgb(0%, 0%, 0%)" fill-opacity="1" d="M 167.800781 98 C 167.800781 95.601563 164.199219 95.601563 164.199219 98 C 164.199219 100.398438 167.800781 100.398438 167.800781 98 Z M 167.800781 98 "/>
<path fill-rule="evenodd" fill="rgb(0%, 0%, 0%)" fill-opacity="1" d="M 167.800781 114 C 167.800781 111.601563 164.199219 111.601563 164.199219 114 C 164.199219 116.398438 167.800781 116.398438 167.800781 114 Z M 167.800781 114 "/>
<path fill="none" stroke-width="1.2" stroke-linecap="butt" stroke-linejoin="round" stroke="rgb(0%, 0%, 0%)" stroke-opacity="1" stroke-miterlimit="10" d="M 200 760 L 232 760 " transform="matrix(1, 0, 0, -1, -50, 818)"/>
<path fill="none" stroke-width="1.2" stroke-linecap="butt" stroke-linejoin="round" stroke="rgb(0%, 0%, 0%)" stroke-opacity="1" stroke-miterlimit="10" d="M 200 744 L 232 744 " transform="matrix(1, 0, 0, -1, -50, 818)"/>
<path fill="none" stroke-width="1.2" stroke-linecap="butt" stroke-linejoin="round" stroke="rgb(0%, 0%, 0%)" stroke-opacity="1" stroke-miterlimit="10" d="M 200 728 L 232 728 " transform="matrix(1, 0, 0, -1, -50, 818)"/>
<path fill="none" stroke-width="1.2" stroke-linecap="butt" stroke-linejoin="round" stroke="rgb(0%, 0%, 0%)" stroke-opacity="1" stroke-miterlimit="10" d="M 200 712 L 232 712 " transform="matrix(1, 0, 0, -1, -50, 818)"/>
<path fill="none" stroke-width="1.2" stroke-linecap="butt" stroke-linejoin="round" stroke="rgb(0%, 0%, 0%)" stroke-opacity="1" stroke-miterlimit="10" d="M 200 696 L 232 696 " transform="matrix(1, 0, 0, -1, -50, 818)"/>
<path fill="none" stroke-width="1.2" stroke-linecap="butt" stroke-linejoin="round" stroke="rgb(0%, 0%, 0%)" stroke-opacity="1" stroke-miterlimit="10" d="M 200 696 L 216 704 " transform="matrix(1, 0, 0, -1, -50, 818)"/>
<path fill="none" stroke-width="1.2" stroke-linecap="butt" stroke-linejoin="round" stroke="rgb(0%, 0%, 0%)" stroke-opacity="1" stroke-miterlimit="10" d="M 216 704 L 232 696 " transform="matrix(1, 0, 0, -1, -50, 818)"/>
<path fill="none" stroke-width="1.2" stroke-linecap="butt" stroke-linejoin="round" stroke="rgb(0%, 0%, 0%)" stroke-opacity="1" stroke-miterlimit="10" d="M 216 704 L 232 712 " transform="matrix(1, 0, 0, -1, -50, 818)"/>
<path fill="none" stroke-width="1.2" stroke-linecap="butt" stroke-linejoin="round" stroke="rgb(0%, 0%, 0%)" stroke-opacity="1" stroke-miterlimit="10" d="M 200 712 L 216 704 " transform="matrix(1, 0, 0, -1, -50, 818)"/>
<path fill="none" stroke-width="1.2" stroke-linecap="butt" stroke-linejoin="round" stroke="rgb(0%, 0%, 0%)" stroke-opacity="1" stroke-miterlimit="10" d="M 200 712 L 216 720 " transform="matrix(1, 0, 0, -1, -50, 818)"/>
<path fill="none" stroke-width="1.2" stroke-linecap="butt" stroke-linejoin="round" stroke="rgb(0%, 0%, 0%)" stroke-opacity="1" stroke-miterlimit="10" d="M 216 720 L 232 728 " transform="matrix(1, 0, 0, -1, -50, 818)"/>
<path fill="none" stroke-width="1.2" stroke-linecap="butt" stroke-linejoin="round" stroke="rgb(0%, 0%, 0%)" stroke-opacity="1" stroke-miterlimit="10" d="M 200 728 L 216 720 " transform="matrix(1, 0, 0, -1, -50, 818)"/>
<path fill="none" stroke-width="1.2" stroke-linecap="butt" stroke-linejoin="round" stroke="rgb(0%, 0%, 0%)" stroke-opacity="1" stroke-miterlimit="10" d="M 216 720 L 232 712 " transform="matrix(1, 0, 0, -1, -50, 818)"/>
<path fill="none" stroke-width="1.2" stroke-linecap="butt" stroke-linejoin="round" stroke="rgb(0%, 0%, 0%)" stroke-opacity="1" stroke-miterlimit="10" d="M 200 728 L 216 736 " transform="matrix(1, 0, 0, -1, -50, 818)"/>
<path fill="none" stroke-width="1.2" stroke-linecap="butt" stroke-linejoin="round" stroke="rgb(0%, 0%, 0%)" stroke-opacity="1" stroke-miterlimit="10" d="M 216 736 L 232 744 " transform="matrix(1, 0, 0, -1, -50, 818)"/>
<path fill="none" stroke-width="1.2" stroke-linecap="butt" stroke-linejoin="round" stroke="rgb(0%, 0%, 0%)" stroke-opacity="1" stroke-miterlimit="10" d="M 200 744 L 216 736 " transform="matrix(1, 0, 0, -1, -50, 818)"/>
<path fill="none" stroke-width="1.2" stroke-linecap="butt" stroke-linejoin="round" stroke="rgb(0%, 0%, 0%)" stroke-opacity="1" stroke-miterlimit="10" d="M 216 736 L 232 728 " transform="matrix(1, 0, 0, -1, -50, 818)"/>
<path fill="none" stroke-width="1.2" stroke-linecap="butt" stroke-linejoin="round" stroke="rgb(0%, 0%, 0%)" stroke-opacity="1" stroke-miterlimit="10" d="M 200 760 L 216 752 " transform="matrix(1, 0, 0, -1, -50, 818)"/>
<path fill="none" stroke-width="1.2" stroke-linecap="butt" stroke-linejoin="round" stroke="rgb(0%, 0%, 0%)" stroke-opacity="1" stroke-miterlimit="10" d="M 216 752 L 232 728 " transform="matrix(1, 0, 0, -1, -50, 818)"/>
<path fill="none" stroke-width="1.2" stroke-linecap="butt" stroke-linejoin="round" stroke="rgb(0%, 0%, 0%)" stroke-opacity="1" stroke-miterlimit="10" d="M 200 728 L 216 752 " transform="matrix(1, 0, 0, -1, -50, 818)"/>
<path fill="none" stroke-width="1.2" stroke-linecap="butt" stroke-linejoin="round" stroke="rgb(0%, 0%, 0%)" stroke-opacity="1" stroke-miterlimit="10" d="M 216 752 L 232 760 " transform="matrix(1, 0, 0, -1, -50, 818)"/>
<path fill-rule="evenodd" fill="rgb(0%, 0%, 0%)" fill-opacity="1" d="M 183.800781 58 C 183.800781 55.601563 180.199219 55.601563 180.199219 58 C 180.199219 60.398438 183.800781 60.398438 183.800781 58 Z M 183.800781 58 "/>
<path fill-rule="evenodd" fill="rgb(0%, 0%, 0%)" fill-opacity="1" d="M 183.800781 74 C 183.800781 71.601563 180.199219 71.601563 180.199219 74 C 180.199219 76.398438 183.800781 76.398438 183.800781 74 Z M 183.800781 74 "/>
<path fill-rule="evenodd" fill="rgb(0%, 0%, 0%)" fill-opacity="1" d="M 183.800781 90 C 183.800781 87.601563 180.199219 87.601563 180.199219 90 C 180.199219 92.398438 183.800781 92.398438 183.800781 90 Z M 183.800781 90 "/>
<path fill-rule="evenodd" fill="rgb(0%, 0%, 0%)" fill-opacity="1" d="M 183.800781 106 C 183.800781 103.601563 180.199219 103.601563 180.199219 106 C 180.199219 108.398438 183.800781 108.398438 183.800781 106 Z M 183.800781 106 "/>
<path fill-rule="evenodd" fill="rgb(0%, 0%, 0%)" fill-opacity="1" d="M 183.800781 122 C 183.800781 119.601563 180.199219 119.601563 180.199219 122 C 180.199219 124.398438 183.800781 124.398438 183.800781 122 Z M 183.800781 122 "/>
<path fill-rule="evenodd" fill="rgb(0%, 0%, 0%)" fill-opacity="1" d="M 215.800781 58 C 215.800781 55.601563 212.199219 55.601563 212.199219 58 C 212.199219 60.398438 215.800781 60.398438 215.800781 58 Z M 215.800781 58 "/>
<path fill-rule="evenodd" fill="rgb(0%, 0%, 0%)" fill-opacity="1" d="M 215.800781 74 C 215.800781 71.601563 212.199219 71.601563 212.199219 74 C 212.199219 76.398438 215.800781 76.398438 215.800781 74 Z M 215.800781 74 "/>
<path fill-rule="evenodd" fill="rgb(0%, 0%, 0%)" fill-opacity="1" d="M 215.800781 90 C 215.800781 87.601563 212.199219 87.601563 212.199219 90 C 212.199219 92.398438 215.800781 92.398438 215.800781 90 Z M 215.800781 90 "/>
<path fill-rule="evenodd" fill="rgb(0%, 0%, 0%)" fill-opacity="1" d="M 215.800781 106 C 215.800781 103.601563 212.199219 103.601563 212.199219 106 C 212.199219 108.398438 215.800781 108.398438 215.800781 106 Z M 215.800781 106 "/>
<path fill-rule="evenodd" fill="rgb(0%, 0%, 0%)" fill-opacity="1" d="M 215.800781 122 C 215.800781 119.601563 212.199219 119.601563 212.199219 122 C 212.199219 124.398438 215.800781 124.398438 215.800781 122 Z M 215.800781 122 "/>
<path fill-rule="evenodd" fill="rgb(0%, 0%, 0%)" fill-opacity="1" d="M 199.800781 66 C 199.800781 63.601563 196.199219 63.601563 196.199219 66 C 196.199219 68.398438 199.800781 68.398438 199.800781 66 Z M 199.800781 66 "/>
<path fill-rule="evenodd" fill="rgb(0%, 0%, 0%)" fill-opacity="1" d="M 199.800781 82 C 199.800781 79.601563 196.199219 79.601563 196.199219 82 C 196.199219 84.398438 199.800781 84.398438 199.800781 82 Z M 199.800781 82 "/>
<path fill-rule="evenodd" fill="rgb(0%, 0%, 0%)" fill-opacity="1" d="M 199.800781 98 C 199.800781 95.601563 196.199219 95.601563 196.199219 98 C 196.199219 100.398438 199.800781 100.398438 199.800781 98 Z M 199.800781 98 "/>
<path fill-rule="evenodd" fill="rgb(0%, 0%, 0%)" fill-opacity="1" d="M 199.800781 114 C 199.800781 111.601563 196.199219 111.601563 196.199219 114 C 196.199219 116.398438 199.800781 116.398438 199.800781 114 Z M 199.800781 114 "/>
<path fill="none" stroke-width="1.2" stroke-linecap="butt" stroke-linejoin="round" stroke="rgb(0%, 0%, 0%)" stroke-opacity="1" stroke-miterlimit="10" d="M 232 760 L 264 760 " transform="matrix(1, 0, 0, -1, -50, 818)"/>
<path fill="none" stroke-width="1.2" stroke-linecap="butt" stroke-linejoin="round" stroke="rgb(0%, 0%, 0%)" stroke-opacity="1" stroke-miterlimit="10" d="M 232 744 L 264 744 " transform="matrix(1, 0, 0, -1, -50, 818)"/>
<path fill="none" stroke-width="1.2" stroke-linecap="butt" stroke-linejoin="round" stroke="rgb(0%, 0%, 0%)" stroke-opacity="1" stroke-miterlimit="10" d="M 232 728 L 264 728 " transform="matrix(1, 0, 0, -1, -50, 818)"/>
<path fill="none" stroke-width="1.2" stroke-linecap="butt" stroke-linejoin="round" stroke="rgb(0%, 0%, 0%)" stroke-opacity="1" stroke-miterlimit="10" d="M 232 712 L 264 712 " transform="matrix(1, 0, 0, -1, -50, 818)"/>
<path fill="none" stroke-width="1.2" stroke-linecap="butt" stroke-linejoin="round" stroke="rgb(0%, 0%, 0%)" stroke-opacity="1" stroke-miterlimit="10" d="M 232 696 L 264 696 " transform="matrix(1, 0, 0, -1, -50, 818)"/>
<path fill="none" stroke-width="1.2" stroke-linecap="butt" stroke-linejoin="round" stroke="rgb(0%, 0%, 0%)" stroke-opacity="1" stroke-miterlimit="10" d="M 232 696 L 248 704 " transform="matrix(1, 0, 0, -1, -50, 818)"/>
<path fill="none" stroke-width="1.2" stroke-linecap="butt" stroke-linejoin="round" stroke="rgb(0%, 0%, 0%)" stroke-opacity="1" stroke-miterlimit="10" d="M 248 704 L 264 696 " transform="matrix(1, 0, 0, -1, -50, 818)"/>
<path fill="none" stroke-width="1.2" stroke-linecap="butt" stroke-linejoin="round" stroke="rgb(0%, 0%, 0%)" stroke-opacity="1" stroke-miterlimit="10" d="M 248 704 L 264 712 " transform="matrix(1, 0, 0, -1, -50, 818)"/>
<path fill="none" stroke-width="1.2" stroke-linecap="butt" stroke-linejoin="round" stroke="rgb(0%, 0%, 0%)" stroke-opacity="1" stroke-miterlimit="10" d="M 232 712 L 248 704 " transform="matrix(1, 0, 0, -1, -50, 818)"/>
<path fill="none" stroke-width="1.2" stroke-linecap="butt" stroke-linejoin="round" stroke="rgb(0%, 0%, 0%)" stroke-opacity="1" stroke-miterlimit="10" d="M 232 712 L 248 720 " transform="matrix(1, 0, 0, -1, -50, 818)"/>
<path fill="none" stroke-width="1.2" stroke-linecap="butt" stroke-linejoin="round" stroke="rgb(0%, 0%, 0%)" stroke-opacity="1" stroke-miterlimit="10" d="M 248 720 L 264 728 " transform="matrix(1, 0, 0, -1, -50, 818)"/>
<path fill="none" stroke-width="1.2" stroke-linecap="butt" stroke-linejoin="round" stroke="rgb(0%, 0%, 0%)" stroke-opacity="1" stroke-miterlimit="10" d="M 232 728 L 248 720 " transform="matrix(1, 0, 0, -1, -50, 818)"/>
<path fill="none" stroke-width="1.2" stroke-linecap="butt" stroke-linejoin="round" stroke="rgb(0%, 0%, 0%)" stroke-opacity="1" stroke-miterlimit="10" d="M 248 720 L 264 712 " transform="matrix(1, 0, 0, -1, -50, 818)"/>
<path fill="none" stroke-width="1.2" stroke-linecap="butt" stroke-linejoin="round" stroke="rgb(0%, 0%, 0%)" stroke-opacity="1" stroke-miterlimit="10" d="M 232 728 L 248 736 " transform="matrix(1, 0, 0, -1, -50, 818)"/>
<path fill="none" stroke-width="1.2" stroke-linecap="butt" stroke-linejoin="round" stroke="rgb(0%, 0%, 0%)" stroke-opacity="1" stroke-miterlimit="10" d="M 248 736 L 264 744 " transform="matrix(1, 0, 0, -1, -50, 818)"/>
<path fill="none" stroke-width="1.2" stroke-linecap="butt" stroke-linejoin="round" stroke="rgb(0%, 0%, 0%)" stroke-opacity="1" stroke-miterlimit="10" d="M 232 744 L 248 736 " transform="matrix(1, 0, 0, -1, -50, 818)"/>
<path fill="none" stroke-width="1.2" stroke-linecap="butt" stroke-linejoin="round" stroke="rgb(0%, 0%, 0%)" stroke-opacity="1" stroke-miterlimit="10" d="M 248 736 L 264 728 " transform="matrix(1, 0, 0, -1, -50, 818)"/>
<path fill="none" stroke-width="1.2" stroke-linecap="butt" stroke-linejoin="round" stroke="rgb(0%, 0%, 0%)" stroke-opacity="1" stroke-miterlimit="10" d="M 232 760 L 248 752 " transform="matrix(1, 0, 0, -1, -50, 818)"/>
<path fill="none" stroke-width="1.2" stroke-linecap="butt" stroke-linejoin="round" stroke="rgb(0%, 0%, 0%)" stroke-opacity="1" stroke-miterlimit="10" d="M 248 752 L 264 728 " transform="matrix(1, 0, 0, -1, -50, 818)"/>
<path fill="none" stroke-width="1.2" stroke-linecap="butt" stroke-linejoin="round" stroke="rgb(0%, 0%, 0%)" stroke-opacity="1" stroke-miterlimit="10" d="M 232 728 L 248 752 " transform="matrix(1, 0, 0, -1, -50, 818)"/>
<path fill="none" stroke-width="1.2" stroke-linecap="butt" stroke-linejoin="round" stroke="rgb(0%, 0%, 0%)" stroke-opacity="1" stroke-miterlimit="10" d="M 248 752 L 264 760 " transform="matrix(1, 0, 0, -1, -50, 818)"/>
<path fill-rule="evenodd" fill="rgb(0%, 0%, 0%)" fill-opacity="1" d="M 215.800781 58 C 215.800781 55.601563 212.199219 55.601563 212.199219 58 C 212.199219 60.398438 215.800781 60.398438 215.800781 58 Z M 215.800781 58 "/>
<path fill-rule="evenodd" fill="rgb(0%, 0%, 0%)" fill-opacity="1" d="M 215.800781 74 C 215.800781 71.601563 212.199219 71.601563 212.199219 74 C 212.199219 76.398438 215.800781 76.398438 215.800781 74 Z M 215.800781 74 "/>
<path fill-rule="evenodd" fill="rgb(0%, 0%, 0%)" fill-opacity="1" d="M 215.800781 90 C 215.800781 87.601563 212.199219 87.601563 212.199219 90 C 212.199219 92.398438 215.800781 92.398438 215.800781 90 Z M 215.800781 90 "/>
<path fill-rule="evenodd" fill="rgb(0%, 0%, 0%)" fill-opacity="1" d="M 215.800781 106 C 215.800781 103.601563 212.199219 103.601563 212.199219 106 C 212.199219 108.398438 215.800781 108.398438 215.800781 106 Z M 215.800781 106 "/>
<path fill-rule="evenodd" fill="rgb(0%, 0%, 0%)" fill-opacity="1" d="M 215.800781 122 C 215.800781 119.601563 212.199219 119.601563 212.199219 122 C 212.199219 124.398438 215.800781 124.398438 215.800781 122 Z M 215.800781 122 "/>
<path fill-rule="evenodd" fill="rgb(0%, 0%, 0%)" fill-opacity="1" d="M 247.800781 58 C 247.800781 55.601563 244.199219 55.601563 244.199219 58 C 244.199219 60.398438 247.800781 60.398438 247.800781 58 Z M 247.800781 58 "/>
<path fill-rule="evenodd" fill="rgb(0%, 0%, 0%)" fill-opacity="1" d="M 247.800781 74 C 247.800781 71.601563 244.199219 71.601563 244.199219 74 C 244.199219 76.398438 247.800781 76.398438 247.800781 74 Z M 247.800781 74 "/>
<path fill-rule="evenodd" fill="rgb(0%, 0%, 0%)" fill-opacity="1" d="M 247.800781 90 C 247.800781 87.601563 244.199219 87.601563 244.199219 90 C 244.199219 92.398438 247.800781 92.398438 247.800781 90 Z M 247.800781 90 "/>
<path fill-rule="evenodd" fill="rgb(0%, 0%, 0%)" fill-opacity="1" d="M 247.800781 106 C 247.800781 103.601563 244.199219 103.601563 244.199219 106 C 244.199219 108.398438 247.800781 108.398438 247.800781 106 Z M 247.800781 106 "/>
<path fill-rule="evenodd" fill="rgb(0%, 0%, 0%)" fill-opacity="1" d="M 247.800781 122 C 247.800781 119.601563 244.199219 119.601563 244.199219 122 C 244.199219 124.398438 247.800781 124.398438 247.800781 122 Z M 247.800781 122 "/>
<path fill-rule="evenodd" fill="rgb(0%, 0%, 0%)" fill-opacity="1" d="M 231.800781 66 C 231.800781 63.601563 228.199219 63.601563 228.199219 66 C 228.199219 68.398438 231.800781 68.398438 231.800781 66 Z M 231.800781 66 "/>
<path fill-rule="evenodd" fill="rgb(0%, 0%, 0%)" fill-opacity="1" d="M 231.800781 82 C 231.800781 79.601563 228.199219 79.601563 228.199219 82 C 228.199219 84.398438 231.800781 84.398438 231.800781 82 Z M 231.800781 82 "/>
<path fill-rule="evenodd" fill="rgb(0%, 0%, 0%)" fill-opacity="1" d="M 231.800781 98 C 231.800781 95.601563 228.199219 95.601563 228.199219 98 C 228.199219 100.398438 231.800781 100.398438 231.800781 98 Z M 231.800781 98 "/>
<path fill-rule="evenodd" fill="rgb(0%, 0%, 0%)" fill-opacity="1" d="M 231.800781 114 C 231.800781 111.601563 228.199219 111.601563 228.199219 114 C 228.199219 116.398438 231.800781 116.398438 231.800781 114 Z M 231.800781 114 "/>
<path fill="none" stroke-width="1.2" stroke-linecap="butt" stroke-linejoin="round" stroke="rgb(0%, 0%, 0%)" stroke-opacity="1" stroke-miterlimit="10" d="M 264 760 L 296 760 " transform="matrix(1, 0, 0, -1, -50, 818)"/>
<path fill="none" stroke-width="1.2" stroke-linecap="butt" stroke-linejoin="round" stroke="rgb(0%, 0%, 0%)" stroke-opacity="1" stroke-miterlimit="10" d="M 264 744 L 296 744 " transform="matrix(1, 0, 0, -1, -50, 818)"/>
<path fill="none" stroke-width="1.2" stroke-linecap="butt" stroke-linejoin="round" stroke="rgb(0%, 0%, 0%)" stroke-opacity="1" stroke-miterlimit="10" d="M 264 728 L 296 728 " transform="matrix(1, 0, 0, -1, -50, 818)"/>
<path fill="none" stroke-width="1.2" stroke-linecap="butt" stroke-linejoin="round" stroke="rgb(0%, 0%, 0%)" stroke-opacity="1" stroke-miterlimit="10" d="M 264 712 L 296 712 " transform="matrix(1, 0, 0, -1, -50, 818)"/>
<path fill="none" stroke-width="1.2" stroke-linecap="butt" stroke-linejoin="round" stroke="rgb(0%, 0%, 0%)" stroke-opacity="1" stroke-miterlimit="10" d="M 264 696 L 296 696 " transform="matrix(1, 0, 0, -1, -50, 818)"/>
<path fill="none" stroke-width="1.2" stroke-linecap="butt" stroke-linejoin="round" stroke="rgb(0%, 0%, 0%)" stroke-opacity="1" stroke-miterlimit="10" d="M 264 696 L 280 704 " transform="matrix(1, 0, 0, -1, -50, 818)"/>
<path fill="none" stroke-width="1.2" stroke-linecap="butt" stroke-linejoin="round" stroke="rgb(0%, 0%, 0%)" stroke-opacity="1" stroke-miterlimit="10" d="M 280 704 L 296 696 " transform="matrix(1, 0, 0, -1, -50, 818)"/>
<path fill="none" stroke-width="1.2" stroke-linecap="butt" stroke-linejoin="round" stroke="rgb(0%, 0%, 0%)" stroke-opacity="1" stroke-miterlimit="10" d="M 280 704 L 296 712 " transform="matrix(1, 0, 0, -1, -50, 818)"/>
<path fill="none" stroke-width="1.2" stroke-linecap="butt" stroke-linejoin="round" stroke="rgb(0%, 0%, 0%)" stroke-opacity="1" stroke-miterlimit="10" d="M 264 712 L 280 704 " transform="matrix(1, 0, 0, -1, -50, 818)"/>
<path fill="none" stroke-width="1.2" stroke-linecap="butt" stroke-linejoin="round" stroke="rgb(0%, 0%, 0%)" stroke-opacity="1" stroke-miterlimit="10" d="M 264 712 L 280 720 " transform="matrix(1, 0, 0, -1, -50, 818)"/>
<path fill="none" stroke-width="1.2" stroke-linecap="butt" stroke-linejoin="round" stroke="rgb(0%, 0%, 0%)" stroke-opacity="1" stroke-miterlimit="10" d="M 280 720 L 296 728 " transform="matrix(1, 0, 0, -1, -50, 818)"/>
<path fill="none" stroke-width="1.2" stroke-linecap="butt" stroke-linejoin="round" stroke="rgb(0%, 0%, 0%)" stroke-opacity="1" stroke-miterlimit="10" d="M 264 728 L 280 720 " transform="matrix(1, 0, 0, -1, -50, 818)"/>
<path fill="none" stroke-width="1.2" stroke-linecap="butt" stroke-linejoin="round" stroke="rgb(0%, 0%, 0%)" stroke-opacity="1" stroke-miterlimit="10" d="M 280 720 L 296 712 " transform="matrix(1, 0, 0, -1, -50, 818)"/>
<path fill="none" stroke-width="1.2" stroke-linecap="butt" stroke-linejoin="round" stroke="rgb(0%, 0%, 0%)" stroke-opacity="1" stroke-miterlimit="10" d="M 264 728 L 280 736 " transform="matrix(1, 0, 0, -1, -50, 818)"/>
<path fill="none" stroke-width="1.2" stroke-linecap="butt" stroke-linejoin="round" stroke="rgb(0%, 0%, 0%)" stroke-opacity="1" stroke-miterlimit="10" d="M 280 736 L 296 744 " transform="matrix(1, 0, 0, -1, -50, 818)"/>
<path fill="none" stroke-width="1.2" stroke-linecap="butt" stroke-linejoin="round" stroke="rgb(0%, 0%, 0%)" stroke-opacity="1" stroke-miterlimit="10" d="M 264 744 L 280 736 " transform="matrix(1, 0, 0, -1, -50, 818)"/>
<path fill="none" stroke-width="1.2" stroke-linecap="butt" stroke-linejoin="round" stroke="rgb(0%, 0%, 0%)" stroke-opacity="1" stroke-miterlimit="10" d="M 280 736 L 296 728 " transform="matrix(1, 0, 0, -1, -50, 818)"/>
<path fill="none" stroke-width="1.2" stroke-linecap="butt" stroke-linejoin="round" stroke="rgb(0%, 0%, 0%)" stroke-opacity="1" stroke-miterlimit="10" d="M 264 760 L 280 752 " transform="matrix(1, 0, 0, -1, -50, 818)"/>
<path fill="none" stroke-width="1.2" stroke-linecap="butt" stroke-linejoin="round" stroke="rgb(0%, 0%, 0%)" stroke-opacity="1" stroke-miterlimit="10" d="M 280 752 L 296 728 " transform="matrix(1, 0, 0, -1, -50, 818)"/>
<path fill="none" stroke-width="1.2" stroke-linecap="butt" stroke-linejoin="round" stroke="rgb(0%, 0%, 0%)" stroke-opacity="1" stroke-miterlimit="10" d="M 264 728 L 280 752 " transform="matrix(1, 0, 0, -1, -50, 818)"/>
<path fill="none" stroke-width="1.2" stroke-linecap="butt" stroke-linejoin="round" stroke="rgb(0%, 0%, 0%)" stroke-opacity="1" stroke-miterlimit="10" d="M 280 752 L 296 760 " transform="matrix(1, 0, 0, -1, -50, 818)"/>
<path fill="none" stroke-width="2" stroke-linecap="butt" stroke-linejoin="round" stroke="rgb(0%, 0%, 100%)" stroke-opacity="1" stroke-miterlimit="10" d="M 72 744 L 168 696 " transform="matrix(1, 0, 0, -1, -50, 818)"/>
<path fill="none" stroke-width="2" stroke-linecap="butt" stroke-linejoin="round" stroke="rgb(100%, 64.7%, 0%)" stroke-opacity="1" stroke-miterlimit="10" d="M 104 744 L 136 728 L 152 752 L 168 760 " transform="matrix(1, 0, 0, -1, -50, 818)"/>
<path fill="none" stroke-width="2" stroke-linecap="butt" stroke-linejoin="round" stroke="rgb(93.3%, 51%, 93.3%)" stroke-opacity="1" stroke-miterlimit="10" d="M 200 696 L 296 744 " transform="matrix(1, 0, 0, -1, -50, 818)"/>
<g clip-path="url(#clip-16)">
<g fill="rgb(0%, 0%, 0%)" fill-opacity="1">
<use xlink:href="#glyph-6-0" x="18" y="134"/>
</g>
</g>
<g clip-path="url(#clip-17)">
<g fill="rgb(0%, 0%, 0%)" fill-opacity="1">
<use xlink:href="#glyph-6-1" x="50" y="134"/>
</g>
</g>
<g clip-path="url(#clip-18)">
<g fill="rgb(0%, 0%, 0%)" fill-opacity="1">
<use xlink:href="#glyph-6-2" x="82" y="134"/>
</g>
</g>
<g clip-path="url(#clip-19)">
<g fill="rgb(0%, 0%, 0%)" fill-opacity="1">
<use xlink:href="#glyph-6-3" x="114" y="134"/>
</g>
</g>
<g clip-path="url(#clip-20)">
<g fill="rgb(0%, 0%, 0%)" fill-opacity="1">
<use xlink:href="#glyph-6-4" x="146" y="134"/>
</g>
</g>
<g clip-path="url(#clip-21)">
<g fill="rgb(0%, 0%, 0%)" fill-opacity="1">
<use xlink:href="#glyph-6-5" x="178" y="134"/>
</g>
</g>
<g clip-path="url(#clip-22)">
<g fill="rgb(0%, 0%, 0%)" fill-opacity="1">
<use xlink:href="#glyph-6-6" x="210" y="134"/>
</g>
</g>
<g clip-path="url(#clip-23)">
<g fill="rgb(0%, 0%, 0%)" fill-opacity="1">
<use xlink:href="#glyph-6-7" x="242" y="134"/>
</g>
</g>
</svg>
